<svg width="21" height="24" viewBox="0 0 21 24" fill="none" xmlns="http://www.w3.org/2000/svg">
<path d="M20.934 13.3045C20.856 13.1176 20.6741 12.9956 20.4721 12.9956H14.995V0.499848C14.995 0.22394 14.7711 0 14.4952 0H6.49783C6.22192 0 5.99798 0.22394 5.99798 0.499848V12.9957H0.499843C0.297927 12.9957 0.115972 13.1176 0.0379984 13.3036C-0.0389914 13.4905 0.0029944 13.7054 0.145962 13.8484L10.1176 23.853C10.2116 23.947 10.3386 24 10.4715 24C10.6044 24 10.7314 23.947 10.8254 23.854L20.826 13.8494C20.969 13.7064 21.012 13.4915 20.934 13.3045Z" fill="#FF5F37"/>
</svg>
