<svg width="129" height="124" viewBox="0 0 129 124" fill="none" xmlns="http://www.w3.org/2000/svg">
<g clip-path="url(#clip0)">
<path d="M7.05232 46.205C7.23155 45.8205 7.47267 45.4681 7.76605 45.1619C8.1636 44.7307 8.68734 44.4364 9.26241 44.3211C9.52705 44.2818 9.79045 44.2424 10.0526 44.2029C10.3713 44.2373 10.6864 44.277 11.0036 44.3196C11.1183 44.338 11.2306 44.3697 11.3381 44.414C11.5191 44.4259 11.7047 44.4466 11.8976 44.4742C13.0461 44.6651 14.1792 44.9402 15.2876 45.2973C18.374 46.2204 21.3954 47.3296 24.4464 48.3616C26.0219 48.8954 27.5889 49.4537 29.1715 49.9664C29.9431 50.2144 30.7233 50.4365 31.5036 50.6566C32.1421 50.829 32.7687 51.043 33.3795 51.2971C33.7372 51.4697 34.0809 51.6701 34.4075 51.8963C34.9076 52.1714 35.3274 52.5723 35.6255 53.0593C36.0056 53.6789 36.1707 54.4066 36.0949 55.1292C36.0192 55.8519 35.7068 56.529 35.2065 57.0552C34.9856 57.2355 34.7642 57.415 34.5422 57.5937C34.0355 57.9031 33.4548 58.0706 32.8608 58.0785C32.1874 58.1357 31.509 58.0829 30.8522 57.922C30.4603 57.8323 30.0754 57.6935 29.6902 57.5804C28.8787 57.3424 28.0614 57.1336 27.2669 56.8442C25.2748 56.1192 23.3119 55.3165 21.3531 54.5074C20.9671 54.3477 20.5821 54.1863 20.198 54.0232C20.3228 54.1608 20.4469 54.2986 20.5704 54.4367C21.6507 55.6528 22.821 56.7933 23.9547 57.9599C24.4985 58.5193 25.1189 59.021 25.6952 59.5462C26.2276 60.031 26.7425 60.5622 27.3072 61.0098C28.5973 62.0301 29.8873 63.0515 31.1772 64.0739C31.9938 64.6351 32.8112 65.1965 33.6293 65.758C34.2261 66.1685 34.8237 66.5789 35.422 66.9894C35.65 67.1448 35.8721 67.3154 36.1108 67.4559C37.2342 68.1122 38.3581 68.7688 39.4825 69.4256C40.3386 69.9269 41.1835 70.4691 42.0627 70.9316C44.2099 72.0675 46.3588 73.202 48.5095 74.3352C48.7441 74.4594 48.9955 74.5572 49.2362 74.6667C49.9594 74.995 50.6832 75.3234 51.4077 75.6519C52.6225 76.2041 53.8305 76.7639 55.0686 77.2622C57.8301 78.343 60.6504 79.2665 63.5159 80.0284C66.5621 80.8226 69.6579 81.4116 72.7825 81.7913C74.1567 81.9447 75.5353 82.0528 76.9165 82.13C77.9863 82.1909 79.0715 82.264 80.1446 82.2517C81.2356 82.2399 82.3266 82.2288 83.4176 82.2185C84.6498 82.2056 85.883 82.1926 87.1172 82.1793C87.778 82.1723 88.4378 82.1071 89.0966 82.0627C90.5057 81.9702 91.9135 81.8773 93.3202 81.7839C93.8996 81.7463 94.4784 81.7205 95.0535 81.6491C97.241 81.3751 99.4288 81.1016 101.617 80.8284C107.636 79.8692 113.52 78.1993 119.145 75.8537C120.341 75.3373 121.492 74.7227 122.587 74.0163C123.663 73.3047 124.703 72.5331 125.75 71.7793C126.023 71.6133 126.35 71.5618 126.66 71.6361C126.971 71.7103 127.239 71.9044 127.407 72.1759C127.569 72.45 127.618 72.7762 127.544 73.0855C127.47 73.3949 127.279 73.6633 127.011 73.8339C125.865 74.6622 124.721 75.5021 123.543 76.2877C122.166 77.1466 120.713 77.8782 119.203 78.4734C116.157 79.7547 113.031 80.8391 109.845 81.72C108.329 82.149 106.801 82.535 105.261 82.8781C104.184 83.1198 103.097 83.3671 102.005 83.5362C100.622 83.7495 99.2379 83.9628 97.8529 84.176C97.1735 84.2812 96.4945 84.386 95.8156 84.4902C95.4494 84.5474 95.0792 84.6206 94.7105 84.6568C93.4998 84.776 92.2894 84.8948 91.0791 85.0131C89.8677 85.1306 88.657 85.2489 87.4471 85.368C87.1162 85.4002 86.7826 85.421 86.4479 85.4361C85.7945 85.4654 85.1373 85.4724 84.4875 85.5008L80.304 85.6885C79.323 85.7309 78.3377 85.705 77.3563 85.6955C75.6402 85.6752 73.9266 85.594 72.2156 85.4519C68.8192 85.1694 65.4463 84.6516 62.121 83.9022C58.8434 83.1462 55.6184 82.1767 52.4667 81.0001C51.2345 80.5521 50.0289 80.0127 48.814 79.5178C48.1601 79.2512 47.5058 78.9848 46.8509 78.7186C46.619 78.6233 46.3815 78.538 46.1568 78.4277C43.9887 77.3661 41.8215 76.3041 39.6549 75.2415C38.6531 74.7468 37.684 74.1646 36.7025 73.6281C35.6616 73.0591 34.621 72.4898 33.5806 71.9202C33.3158 71.7762 33.0669 71.5906 32.814 71.4266C32.1327 70.9859 31.4508 70.5457 30.7683 70.1059C29.7477 69.4448 28.7016 68.8156 27.7264 68.0889C26.6399 67.2812 25.5535 66.4723 24.467 65.6623C24.1476 65.4245 23.8264 65.1855 23.5068 64.9478C23.0985 64.6446 22.724 64.2791 22.3369 63.9471C21.5205 63.2476 20.6599 62.5789 19.8878 61.8272C18.9488 60.9102 18.0091 59.9934 17.0685 59.0767C16.2914 58.3199 15.5776 57.489 14.8352 56.6997C14.5198 56.364 14.2109 56.0192 13.9063 55.6708C14.0568 56.5348 14.2163 57.3975 14.3931 58.2574C14.7525 59.9997 15.1581 61.7307 15.5804 63.4607C15.7589 64.197 15.929 64.9353 16.101 65.6737C16.4294 66.9576 16.6631 68.2638 16.8001 69.5818C16.808 69.9905 16.7084 70.394 16.5113 70.7517C16.3141 71.1095 16.0265 71.4091 15.677 71.6204C15.3221 71.8386 14.9155 71.9585 14.4988 71.9681C14.0822 71.9776 13.6703 71.8763 13.3053 71.6746C12.5564 71.2538 12.0026 70.5553 11.7637 69.7299C11.6657 69.5052 11.5616 69.2824 11.4728 69.054C11.2499 68.4724 11.0393 67.8884 10.8354 67.2993C10.4932 66.317 10.19 65.3131 9.9053 64.3131C9.29938 62.1788 8.68598 60.0398 8.20498 57.8736C7.63378 55.2937 7.09109 52.7128 6.74173 50.0921C6.64472 49.4027 6.60413 48.7065 6.62037 48.0106C6.64081 47.3855 6.78777 46.7713 7.05235 46.205" fill="#828282"/>
</g>
<defs>
<clipPath id="clip0">
<rect width="85" height="99" fill="white" transform="matrix(0.5 0.866025 0.866025 -0.5 0 49.5)"/>
</clipPath>
</defs>
</svg>
