<svg width="18" height="12" viewBox="0 0 18 12" fill="none" xmlns="http://www.w3.org/2000/svg">
<path d="M17.2003 5.42665L12.0111 0.237454C11.6945 -0.0791515 11.181 -0.0791515 10.8644 0.237454C10.5478 0.554125 10.5478 1.06747 10.8644 1.38414L14.6695 5.18918H0.810812C0.363049 5.18918 0 5.55223 0 5.99999C0 6.44769 0.363049 6.8108 0.810812 6.8108H14.6695L10.8646 10.6158C10.5479 10.9325 10.5479 11.4459 10.8646 11.7625C11.0228 11.9207 11.2304 12 11.4379 12C11.6454 12 11.8529 11.9207 12.0112 11.7625L17.2003 6.57333C17.517 6.25666 17.517 5.74332 17.2003 5.42665Z" fill="#131315"/>
</svg>
