<svg width="60" height="60" viewBox="0 0 60 60" fill="none" xmlns="http://www.w3.org/2000/svg">
<path d="M20.9813 22.7416C20.9813 21.4081 19.8964 20.3223 18.5619 20.3223C17.2274 20.3223 16.1426 21.4081 16.1426 22.7416C16.1426 24.0752 17.2274 25.161 18.5619 25.161C19.8964 25.161 20.9813 24.0752 20.9813 22.7416ZM18.5619 23.2255C18.2958 23.2255 18.0781 23.0087 18.0781 22.7416C18.0781 22.4745 18.2958 22.2577 18.5619 22.2577C18.8281 22.2577 19.0458 22.4745 19.0458 22.7416C19.0458 23.0087 18.8281 23.2255 18.5619 23.2255Z" fill="black"/>
<path d="M40.5 50H37.5L36 51.5L35.5 54.5L37 56L42 51L40.5 50Z" fill="#B5DB1E"/>
<path d="M48 43H45L43.5 44.5L43 47.5L44.5 49L49.5 44L48 43Z" fill="#931EDB"/>
<path d="M54 36H51L49.5 37.5L49 40.5L50.5 42L55.5 37L54 36Z" fill="#FAEF85"/>
<path d="M31.142 20.3223C29.8075 20.3223 28.7227 21.4081 28.7227 22.7416C28.7227 24.0752 29.8075 25.161 31.142 25.161C32.4765 25.161 33.5614 24.0752 33.5614 22.7416C33.5614 21.4081 32.4765 20.3223 31.142 20.3223ZM31.142 23.2255C30.8759 23.2255 30.6581 23.0087 30.6581 22.7416C30.6581 22.4745 30.8759 22.2577 31.142 22.2577C31.4081 22.2577 31.6259 22.4745 31.6259 22.7416C31.6259 23.0087 31.4081 23.2255 31.142 23.2255Z" fill="black"/>
<path d="M21.9495 32.874C21.9495 32.3389 22.385 31.9034 22.9201 31.9034L26.7853 31.9034C27.3204 31.9034 27.7559 32.3389 27.7559 32.874L27.7559 33.8389L29.6914 33.8389L29.6914 32.874C29.6914 31.2714 28.3879 29.9679 26.7853 29.9679L22.9201 29.9679C21.3175 29.9679 20.014 31.2714 20.014 32.874L20.014 33.8389L21.9495 33.8389L21.9495 32.874Z" fill="black"/>
<path d="M57.3551 34.8387C56.7309 34.8387 56.1454 35.0816 55.7031 35.5229L55.5851 35.641C54.8002 35.1203 53.8809 34.8387 52.917 34.8387C51.6241 34.8387 50.4096 35.3419 49.496 36.2555C47.8441 37.9074 47.6389 40.4671 48.8805 42.3445L48.6454 42.5806H42.2718V44.0458C41.128 43.1274 39.8273 42.4297 38.4251 41.9845C42.6415 40.8813 44.6331 39.5894 44.7444 39.5148L45.1751 39.2274V20.3226C45.1751 9.11613 36.058 0 24.8525 0C13.647 0 4.5299 9.11613 4.5299 20.3226V39.2274L4.96055 39.5148C5.07184 39.5894 7.06248 40.8803 11.2751 41.9835C7.6199 43.1584 4.66345 46.0703 3.50119 49.7913L0.310547 60H36.866H48.0783H59.6912V37.1748C59.6912 35.8868 58.6431 34.8387 57.3551 34.8387ZM50.8644 37.6239C51.7228 36.7655 53.0757 36.5894 54.1509 37.0742L50.306 40.919C49.7951 39.8419 49.9731 38.5152 50.8644 37.6239ZM44.2073 44.5161H46.7099L44.2073 47.0187V44.5161ZM6.46538 38.1513V20.3226C6.46538 10.1835 14.7135 1.93548 24.8525 1.93548C34.9915 1.93548 43.2396 10.1835 43.2396 20.3226V38.1513C42.1431 38.7387 38.9312 40.2203 33.2922 41.039L31.6267 40.7826V39.78C34.8831 37.89 37.286 34.6906 38.097 30.901C40.4486 30.5729 42.2718 28.5697 42.2718 26.129C42.2718 23.7929 40.6064 21.8381 38.4009 21.3881V13.5484H36.4654V16.7565C35.5838 16.1274 34.407 15.0097 33.4605 13.1158L33.1925 12.5806H31.078L30.7964 13.05C28.7893 16.3965 18.2273 17.3023 13.2396 17.4077V13.5484H11.3041V21.3881C9.09861 21.8381 7.43313 23.7929 7.43313 26.129C7.43313 28.5697 9.25635 30.5729 11.608 30.901C12.4189 34.6906 14.8218 37.89 18.0783 39.78V40.7826L16.4118 41.039C10.7709 40.2194 7.55893 38.7368 6.46538 38.1513ZM24.8525 39.6774C18.4489 39.6774 13.2396 34.4681 13.2396 28.0645V19.3442C16.9296 19.2716 28.6499 18.7171 32.0602 14.6032C33.5641 17.2597 35.4744 18.5081 36.4654 19.0132V28.0645C36.4654 34.4681 31.256 39.6774 24.8525 39.6774ZM29.6912 40.7042V41.16L24.8525 45.1926L20.0138 41.16V40.7042C21.5186 41.2829 23.1464 41.6129 24.8525 41.6129C26.5586 41.6129 28.1864 41.2829 29.6912 40.7042ZM24.8525 47.7116L30.9435 42.6358L32.696 42.9058L32.6989 42.9271L24.8525 49.9887L17.006 42.9271L17.0089 42.9058L18.7615 42.6358L24.8525 47.7116ZM38.3602 28.8668C38.3757 28.5997 38.4009 28.3355 38.4009 28.0645V23.4039C39.5244 23.8045 40.3364 24.869 40.3364 26.129C40.3364 27.4035 39.5051 28.4777 38.3602 28.8668ZM11.3447 28.8668C10.1999 28.4777 9.36861 27.4035 9.36861 26.129C9.36861 24.869 10.1805 23.8045 11.3041 23.4039V28.0645C11.3041 28.3355 11.3293 28.5997 11.3447 28.8668ZM35.3322 55.8929L35.2131 56.0119C34.7796 56.4474 34.5299 57.0494 34.5299 57.6639C34.5299 57.8013 34.5473 57.9339 34.5705 58.0645H12.4005L13.2318 51.4103L11.3118 51.1703L10.4496 58.0645H2.9428L5.34764 50.3681C6.47893 46.7506 9.6299 44.04 13.376 43.4642L14.5412 43.2852L14.5276 43.2997L24.8525 52.5919L35.1773 43.2997L35.1638 43.2852L36.3289 43.4642C38.638 43.8194 40.7254 44.97 42.2718 46.7061V48.9532L42.0367 49.1884C41.2518 48.6687 40.3325 48.3871 39.3686 48.3871C38.0757 48.3871 36.8612 48.8903 35.9476 49.8039C34.2957 51.4558 34.0905 54.0155 35.3322 55.8929ZM40.6025 50.6235L36.7576 54.4684C36.2467 53.3903 36.4247 52.0635 37.316 51.1732C38.1734 50.3158 39.5273 50.1387 40.6025 50.6235ZM57.7557 58.0645H48.0783H36.866C36.6454 58.0645 36.4654 57.8845 36.4654 57.6639C36.4654 57.5584 36.508 57.4548 36.5825 57.3803L57.0705 36.8923C57.147 36.8158 57.2486 36.7742 57.3551 36.7742C57.5757 36.7742 57.7557 36.9542 57.7557 37.1748V58.0645Z" fill="black"/>
</svg>
