<svg width="60" height="60" viewBox="0 0 60 60" fill="none" xmlns="http://www.w3.org/2000/svg">
<g clip-path="url(#clip0)">
<path d="M51.0195 39.9754L30.3529 43.5695L24.4829 37.6995C24.288 37.5036 24.0233 37.3941 23.7461 37.3941H13.3253C13.3253 36.8179 12.8595 36.3521 12.2832 36.3521H8.11489H0.820312V38.4362H7.07281V53.0254H0.820312V55.1095H8.11489H12.2832C12.8595 55.1095 13.3253 54.6437 13.3253 54.0675H16.2056L27.3465 59.6384C27.828 59.8792 28.3501 60 28.8701 60C29.463 60 30.0549 59.8448 30.5853 59.5353L53.3194 46.2727C54.3615 45.6651 55.0086 44.5387 55.0086 43.3319C55.0086 42.3242 54.5657 41.3739 53.7946 40.7246C53.0255 40.0754 52.0095 39.8034 51.0195 39.9754ZM11.2411 53.0254H9.15697V38.4362H11.2411V53.0254ZM52.269 44.472L29.5359 57.7346C29.1504 57.9596 28.6804 57.9742 28.2792 57.7742L16.9184 52.0938C16.7736 52.0208 16.6131 51.9833 16.4516 51.9833H13.3253V39.4783H23.3147L31.5253 47.6889C31.8796 48.0432 32.0828 48.534 32.0828 49.0363C32.0828 50.0867 31.2283 50.9412 30.1779 50.9412C29.6766 50.9412 29.1848 50.738 28.8305 50.3837L23.4408 44.994L21.9673 46.4676L27.357 51.8572C28.1104 52.6106 29.1118 53.0254 30.1779 53.0254C32.3767 53.0254 34.167 51.2351 34.167 49.0363C34.167 47.9713 33.7522 46.9688 32.9988 46.2154L32.1547 45.3713L51.3749 42.0283C51.7615 41.9585 52.1533 42.0668 52.4524 42.319C52.7525 42.5712 52.9245 42.9401 52.9245 43.3309C52.9245 43.7988 52.6733 44.2364 52.269 44.472Z" fill="#131315"/>
<path d="M59.1766 7.17359V5.08943H52.6313C52.4416 4.89248 52.178 5.08943 51.882 5.08943H47.7137C47.1374 5.08943 46.6716 5.08943 46.6716 6.13151H43.7913L32.6493 0.400056C31.6166 -0.116817 30.4057 -0.157458 29.4116 0.422982L6.6775 13.6449C5.63541 14.2525 4.98828 15.3592 4.98828 16.5659C4.98828 17.5736 5.43117 18.5125 6.20127 19.1617C6.8213 19.6828 7.59557 19.9568 8.39172 19.9568C8.58763 19.9568 8.7825 19.937 8.97737 19.9037L29.6429 16.3085L35.513 22.339C35.7089 22.5339 35.9736 22.8048 36.2508 22.8048H46.6716C46.6716 22.8048 47.1374 23.8469 47.7137 23.8469H51.1327C51.3224 23.8469 51.586 23.8469 51.882 23.8469H59.1766V21.7628H52.9241V7.17359H59.1766ZM36.6822 20.7207L28.4727 12.3507C28.1121 11.9901 27.9141 11.4305 27.9141 10.922C27.9141 9.8705 28.7686 8.97536 29.819 8.97536C30.3276 8.97536 30.8059 9.15355 31.1664 9.51411L36.5561 14.8923L38.0296 13.4136L32.641 8.02393C31.8876 7.26842 30.8851 6.85263 29.819 6.85263C27.6202 6.85263 25.8299 8.64189 25.8299 10.8417C25.8299 11.9057 26.2436 12.9071 26.9981 13.6626L27.8412 14.5057L8.62098 17.8487C8.23124 17.9164 7.84255 17.8091 7.54243 17.558C7.24439 17.3058 7.07245 16.9369 7.07245 16.5461C7.07245 16.0772 7.32359 15.6395 7.72792 15.404L30.461 2.14242C30.8465 1.91837 31.3165 1.90274 31.7177 2.10282L43.0785 7.94474C43.2233 8.01664 43.3838 8.21568 43.5453 8.21568H46.6716V20.7207H36.6822ZM48.7558 7.17359H50.8399V21.7628H48.7558V7.17359Z" fill="#131315"/>
<path d="M29.9977 24.9388C28.3002 23.4528 25.647 23.4914 23.9984 25.0597C23.1627 25.8559 22.7031 26.9167 22.7031 28.0495C22.7031 29.1812 23.1627 30.242 23.9984 31.0371L29.2787 36.0641C29.4808 36.2559 29.7393 36.3517 29.9977 36.3517C30.2561 36.3517 30.5146 36.2559 30.7157 36.0652L35.9959 31.0382C36.8327 30.242 37.2923 29.1812 37.2923 28.0495C37.2923 26.9167 36.8327 25.8559 35.997 25.0597C35.997 25.0587 35.997 25.0587 35.997 25.0587C34.3474 23.4904 31.6942 23.4539 29.9977 24.9388ZM34.5599 29.5271L29.9977 33.8705L25.4355 29.5271C25.0186 29.1291 24.7873 28.6039 24.7873 28.0484C24.7873 27.493 25.0176 26.9667 25.4355 26.5687C25.8846 26.1414 26.4744 25.9278 27.0632 25.9278C27.653 25.9278 28.2428 26.1414 28.6909 26.5687L29.2776 27.1272C29.6809 27.5097 30.3114 27.5097 30.7147 27.1272L31.3014 26.5687C32.1986 25.7142 33.6585 25.7152 34.5579 26.5676C34.9778 26.9667 35.2081 27.493 35.2081 28.0484C35.2081 28.6039 34.9768 29.1291 34.5599 29.5271Z" fill="#131315"/>
<path d="M17.9065 21.9346L16.1787 20.7686C15.764 21.3834 15.3867 22.0295 15.0605 22.687L16.9269 23.6155C17.2114 23.0393 17.5417 22.4744 17.9065 21.9346Z" fill="#131315"/>
<path d="M13.6738 33.5122C13.826 34.2396 14.0271 34.9607 14.272 35.6516L16.2363 34.9576C16.0227 34.3532 15.8466 33.7227 15.7132 33.085L13.6738 33.5122Z" fill="#131315"/>
<path d="M13.6348 26.8875L15.6804 27.2867C15.8044 26.651 15.9722 26.0195 16.1795 25.4088L14.2048 24.7388C13.9682 25.437 13.7775 26.1602 13.6348 26.8875Z" fill="#131315"/>
<path d="M13.3262 30.1023C13.3272 30.5077 13.3418 30.9099 13.3699 31.3091L15.4479 31.1621C15.4239 30.8109 15.4114 30.4546 15.4103 30.0992C15.4103 29.8032 15.4187 29.5094 15.4364 29.2166L13.3564 29.0884C13.3366 29.4239 13.3262 29.7605 13.3262 30.1023Z" fill="#131315"/>
<path d="M43.7578 25.2369C43.9746 25.8507 44.1496 26.4801 44.2799 27.1084L46.3213 26.6854C46.1713 25.9663 45.9702 25.2462 45.7242 24.5449L43.7578 25.2369Z" fill="#131315"/>
<path d="M42.0918 38.2599L43.8175 39.4281C44.2322 38.8143 44.6105 38.1693 44.9377 37.5086L43.0714 36.5801C42.7858 37.1584 42.4555 37.7232 42.0918 38.2599Z" fill="#131315"/>
<path d="M43.8184 34.788L45.7931 35.458C46.0307 34.7599 46.2214 34.0377 46.3642 33.3093L44.3186 32.9102C44.1935 33.5469 44.0257 34.1773 43.8184 34.788Z" fill="#131315"/>
<path d="M46.6725 30.1025C46.6735 29.693 46.6579 29.2866 46.6287 28.8833L44.5508 29.0354C44.5758 29.3856 44.5893 29.7399 44.5883 30.0994C44.5883 30.3943 44.58 30.6871 44.5622 30.9789L46.6422 31.1071C46.662 30.7726 46.6725 30.437 46.6725 30.1025Z" fill="#131315"/>
</g>
<defs>
<clipPath id="clip0">
<rect width="60" height="60" fill="white"/>
</clipPath>
</defs>
</svg>
