<svg width="16" height="14" viewBox="0 0 16 14" fill="none" xmlns="http://www.w3.org/2000/svg">
<path d="M15.3987 0.904356L14.9703 0.536289C14.2591 -0.0748282 13.1905 -0.00670865 12.5626 0.689525L5.3957 8.63627L3.23233 6.77303C2.52194 6.16123 1.45314 6.22798 0.824537 6.92346L0.445737 7.34262C0.138548 7.68233 -0.0209512 8.13046 0.00221196 8.58821C0.0256035 9.0457 0.2297 9.4752 0.569938 9.78226L4.5355 13.4137C4.87884 13.7361 5.33897 13.9043 5.80928 13.8793C6.27959 13.8544 6.7193 13.6383 7.02652 13.2813L15.582 3.34041C15.8809 2.99309 16.0295 2.54131 15.9951 2.0845C15.9607 1.62737 15.7462 1.20293 15.3987 0.904356Z" fill="#8CC63F"/>
</svg>
