<svg width="63" height="64" viewBox="0 0 63 64" fill="none" xmlns="http://www.w3.org/2000/svg">
<g clip-path="url(#clip0)">
<path d="M56.5073 27.9243C53.2273 30.3143 48.6233 33.4926 46.5466 33.4926C46.1353 33.4926 46.0033 33.3667 45.9073 33.2482C45.0593 32.1862 45.2886 28.4627 46.5906 22.1853C46.7193 21.5636 46.3966 20.9385 45.8226 20.6926C45.2486 20.4455 44.582 20.6479 44.234 21.1735C39.7533 27.9602 37.7013 29.3838 36.7713 29.3838C35.452 29.3838 34.1113 25.5289 32.7806 17.9247C32.6746 17.3179 32.1706 16.8757 31.572 16.8405V16.833C31.5593 16.833 31.5473 16.8357 31.5346 16.8357C31.522 16.8357 31.508 16.833 31.496 16.833V16.8405C30.8993 16.8757 30.3966 17.3179 30.2886 17.9247C28.9566 25.5289 27.6146 29.3838 26.2966 29.3838C25.366 29.3838 23.3153 27.9595 18.8353 21.1735C18.488 20.6479 17.8213 20.4455 17.246 20.6926C16.6713 20.9385 16.3486 21.5636 16.478 22.1853C17.7793 28.4627 18.0106 32.1862 17.1606 33.2482C17.0666 33.3674 16.9326 33.4926 16.522 33.4926C14.4453 33.4926 9.84131 30.315 6.55998 27.9243C6.04131 27.5457 5.32998 27.6074 4.87998 28.0659C4.42931 28.5223 4.36998 29.2449 4.74198 29.7725C12.244 39.5195 10.832 50.7063 10.832 50.7063C10.8046 50.8614 10.79 51.0198 10.79 51.1864C10.79 53.9347 14.578 55.0224 17.8773 55.6631C21.5126 56.3708 26.3006 56.7649 31.388 56.7785V56.7798C31.4366 56.7798 31.486 56.7798 31.5346 56.7785C31.5833 56.7798 31.632 56.7798 31.682 56.7798V56.7785C36.768 56.7643 41.5566 56.3701 45.1906 55.6631C48.4906 55.0224 52.2793 53.9327 52.2793 51.1864C52.2793 51.0198 52.2646 50.862 52.2373 50.7063C52.2373 50.7063 50.826 39.5174 58.3266 29.7725C58.6993 29.2456 58.6406 28.5223 58.19 28.0659C57.7373 27.6087 57.0273 27.5464 56.5073 27.9243ZM31.6806 52.9866H31.6706C31.624 52.9866 31.5793 52.9886 31.5333 52.9886C31.4866 52.9886 31.4433 52.9866 31.3966 52.9866H31.3866C23.302 52.9629 17.9573 52.0073 15.5986 51.1871C17.9573 50.3656 23.302 49.41 31.3866 49.387H31.406C31.448 49.387 31.49 49.387 31.5326 49.387C31.5753 49.387 31.6153 49.387 31.6593 49.387H31.6793C39.7633 49.41 45.1073 50.3656 47.4666 51.1871C45.1086 52.0073 39.7646 52.9629 31.6806 52.9866Z" fill="url(#paint0_linear)"/>
<path d="M31.5345 15.2292C33.7119 15.2292 35.4771 13.436 35.4771 11.224C35.4771 9.01196 33.7119 7.21875 31.5345 7.21875C29.357 7.21875 27.5918 9.01196 27.5918 11.224C27.5918 13.436 29.357 15.2292 31.5345 15.2292Z" fill="url(#paint1_linear)"/>
<path d="M14.8928 19.4005C16.7072 19.4005 18.1781 17.9063 18.1781 16.0631C18.1781 14.2198 16.7072 12.7256 14.8928 12.7256C13.0783 12.7256 11.6074 14.2198 11.6074 16.0631C11.6074 17.9063 13.0783 19.4005 14.8928 19.4005Z" fill="url(#paint2_linear)"/>
<path d="M47.9025 19.4005C49.717 19.4005 51.1879 17.9063 51.1879 16.0631C51.1879 14.2198 49.717 12.7256 47.9025 12.7256C46.0881 12.7256 44.6172 14.2198 44.6172 16.0631C44.6172 17.9063 46.0881 19.4005 47.9025 19.4005Z" fill="url(#paint3_linear)"/>
<path d="M2.21467 27.8219C3.43779 27.8219 4.42933 26.8146 4.42933 25.5721C4.42933 24.3295 3.43779 23.3223 2.21467 23.3223C0.99154 23.3223 0 24.3295 0 25.5721C0 26.8146 0.99154 27.8219 2.21467 27.8219Z" fill="url(#paint4_linear)"/>
<path d="M60.785 27.8219C62.0081 27.8219 62.9996 26.8146 62.9996 25.5721C62.9996 24.3295 62.0081 23.3223 60.785 23.3223C59.5619 23.3223 58.5703 24.3295 58.5703 25.5721C58.5703 26.8146 59.5619 27.8219 60.785 27.8219Z" fill="url(#paint5_linear)"/>
</g>
<defs>
<linearGradient id="paint0_linear" x1="4.49805" y1="36.8064" x2="58.5714" y2="36.8064" gradientUnits="userSpaceOnUse">
<stop stop-color="#FF5F37"/>
<stop offset="1" stop-color="#FF7856"/>
</linearGradient>
<linearGradient id="paint1_linear" x1="27.5918" y1="11.224" x2="35.4771" y2="11.224" gradientUnits="userSpaceOnUse">
<stop stop-color="#FF5F37"/>
<stop offset="1" stop-color="#FF7856"/>
</linearGradient>
<linearGradient id="paint2_linear" x1="11.6074" y1="16.0631" x2="18.1781" y2="16.0631" gradientUnits="userSpaceOnUse">
<stop stop-color="#FF5F37"/>
<stop offset="1" stop-color="#FF7856"/>
</linearGradient>
<linearGradient id="paint3_linear" x1="44.6172" y1="16.0631" x2="51.1879" y2="16.0631" gradientUnits="userSpaceOnUse">
<stop stop-color="#FF5F37"/>
<stop offset="1" stop-color="#FF7856"/>
</linearGradient>
<linearGradient id="paint4_linear" x1="-9.22089e-09" y1="25.5721" x2="4.42933" y2="25.5721" gradientUnits="userSpaceOnUse">
<stop stop-color="#FF5F37"/>
<stop offset="1" stop-color="#FF7856"/>
</linearGradient>
<linearGradient id="paint5_linear" x1="58.5703" y1="25.5721" x2="62.9996" y2="25.5721" gradientUnits="userSpaceOnUse">
<stop stop-color="#FF5F37"/>
<stop offset="1" stop-color="#FF7856"/>
</linearGradient>
<clipPath id="clip0">
<rect width="63" height="64" fill="white"/>
</clipPath>
</defs>
</svg>
