<svg width="17" height="17" viewBox="0 0 17 17" fill="none" xmlns="http://www.w3.org/2000/svg">
<g clip-path="url(#clip0)">
<path d="M16.3611 2.02277L15.9059 1.6317C15.1503 0.982385 14.0149 1.05476 13.3478 1.79451L5.73294 10.2379L3.43435 8.25823C2.67956 7.60819 1.54396 7.67911 0.87607 8.41807L0.473596 8.86342C0.147208 9.22437 -0.0222606 9.7005 0.00235021 10.1869C0.0272037 10.6729 0.244057 11.1293 0.605559 11.4555L4.81897 15.3139C5.18377 15.6565 5.67266 15.8352 6.17236 15.8087C6.67206 15.7822 7.13926 15.5526 7.46568 15.1733L16.5559 4.61107C16.8735 4.24205 17.0314 3.76203 16.9948 3.27668C16.9582 2.79097 16.7303 2.34001 16.3611 2.02277Z" fill="#8CC63F"/>
</g>
<defs>
<clipPath id="clip0">
<rect width="17" height="17" fill="white"/>
</clipPath>
</defs>
</svg>
