<svg width="60" height="60" viewBox="0 0 60 60" fill="none" xmlns="http://www.w3.org/2000/svg">
<path d="M55.7704 53.977L52.2604 7.17797C52.2146 6.56648 51.705 6.09375 51.0918 6.09375H38.7872V5.85938C38.7872 2.62852 36.1587 0 32.9279 0H27.0685C23.8376 0 21.2091 2.62852 21.2091 5.85938V6.09375H8.9043C8.29117 6.09375 7.78152 6.56648 7.7357 7.17797L4.22008 54.053C4.21902 54.0664 4.21973 54.0798 4.21914 54.0933C4.21855 54.1091 4.2168 58.8281 4.2168 58.8281C4.2168 59.4752 4.74156 60 5.38867 60H54.6074C55.2545 60 55.7793 59.4752 55.7793 58.8281C55.7793 58.8281 55.7816 54.156 55.7816 54.1406C55.7816 54.0851 55.7779 54.0306 55.7704 53.977ZM37.6154 13.125C38.2615 13.125 38.7872 13.6507 38.7872 14.2969C38.7872 14.943 38.2615 15.4688 37.6154 15.4688C36.9692 15.4688 36.4435 14.943 36.4435 14.2969C36.4435 13.6507 36.9693 13.125 37.6154 13.125ZM23.5529 5.85938C23.5529 3.92086 25.13 2.34375 27.0685 2.34375H32.9279C34.8664 2.34375 36.4435 3.92086 36.4435 5.85938V6.09375H23.5529V5.85938V5.85938ZM22.3807 13.125C23.0269 13.125 23.5526 13.6507 23.5526 14.2969C23.5526 14.943 23.0269 15.4688 22.3807 15.4688C21.7346 15.4688 21.2089 14.943 21.2089 14.2969C21.2089 13.6507 21.7347 13.125 22.3807 13.125ZM8.40965 29.5312H13.5919C14.239 29.5312 14.7638 29.0065 14.7638 28.3594C14.7638 27.7123 14.239 27.1875 13.5919 27.1875H8.58543L8.76121 24.8438H13.5919C14.239 24.8438 14.7638 24.319 14.7638 23.6719C14.7638 23.0248 14.239 22.5 13.5919 22.5H8.93699L9.99168 8.4375H21.2092V10.9827C19.8452 11.4664 18.8652 12.769 18.8652 14.2969C18.8652 16.2354 20.4423 17.8125 22.3809 17.8125C24.3194 17.8125 25.8965 16.2354 25.8965 14.2969C25.8965 12.7692 24.9168 11.4667 23.553 10.9829V8.4375H36.4436V10.9828C35.0797 11.4666 34.0998 12.7691 34.0998 14.2969C34.0998 16.2354 35.677 17.8125 37.6155 17.8125C39.554 17.8125 41.1311 16.2354 41.1311 14.2969C41.1311 12.7692 40.1513 11.4666 38.7873 10.9828V8.4375H50.0047L51.0593 22.5H46.4043C45.7572 22.5 45.2324 23.0248 45.2324 23.6719C45.2324 24.319 45.7572 24.8438 46.4043 24.8438H51.235L51.4108 27.1875H46.4043C45.7572 27.1875 45.2324 27.7123 45.2324 28.3594C45.2324 29.0065 45.7572 29.5312 46.4043 29.5312H51.5866L53.3444 52.9688H6.65184L8.40965 29.5312ZM53.4356 57.6562H6.56055V55.3125H53.4356V57.6562Z" fill="#131315"/>
<path d="M22.9668 29.5312H19.4512V27.1875H21.7949C22.442 27.1875 22.9668 26.6627 22.9668 26.0156C22.9668 25.3685 22.442 24.8438 21.7949 24.8438H19.4512V22.5H22.9668C23.6139 22.5 24.1387 21.9752 24.1387 21.3281C24.1387 20.681 23.6139 20.1562 22.9668 20.1562H18.2793C17.6322 20.1562 17.1074 20.681 17.1074 21.3281V30.7031C17.1074 31.3502 17.6322 31.875 18.2793 31.875H22.9668C23.6139 31.875 24.1387 31.3502 24.1387 30.7031C24.1387 30.056 23.6139 29.5312 22.9668 29.5312Z" fill="#131315"/>
<path d="M32.3418 27.1875C31.6947 27.1875 31.1699 27.7123 31.1699 28.3594C31.1699 29.0055 30.6442 29.5312 29.998 29.5312C29.3519 29.5312 28.8262 29.0055 28.8262 28.3594V23.6719C28.8262 23.0257 29.3519 22.5 29.998 22.5C30.6442 22.5 31.1699 23.0257 31.1699 23.6719C31.1699 24.319 31.6947 24.8438 32.3418 24.8438C32.9889 24.8438 33.5137 24.319 33.5137 23.6719C33.5137 21.7334 31.9366 20.1562 29.998 20.1562C28.0595 20.1562 26.4824 21.7334 26.4824 23.6719V28.3594C26.4824 30.2979 28.0595 31.875 29.998 31.875C31.9366 31.875 33.5137 30.2979 33.5137 28.3594C33.5137 27.7123 32.9889 27.1875 32.3418 27.1875Z" fill="#131315"/>
<path d="M39.373 20.1562C37.4345 20.1562 35.8574 21.7334 35.8574 23.6719V28.3594C35.8574 30.2979 37.4345 31.875 39.373 31.875C41.3116 31.875 42.8887 30.2979 42.8887 28.3594V23.6719C42.8887 21.7334 41.3116 20.1562 39.373 20.1562ZM40.5449 28.3594C40.5449 29.0055 40.0192 29.5312 39.373 29.5312C38.7269 29.5312 38.2012 29.0055 38.2012 28.3594V23.6719C38.2012 23.0257 38.7269 22.5 39.373 22.5C40.0192 22.5 40.5449 23.0257 40.5449 23.6719V28.3594Z" fill="#131315"/>
<path d="M18.2793 34.2188H13.5918C12.9447 34.2188 12.4199 34.7435 12.4199 35.3906V44.7656C12.4199 45.4127 12.9447 45.9375 13.5918 45.9375C14.2389 45.9375 14.7637 45.4127 14.7637 44.7656V41.25H17.1074C17.7545 41.25 18.2793 40.7252 18.2793 40.0781C18.2793 39.431 17.7545 38.9062 17.1074 38.9062H14.7637V36.5625H18.2793C18.9264 36.5625 19.4512 36.0377 19.4512 35.3906C19.4512 34.7435 18.9264 34.2188 18.2793 34.2188Z" fill="#131315"/>
<path d="M25.3105 34.2188C23.372 34.2188 21.7949 35.7959 21.7949 37.7344V42.4219C21.7949 44.3604 23.372 45.9375 25.3105 45.9375C27.2491 45.9375 28.8262 44.3604 28.8262 42.4219V37.7344C28.8262 35.7959 27.2491 34.2188 25.3105 34.2188ZM26.4824 42.4219C26.4824 43.068 25.9567 43.5938 25.3105 43.5938C24.6644 43.5938 24.1387 43.068 24.1387 42.4219V37.7344C24.1387 37.0882 24.6644 36.5625 25.3105 36.5625C25.9567 36.5625 26.4824 37.0882 26.4824 37.7344V42.4219Z" fill="#131315"/>
<path d="M34.6855 34.2188C32.747 34.2188 31.1699 35.7959 31.1699 37.7344V42.4219C31.1699 44.3604 32.747 45.9375 34.6855 45.9375C36.6241 45.9375 38.2012 44.3604 38.2012 42.4219V37.7344C38.2012 35.7959 36.6241 34.2188 34.6855 34.2188ZM35.8574 42.4219C35.8574 43.068 35.3317 43.5938 34.6855 43.5938C34.0394 43.5938 33.5137 43.068 33.5137 42.4219V37.7344C33.5137 37.0882 34.0394 36.5625 34.6855 36.5625C35.3317 36.5625 35.8574 37.0882 35.8574 37.7344V42.4219Z" fill="#131315"/>
<path d="M44.0605 34.2188H41.7168C41.0697 34.2188 40.5449 34.7435 40.5449 35.3906V44.7656C40.5449 45.4127 41.0697 45.9375 41.7168 45.9375H44.0605C45.9991 45.9375 47.5762 44.3604 47.5762 42.4219V37.7344C47.5762 35.7959 45.9991 34.2188 44.0605 34.2188ZM45.2324 42.4219C45.2324 43.068 44.7067 43.5938 44.0605 43.5938H42.8887V36.5625H44.0605C44.7067 36.5625 45.2324 37.0882 45.2324 37.7344V42.4219Z" fill="#131315"/>
<path d="M46.4043 48.2812H34.6855C34.0386 48.2812 33.5137 48.8074 33.5137 49.4531C33.5137 50.0988 34.0386 50.625 34.6855 50.625H46.4043C47.05 50.625 47.5762 50.0988 47.5762 49.4531C47.5762 48.8074 47.05 48.2812 46.4043 48.2812Z" fill="#131315"/>
<path d="M25.3106 48.2812H13.5918C12.9461 48.2812 12.4199 48.8074 12.4199 49.4531C12.4199 50.0988 12.9461 50.625 13.5918 50.625H25.3106C25.9563 50.625 26.4824 50.0988 26.4824 49.4531C26.4824 48.8074 25.9563 48.2812 25.3106 48.2812Z" fill="#131315"/>
<path d="M29.998 48.2812C29.3511 48.2812 28.8262 48.8074 28.8262 49.4531C28.8262 50.0988 29.3511 50.625 29.998 50.625C30.6437 50.625 31.1699 50.0988 31.1699 49.4531C31.1699 48.8074 30.6437 48.2812 29.998 48.2812Z" fill="#131315"/>
</svg>
