<svg width="40" height="40" viewBox="0 0 40 40" fill="none" xmlns="http://www.w3.org/2000/svg">
<path d="M23.2244 39.7402C23.0577 39.7674 22.8905 39.7924 22.7227 39.8153C22.8905 39.7924 23.0577 39.7674 23.2244 39.7402Z" fill="#3B5998"/>
<path d="M23.6257 39.6719C23.546 39.6865 23.4664 39.7 23.3867 39.7137C23.4664 39.7 23.546 39.6865 23.6257 39.6719Z" fill="#3B5998"/>
<path d="M22.2756 39.8711C22.0806 39.8931 21.8843 39.9126 21.6875 39.9291C21.8843 39.9126 22.0806 39.8931 22.2756 39.8711Z" fill="#3B5998"/>
<path d="M22.6609 39.8242C22.5672 39.8367 22.4729 39.8483 22.3789 39.8593C22.4729 39.8483 22.5672 39.8367 22.6609 39.8242Z" fill="#3B5998"/>
<path d="M24.1702 39.5625C24.1 39.5775 24.0295 39.5924 23.959 39.6068C24.0295 39.5924 24.1 39.5775 24.1702 39.5625Z" fill="#3B5998"/>
<path d="M25.5199 39.2285C25.4631 39.2447 25.4064 39.2599 25.3496 39.2758C25.4064 39.2599 25.4631 39.2447 25.5199 39.2285Z" fill="#3B5998"/>
<path d="M25.1113 39.3398C25.0497 39.356 24.9877 39.3725 24.9258 39.3881C24.9877 39.3725 25.0497 39.3563 25.1113 39.3398Z" fill="#3B5998"/>
<path d="M24.578 39.4727C24.5127 39.4879 24.4468 39.5023 24.3809 39.5169C24.4468 39.5023 24.5127 39.4879 24.578 39.4727Z" fill="#3B5998"/>
<path d="M21.6814 39.9297C21.5761 39.9385 21.4708 39.9465 21.3652 39.9535C21.4708 39.9465 21.5761 39.9385 21.6814 39.9297Z" fill="#3B5998"/>
<path d="M40 20C40 8.95599 31.044 0 20 0C8.95599 0 0 8.95599 0 20C0 31.044 8.95599 40 20 40C20.1175 40 20.2344 39.9976 20.3516 39.9954V24.4263H16.0547V19.4186H20.3516V15.7336C20.3516 11.46 22.9605 9.13391 26.7728 9.13391C28.5983 9.13391 30.1675 9.27002 30.625 9.33075V13.7973H27.9962C25.9222 13.7973 25.5206 14.783 25.5206 16.2292V19.4186H30.4797L29.8334 24.4263H25.5206V39.2273C33.8803 36.8307 40 29.129 40 20Z" fill="#3B5998"/>
<path d="M21.3221 39.9551C21.114 39.9685 20.905 39.9792 20.6953 39.9862C20.905 39.9792 21.114 39.9685 21.3221 39.9551Z" fill="#3B5998"/>
<path d="M20.6836 39.9863C20.5731 39.99 20.4623 39.9927 20.3516 39.9946C20.4623 39.9927 20.5731 39.99 20.6836 39.9863Z" fill="#3B5998"/>
</svg>
