<svg width="60" height="60" viewBox="0 0 60 60" fill="none" xmlns="http://www.w3.org/2000/svg">
<g clip-path="url(#clip0)">
<path d="M18 15L14 15.5L12.5 16L9 19L6 23.5L5.5 34H28.5L29 29.5V25L26.5 20L23.5 16.5L18 15Z" fill="#F39E1F"/>
<path d="M36.5 20L30.5 22.5L29 24.5V34.5H54L53 29.5L49.5 23.5L42.5 20H36.5Z" fill="#B5DB1E"/>
<path d="M56.8763 33.083H54.9043C54.4133 25.1953 47.9638 18.9091 40.0071 18.6852C39.8156 17.7028 39.5715 16.7325 39.2772 15.7792H40.5338C47.4245 15.7792 53.031 10.1727 53.031 3.28201V2.32069H50.147C44.1397 2.32069 39.111 6.58327 37.9197 12.2414C36.8021 9.82868 35.3455 7.56666 33.567 5.53324L32.1194 6.79826C35.1165 10.2234 37.1297 14.3475 38.0431 18.7439C34.8264 19.0678 31.78 20.4004 29.3612 22.5451C28.5238 19.9366 26.8504 17.7047 24.6593 16.1543C25.8187 14.2546 27.4146 12.6596 29.3344 11.5082L32.8953 9.37008L27.4569 8.7655C26.7265 8.6857 26.0022 8.70494 25.2976 8.81056C26.3801 7.32914 27.7441 6.06882 29.3344 5.11501L32.8953 2.97738L27.4569 2.37233C24.9217 2.09491 22.4137 3.00507 20.6192 4.73949C20.116 3.21583 19.2847 1.82266 18.1417 0.679685L17.462 0L16.7823 0.679685C15.6393 1.82266 14.8076 3.21583 14.3058 4.73855C12.5113 3.00225 10.0033 2.09069 7.46811 2.37233L2.02875 2.97738L5.58958 5.11407C7.1799 6.06882 8.5449 7.32914 9.62733 8.8115C8.92276 8.70494 8.19755 8.68664 7.46811 8.7655L2.02968 9.37008L5.59052 11.5082C7.51035 12.6605 9.1063 14.2546 10.2657 16.1543C7.06443 18.42 4.96482 22.1433 4.96482 26.3538V33.083H3.04217C1.45233 33.083 0.158203 34.3767 0.158203 35.967C0.158203 37.5568 1.45233 38.8509 3.04217 38.8509H3.09099C3.52753 47.171 9.53673 54.0331 17.462 55.7393V60H42.4564V55.7393C50.3817 54.0331 56.3909 47.171 56.827 38.8509H56.8763C58.4661 38.8509 59.7602 37.5568 59.7602 35.967C59.7602 34.3767 58.4661 33.083 56.8763 33.083ZM50.147 4.24334H51.0651C50.5774 9.6259 46.0412 13.8566 40.5338 13.8566H39.6156C40.1029 8.474 44.6396 4.24334 50.147 4.24334ZM38.36 20.6501C38.5093 21.7818 38.6111 22.922 38.6111 24.0753V25.2455C37.4949 24.9136 36.6885 24.0331 36.6885 22.9901H34.7658C34.7658 25.3751 36.9222 27.316 39.5724 27.316C42.2226 27.316 44.3791 25.3751 44.3791 22.9901H42.4564C42.4564 24.0331 41.65 24.9136 40.5338 25.2455V24.0753C40.5338 22.9159 40.4568 21.7635 40.3155 20.6234C47.0696 20.9951 52.5034 26.3575 52.9817 33.083H29.9592V26.3538C29.9592 25.8125 29.9132 25.2835 29.8456 24.7606C32.1001 22.4038 35.132 20.9435 38.36 20.6501ZM44.1378 39.9371C42.7263 43.8871 38.9608 46.5415 34.7658 46.5415C30.5704 46.5415 26.8049 43.8871 25.3939 39.9371L23.6327 35.0057H45.8999L44.1378 39.9371ZM16.8987 33.083L14.4954 30.6797L17.462 27.7131L20.4286 30.6797L18.0253 33.083H16.8987ZM14.18 33.083H12.0921L13.1361 32.0391L14.18 33.083ZM24.2241 18.2323L21.788 20.6684L18.8214 17.7019L20.3361 16.1866C21.7805 16.5955 23.1013 17.2963 24.2241 18.2323ZM17.462 16.3425L16.9255 15.806C17.1043 15.7975 17.2813 15.7792 17.462 15.7792C17.6427 15.7792 17.8197 15.7975 17.9985 15.806L17.462 16.3425ZM14.5874 16.1866L16.1026 17.7019L13.1361 20.6684L10.6999 18.2323C11.8227 17.2963 13.1436 16.5955 14.5874 16.1866ZM17.462 19.0612L20.4286 22.0278L17.462 24.9944L14.4954 22.0278L17.462 19.0612ZM28.0366 26.3538V26.917L27.4733 26.3538L28.0098 25.8172C28.0183 25.9961 28.0366 26.173 28.0366 26.3538ZM28.0366 29.6358V33.083H25.5506L23.1473 30.6797L26.1139 27.7131L28.0366 29.6358ZM21.788 29.3203L18.8214 26.3538L21.788 23.3872L24.7545 26.3538L21.788 29.3203ZM16.1026 26.3538L13.1361 29.3203L10.1695 26.3538L13.1361 23.3872L16.1026 26.3538ZM21.788 32.0391L22.8319 33.083H20.744L21.788 32.0391ZM27.6291 23.4792L26.1139 24.9944L23.1473 22.0278L25.583 19.5916C26.5195 20.7144 27.2203 22.0353 27.6291 23.4792ZM27.132 10.6651C25.4746 11.8809 24.0932 13.421 23.0234 15.1784C22.2743 14.8043 21.4833 14.5043 20.6586 14.2861C21.8513 11.8945 24.4232 10.4121 27.132 10.6651ZM27.132 4.27197C25.1671 5.71208 23.5712 7.59435 22.4512 9.77657C22.2588 9.88219 22.0705 9.99296 21.8879 10.1131L21.1956 6.99728C22.5418 5.11735 24.8142 4.04995 27.132 4.27197ZM17.462 2.80699C18.2262 3.78568 18.7636 4.92302 19.0359 6.14486L20.2315 11.5251C19.5992 12.2212 19.0772 13.0257 18.7012 13.9199C18.2933 13.8786 17.8802 13.8566 17.462 13.8566C17.0438 13.8566 16.6302 13.8786 16.2228 13.919C15.8468 13.0257 15.3249 12.2221 14.6916 11.5274L15.8881 6.14392C16.1604 4.92208 16.6978 3.78474 17.462 2.80699ZM7.79199 4.27197C10.1211 4.05605 12.3822 5.11735 13.7284 6.99728L13.0351 10.1159C12.8535 9.99672 12.6657 9.88641 12.4756 9.78127C11.3556 7.59811 9.75876 5.71395 7.79199 4.27197ZM7.79199 10.6651C10.5135 10.415 13.0746 11.8973 14.2654 14.2861C13.4407 14.5053 12.6498 14.8043 11.9006 15.1784C10.8309 13.421 9.45037 11.8809 7.79199 10.6651ZM9.34053 19.5916L11.7767 22.0278L8.81011 24.9944L7.2949 23.4792C7.70374 22.0353 8.40455 20.7144 9.34053 19.5916ZM6.91422 25.8172L7.45074 26.3538L6.88746 26.917V26.3538C6.88746 26.173 6.90577 25.9961 6.91422 25.8172ZM6.88746 29.6358L8.81011 27.7131L11.7767 30.6797L9.37338 33.083H6.88746V29.6358ZM2.08085 35.967C2.08085 35.4361 2.51128 35.0057 3.04217 35.0057H21.5918L22.278 36.9283H3.04217C2.51128 36.9283 2.08085 36.4974 2.08085 35.967ZM40.5338 58.0774H19.3847V56.0519C20.0174 56.1181 20.6572 56.1547 21.3073 56.1547H38.6111C39.2608 56.1547 39.901 56.1181 40.5338 56.0519V58.0774ZM38.6111 54.2321H21.3073C12.6207 54.2321 5.51542 47.4141 5.01363 38.8509H22.9657L23.5848 40.583C25.2662 45.2967 29.7602 48.4642 34.7658 48.4642C39.7715 48.4642 44.2655 45.2967 45.9478 40.583L46.566 38.8509H54.9043C54.4025 47.4141 47.2978 54.2321 38.6111 54.2321ZM56.8763 36.9283H47.2532L47.9399 35.0057H56.8763C57.4067 35.0057 57.8376 35.4361 57.8376 35.967C57.8376 36.4974 57.4067 36.9283 56.8763 36.9283Z" fill="black"/>
<path d="M10.4853 44.1367L8.82227 45.1018C11.3983 49.5479 16.1829 52.3098 21.3059 52.3098V50.3872C16.8663 50.3872 12.7192 47.9923 10.4853 44.1367Z" fill="black"/>
<path d="M9.09782 40.5684L7.2207 40.9795C7.37326 41.6794 7.5812 42.3727 7.83843 43.0416L9.6334 42.3525C9.41043 41.7738 9.23066 41.1729 9.09782 40.5684Z" fill="black"/>
<path d="M27.0742 36.9287H28.9969V38.8513H27.0742V36.9287Z" fill="black"/>
<path d="M31.8809 42.6963H33.8035V44.6189H31.8809V42.6963Z" fill="black"/>
<path d="M35.7266 37.8896H37.6492V39.8123H35.7266V37.8896Z" fill="black"/>
<path d="M41.4941 36.9287H43.4168V38.8513H41.4941V36.9287Z" fill="black"/>
</g>
<defs>
<clipPath id="clip0">
<rect width="60" height="60" fill="white"/>
</clipPath>
</defs>
</svg>
