<svg width="18" height="18" viewBox="0 0 18 18" fill="none" xmlns="http://www.w3.org/2000/svg">
<g clip-path="url(#clip0)">
<path d="M8.41235 9.85577H1.97461V18H8.41235V9.85577Z" fill="white"/>
<path d="M16.0237 9.85577H9.58594V18H16.0237V9.85577Z" fill="white"/>
<path d="M14.0178 3.31987C14.1919 3.00083 14.291 2.63524 14.291 2.24687C14.2911 1.00793 13.2831 0 12.0442 0C11.1279 0 10.1902 0.473484 9.47189 1.29906C9.2941 1.50335 9.13576 1.7229 8.99883 1.95156C8.86189 1.7229 8.70355 1.50335 8.52576 1.29906C7.80742 0.473484 6.86984 0 5.95345 0C4.71455 0 3.70658 1.00796 3.70658 2.24687C3.70658 2.63521 3.80565 3.00083 3.97982 3.31987H0.919922V8.68187H8.41186V3.31987H9.58576V8.68187H17.0777V3.31987H14.0178ZM5.95345 3.31987C5.36184 3.31987 4.88048 2.83852 4.88048 2.24687C4.88048 1.65523 5.36184 1.1739 5.95345 1.1739C7.01865 1.1739 8.0314 2.2635 8.32611 3.31984H5.95345V3.31987ZM12.0442 3.31987H9.67154C9.96626 2.2635 10.979 1.17394 12.0442 1.17394C12.6358 1.17394 13.1172 1.6553 13.1172 2.24691C13.1171 2.83855 12.6358 3.31987 12.0442 3.31987Z" fill="white"/>
</g>
<defs>
<clipPath id="clip0">
<rect width="18" height="18" fill="white" transform="matrix(-1 0 0 1 18 0)"/>
</clipPath>
</defs>
</svg>
