<svg width="60" height="60" viewBox="0 0 60 60" fill="none" xmlns="http://www.w3.org/2000/svg">
<g clip-path="url(#clip0)">
<path d="M25.5 6L29.5 9.5L30 10L34 6.5L38.5 3.5L45 3L51 5L54.5 8.5L58 13L59 18L58.5 24L56 28.5L53.5 31L51 29L47.5 28H40.5L40 29.5V31.5H38.5H37H35H32.5C32.5 31.8333 32.4 32.6 32 33C31.6 33.4 31.8333 33.5 32 33.5L32.5 34.5L31.5 35.5L30.5 36L30.0953 37.6186C30.189 37.7617 30.2628 37.971 30.1937 38.1937L30.5 38.5L31.5 39L32 40V41L33 43L36 43.5L35.5 44.5L36 46.5L38 47.5L30 56L22.5 48L23 47L23.5 46L24 44.5L24.5 44L25 43.5H26.5L27.5 43L28 42.5V41L28.5 39.5C28.8333 39.3333 29.6 38.9 30 38.5C30.1016 38.3984 30.1623 38.2947 30.1937 38.1937L30 38L30.0953 37.6186C30.0643 37.5712 30.031 37.531 30 37.5L29.5 36.5L28 35.5V34L27.5 32H24.5L20 31.5L19.5 28.5L16 27.5L10 28.5L6.5 31.5L4.5 28.5L1.5 23V14L6 7.5L13 4H19.5L25.5 6Z" fill="#FF1F62"/>
<path d="M55.6111 29.9824C58.4421 26.9638 60 23.0234 60 18.8864C60 9.93952 52.7216 2.66113 43.7747 2.66113H42.8235C38.0817 2.66113 33.5912 4.72609 30.5051 8.3263L30 8.91554L29.4949 8.3263C26.4088 4.72609 21.9183 2.66113 17.1765 2.66113H16.2253C7.27838 2.66113 0 9.93952 0 18.8864C0 23.0234 1.55793 26.9648 4.38886 29.9833L5.08443 30.7257H0V44.274H5.4667L8.45026 46.6603C9.64623 47.6177 11.1494 48.145 12.6813 48.145H21.4151L30 57.3017L38.5849 48.145H47.3187C48.8506 48.145 50.3538 47.6177 51.5507 46.6603L54.5333 44.274H60V30.7257H54.9156L55.6111 29.9824ZM1.93548 18.8864C1.93548 11.007 8.34583 4.59662 16.2253 4.59662H17.1765C21.3522 4.59662 25.3073 6.41491 28.0248 9.58606L30 11.8906L31.9752 9.58748C34.6927 6.41491 38.6478 4.59662 42.8235 4.59662H43.7747C51.6542 4.59662 58.0645 11.007 58.0645 18.8864C58.0645 22.5296 56.6923 26.0013 54.1992 28.6597L53.2343 29.6884L51.5488 28.3403C50.3538 27.382 48.8506 26.8547 47.3187 26.8547H41.6129C40.0124 26.8547 38.7097 28.1574 38.7097 29.7579V30.7257H33.871C32.2705 30.7257 30.9677 32.0284 30.9677 33.6289C30.9677 34.0112 31.0462 34.3741 31.1809 34.7091C30.7343 34.83 30.3331 35.0517 30 35.3522C29.6659 35.0517 29.2647 34.83 28.8191 34.7091C28.9538 34.3741 29.0323 34.0112 29.0323 33.6289C29.0323 32.0284 27.7295 30.7257 26.129 30.7257H21.2903V29.7579C21.2903 28.1574 19.9876 26.8547 18.3871 26.8547H12.6813C11.1494 26.8547 9.64623 27.382 8.44931 28.3394L6.76474 29.687L5.79984 28.6583C3.30771 26.0003 1.93548 22.5296 1.93548 18.8864ZM9.65899 45.1487L6.1462 42.3386H1.93548V32.6611H6.1462L9.65899 29.851C10.5147 29.1668 11.5879 28.7902 12.6813 28.7902H18.3871C18.9201 28.7902 19.3548 29.2249 19.3548 29.7579V30.7257H14.5161V32.6611H26.129C26.662 32.6611 27.0968 33.0959 27.0968 33.6289C27.0968 34.1619 26.662 34.5966 26.129 34.5966H16.4516V36.5321H28.0645C28.5975 36.5321 29.0323 36.9668 29.0323 37.4998C29.0323 38.0329 28.5975 38.4676 28.0645 38.4676H16.4516V40.4031H26.129C26.662 40.4031 27.0968 40.8378 27.0968 41.3708C27.0968 41.9038 26.662 42.3386 26.129 42.3386H16.4516V44.274H22.2581C22.7911 44.274 23.2258 44.7088 23.2258 45.2418C23.2258 45.7748 22.7911 46.2095 22.2581 46.2095H12.6813C11.5879 46.2095 10.5147 45.8329 9.65899 45.1487ZM23.6969 47.7481C24.5673 47.2467 25.1613 46.3168 25.1613 45.2418C25.1613 44.9011 25.0918 44.5779 24.9831 44.274H26.129C27.7295 44.274 29.0323 42.9713 29.0323 41.3708C29.0323 40.9885 28.9538 40.6256 28.8191 40.2906C29.2657 40.1696 29.6659 39.948 30 39.6484C30.3341 39.949 30.7353 40.1706 31.1809 40.2916C31.0462 40.6256 30.9677 40.9885 30.9677 41.3708C30.9677 42.9713 32.2705 44.274 33.871 44.274H35.0169C34.9082 44.5779 34.8387 44.9011 34.8387 45.2418C34.8387 46.3168 35.4327 47.2467 36.304 47.7481L30 54.4722L23.6969 47.7481ZM58.0645 42.3386H53.8538L50.341 45.1487C49.4853 45.8329 48.4121 46.2095 47.3187 46.2095H37.7419C37.2089 46.2095 36.7742 45.7748 36.7742 45.2418C36.7742 44.7088 37.2089 44.274 37.7419 44.274H43.5484V42.3386H33.871C33.338 42.3386 32.9032 41.9038 32.9032 41.3708C32.9032 40.8378 33.338 40.4031 33.871 40.4031H43.5484V38.4676H31.9355C31.4025 38.4676 30.9677 38.0329 30.9677 37.4998C30.9677 36.9668 31.4025 36.5321 31.9355 36.5321H43.5484V34.5966H33.871C33.338 34.5966 32.9032 34.1619 32.9032 33.6289C32.9032 33.0959 33.338 32.6611 33.871 32.6611H45.4839V30.7257H40.6452V29.7579C40.6452 29.2249 41.0799 28.7902 41.6129 28.7902H47.3187C48.4131 28.7902 49.4867 29.1668 50.342 29.851L53.8538 32.6611H58.0645V42.3386Z" fill="black"/>
<path d="M54.194 19.1129C54.194 20.6604 53.8698 22.1527 53.2291 23.548L54.9874 24.3551C55.7462 22.705 56.1295 20.9411 56.1295 19.1129C56.1295 12.1761 50.4856 6.53223 43.5488 6.53223V8.46771C49.4181 8.46771 54.194 13.2436 54.194 19.1129Z" fill="black"/>
</g>
<defs>
<clipPath id="clip0">
<rect width="60" height="60" fill="white"/>
</clipPath>
</defs>
</svg>
