<svg width="125" height="125" viewBox="0 0 125 125" fill="none" xmlns="http://www.w3.org/2000/svg">
<path d="M4 58V117L7.5 121H22L28 120L30 116.5L29.5 57L25.5 53.5L7.5 54L4 58Z" fill="#E2E2E2"/>
<path d="M4 73L30 73.5" stroke="black"/>
<path d="M3.5 102L30 101.5L29.5 73H4L3.5 102Z" fill="#E2E2E2"/>
<path d="M63.5 103H35V114.5H64L63.5 103Z" fill="#E2E2E2"/>
<path d="M98.5 84L97.5 93.5L100 95L102 96.5L106 97L109 95L112.5 89L118.5 78.5L120.5 73L120 69.5L110.5 65L103.5 64L100 67L99.5 73.5L98.5 84Z" fill="#E2E2E2"/>
<path d="M12 82L10.5 79C11.1667 78.6667 12.6 78 13 78C13.5 78 15.5 78.5 17 79C18.5 79.5 18.5 79.5 19.5 80C20.5 80.5 20.5 80.5 21 81.5C21.5 82.5 22 82 22 82.5C22 83 22.5 84 22.5 85C22.5 86 23 87 23 87.5C23 88 21.5 90.5 21.5 91C21.5 91.5 19.5 92.5 18.5 92.5C17.7 92.5 15.5 91.8333 14.5 91.5L12 89.5V85.5V82Z" fill="#E2E2E2"/>
<path d="M90 107L91.5 99.5C92.6667 98.1667 95.2 95.4 96 95C96.8 94.6 99 95.1667 100 95.5L105.5 96.5L107.5 96C109 95.5 112.1 94.5 112.5 94.5C112.9 94.5 116.333 95.8333 118 96.5C118.5 98 119.6 101.1 120 101.5C120.4 101.9 120.833 105 121 106.5C120.333 108.667 119 113.1 119 113.5C119 113.9 115.667 117.667 114 119.5L109 120.5L105 120L101.5 120.5L97 120L92.5 113L90 107Z" fill="#E2E2E2"/>
<path d="M9.70111 122.396H24.1537C26.0352 122.394 27.839 121.645 29.1694 120.315C30.4998 118.985 31.2481 117.181 31.2503 115.299V59.18C31.2481 57.2985 30.4998 55.4947 29.1694 54.1643C27.839 52.8339 26.0352 52.0856 24.1537 52.0834H20.8337V48.1771H22.1357C22.3067 48.1772 22.4761 48.1435 22.6341 48.0781C22.7921 48.0127 22.9356 47.9168 23.0566 47.7959C23.1775 47.6749 23.2734 47.5314 23.3388 47.3734C23.4042 47.2154 23.4379 47.046 23.4378 46.875V42.9688H29.9482V45.573H32.5524V41.6667C32.5525 41.4957 32.5188 41.3264 32.4534 41.1684C32.388 41.0104 32.2921 40.8668 32.1711 40.7459C32.0502 40.625 31.9067 40.5291 31.7487 40.4637C31.5907 40.3982 31.4213 40.3646 31.2503 40.3646H23.4378V37.7605C23.4379 37.5895 23.4042 37.4201 23.3388 37.2621C23.2734 37.1041 23.1775 36.9606 23.0566 36.8396C22.9356 36.7187 22.7921 36.6228 22.6341 36.5574C22.4761 36.492 22.3067 36.4583 22.1357 36.4584H11.7191C11.5481 36.4583 11.3787 36.492 11.2207 36.5574C11.0627 36.6228 10.9192 36.7187 10.7983 36.8396C10.6773 36.9606 10.5814 37.1041 10.516 37.2621C10.4506 37.4201 10.4169 37.5895 10.417 37.7605V46.875C10.4169 47.046 10.4506 47.2154 10.516 47.3734C10.5814 47.5314 10.6773 47.6749 10.7983 47.7959C10.9192 47.9168 11.0627 48.0127 11.2207 48.0781C11.3787 48.1435 11.5481 48.1772 11.7191 48.1771H13.0212V52.0834H9.70111C7.81964 52.0856 6.01585 52.8339 4.68545 54.1643C3.35505 55.4947 2.60667 57.2985 2.60449 59.18V115.299C2.60667 117.181 3.35505 118.985 4.68545 120.315C6.01585 121.645 7.81964 122.394 9.70111 122.396ZM24.1537 119.792H9.70111C8.51006 119.79 7.3682 119.317 6.526 118.474C5.6838 117.632 5.21005 116.49 5.20866 115.299V102.865H28.6462V115.299C28.6448 116.49 28.171 117.632 27.3288 118.474C26.4866 119.317 25.3448 119.79 24.1537 119.792ZM5.20866 100.26V74.2188H28.6462V100.26H5.20866ZM13.0212 39.0625H20.8337V45.573H13.0212V39.0625ZM15.6253 48.1771H18.2295V52.0834H15.6253V48.1771ZM9.70111 54.6875H24.1537C25.3448 54.6889 26.4866 55.1627 27.3288 56.0049C28.171 56.8471 28.6448 57.9889 28.6462 59.18V71.6146H5.20866V59.18C5.21005 57.9889 5.6838 56.8471 6.526 56.0049C7.3682 55.1627 8.51006 54.6889 9.70111 54.6875Z" fill="black"/>
<path d="M33.8545 117.13C33.8561 118.526 34.4114 119.865 35.3986 120.852C36.3857 121.839 37.7241 122.394 39.1201 122.396H59.839C61.235 122.394 62.5734 121.839 63.5605 120.852C64.5476 119.865 65.1029 118.526 65.1045 117.13V99.0155C65.1008 97.8575 64.7151 96.7331 64.0071 95.8168C63.2991 94.9004 62.3086 94.2433 61.189 93.9474C61.1452 92.1417 60.3915 90.4261 59.0913 89.1723C60.1161 88.6522 60.977 87.8586 61.5787 86.8794C62.1804 85.9002 62.4993 84.7737 62.5003 83.6244V79.427C62.5003 79.1695 62.424 78.9177 62.2809 78.7036C62.1378 78.4895 61.9345 78.3226 61.6966 78.2241C61.4586 78.1256 61.1969 78.0998 60.9443 78.15C60.6917 78.2003 60.4597 78.3243 60.2777 78.5064C59.1628 79.6273 57.8366 80.516 56.376 81.121C54.9154 81.7261 53.3493 82.0354 51.7683 82.0311H42.9691C42.1854 82.0308 41.4198 82.2662 40.7718 82.7069C40.1238 83.1475 39.6234 83.7729 39.3356 84.5018C39.0479 85.2307 38.9861 86.0293 39.1583 86.7937C39.3305 87.5582 39.7288 88.2532 40.3013 88.7882C39.5322 89.4145 38.9078 90.1999 38.471 91.0904C38.0342 91.981 37.7954 92.9555 37.771 93.9471C36.6512 94.2428 35.6604 94.8999 34.9522 95.8163C34.244 96.7328 33.8582 97.8573 33.8545 99.0155V117.13ZM59.8389 119.792H39.1201C38.4145 119.791 37.738 119.51 37.2391 119.011C36.7402 118.512 36.4595 117.836 36.4587 117.13V115.885H62.5003V117.13C62.4995 117.836 62.2188 118.512 61.7199 119.011C61.221 119.51 60.5445 119.791 59.8389 119.792ZM36.4587 113.281V104.167H62.5003V113.281H36.4587ZM44.6475 89.8436H48.1774V87.2395H42.9691C42.6237 87.2395 42.2926 87.1023 42.0484 86.8581C41.8042 86.6139 41.667 86.2827 41.667 85.9374C41.667 85.5921 41.8042 85.2609 42.0484 85.0167C42.2926 84.7725 42.6237 84.6353 42.9691 84.6353H51.7683C54.6619 84.6433 57.4921 83.7872 59.8962 82.1767V83.6244C59.8951 84.5829 59.5139 85.5018 58.8362 86.1795C58.1585 86.8572 57.2396 87.2384 56.2811 87.2395H50.7816V89.8436H54.3114C55.379 89.8469 56.4067 90.2496 57.1923 90.9725C57.9778 91.6955 58.4644 92.6862 58.5561 93.7499H40.4029C40.4946 92.6862 40.9811 91.6955 41.7667 90.9725C42.5523 90.2496 43.58 89.8469 44.6475 89.8436ZM39.1201 96.354H59.839C60.5446 96.3549 61.221 96.6356 61.72 97.1345C62.2189 97.6335 62.4995 98.3099 62.5003 99.0155V101.562H36.4587V99.0155C36.4595 98.3099 36.7401 97.6334 37.2391 97.1345C37.738 96.6355 38.4145 96.3549 39.1201 96.354Z" fill="black"/>
<path d="M116.157 57.0118L117.133 53.7593L114.638 53.0116L113.681 56.2038L108.887 52.3689L107.259 54.4021L112.874 58.8936L111.278 64.2135L107.397 63.1346C106.383 62.8519 105.32 62.7956 104.282 62.9697C103.245 63.1438 102.258 63.544 101.393 64.142C100.527 64.7399 99.8034 65.521 99.2734 66.4299C98.7433 67.3387 98.4196 68.353 98.3254 69.4009L96.1217 93.6824C94.9114 94.0061 93.7768 94.5652 92.7827 95.3277C91.7887 96.0902 90.9547 97.0411 90.3285 98.1262C89.4221 99.7361 88.8423 101.509 88.6223 103.344C88.4024 105.178 88.5466 107.038 89.0468 108.816C90.5777 114.739 95.6474 122.4 101.279 122.399C101.767 122.399 102.252 122.341 102.726 122.227C103.701 121.992 104.629 121.593 105.469 121.046C106.309 121.593 107.237 121.992 108.212 122.227C114.402 123.72 120.231 115.242 121.891 108.816C122.391 107.038 122.536 105.178 122.316 103.343C122.096 101.509 121.516 99.7361 120.61 98.1262C119.974 97.0227 119.124 96.0578 118.109 95.2887C117.095 94.5195 115.936 93.9617 114.702 93.6483C113.614 93.3928 112.489 93.3396 111.383 93.4915L121.147 76.1872C121.683 75.2383 121.994 74.1798 122.059 73.0923C122.124 72.0048 121.941 70.9167 121.522 69.9107C121.104 68.9048 120.462 68.0073 119.645 67.2866C118.828 66.5658 117.858 66.0406 116.808 65.7509L113.788 64.9113L115.324 59.7905L122.61 58.5761L122.182 56.0075L116.157 57.0118ZM114.094 96.1801C114.993 96.4096 115.836 96.8192 116.573 97.3843C117.309 97.9493 117.922 98.6579 118.377 99.4671C119.848 102.12 120.206 105.248 119.371 108.164C117.818 114.163 112.759 120.639 108.82 119.695C107.891 119.467 107.026 119.033 106.287 118.427C106.055 118.24 105.767 118.138 105.469 118.138C105.171 118.138 104.883 118.24 104.651 118.427C103.912 119.033 103.047 119.467 102.118 119.695C98.1626 120.652 93.1183 114.163 91.567 108.164C90.7322 105.248 91.0899 102.12 92.5613 99.4671C93.0155 98.6579 93.6293 97.9493 94.3655 97.3843C95.1017 96.8192 95.9449 96.4096 96.844 96.1801C97.3347 96.063 97.8375 96.0041 98.3419 96.0046C99.5219 96.0522 100.679 96.3438 101.741 96.8609C102.802 97.3781 103.745 98.1096 104.51 99.0093C104.635 99.1367 104.785 99.238 104.949 99.3071C105.114 99.3762 105.291 99.4118 105.469 99.4118C105.648 99.4118 105.824 99.3762 105.989 99.3071C106.154 99.238 106.303 99.1367 106.428 99.0093C107.336 97.8957 108.527 97.0459 109.875 96.5483C111.223 96.0508 112.68 95.9236 114.094 96.1801ZM119.119 70.9134C119.387 71.5532 119.505 72.2459 119.464 72.9384C119.422 73.6308 119.222 74.3044 118.879 74.9074L116.548 79.0388L108.586 75.6265L107.561 78.0196L115.261 81.3195L107.701 94.7167C107.344 94.9157 106.997 95.1331 106.663 95.3679C106.366 92.6477 105.393 90.0454 103.83 87.7992L101.691 89.2844C102.921 91.0494 103.72 93.0778 104.025 95.2071C102.465 94.1443 100.646 93.525 98.7612 93.4155L99.7564 82.451L104.986 84.5427L105.952 82.1242L100.002 79.7442L100.834 70.5744L107.661 72.85L108.485 70.3794L101.402 68.0183C101.862 67.061 102.646 66.2974 103.615 65.8626C104.584 65.4277 105.675 65.3499 106.696 65.6427L116.113 68.2602C116.784 68.4431 117.404 68.7773 117.925 69.2373C118.446 69.6973 118.855 70.2707 119.119 70.9134Z" fill="black"/>
<path d="M118.49 121.094H115.886V123.698H118.49V121.094Z" fill="black"/>
<path d="M122.396 118.49H119.792V121.094H122.396V118.49Z" fill="black"/>
<path d="M76.8229 102.865V109.375H70.3125V111.979H76.8229V118.49H79.4271V111.979H85.9375V109.375H79.4271V102.865H76.8229Z" fill="black"/>
<path d="M89.6621 23.3014C88.368 21.9945 86.8277 20.957 85.1302 20.249C83.4327 19.541 81.6117 19.1764 79.7725 19.1764C77.9333 19.1764 76.1123 19.541 74.4148 20.249C72.7173 20.957 71.177 21.9945 69.8829 23.3014L69.0106 24.1807L68.1383 23.302C66.8473 21.9915 65.3079 20.9516 63.6101 20.2432C61.9123 19.5348 60.0903 19.1721 58.2506 19.1764H58.2493C56.4093 19.172 54.5868 19.5346 52.8886 20.2429C51.1904 20.9513 49.6505 21.9913 48.3591 23.302C45.7443 25.9525 44.2783 29.526 44.2783 33.2492C44.2783 36.9724 45.7443 40.5458 48.3591 43.1963L68.0861 63.0658C68.2071 63.1877 68.351 63.2844 68.5096 63.3504C68.6681 63.4165 68.8382 63.4504 69.0099 63.4504C69.1817 63.4504 69.3517 63.4165 69.5103 63.3504C69.6688 63.2844 69.8127 63.1877 69.9337 63.0658L75.521 57.441V59.8958C75.521 60.0668 75.5546 60.2361 75.6201 60.3941C75.6855 60.5521 75.7814 60.6957 75.9023 60.8166C76.0232 60.9375 76.1668 61.0334 76.3248 61.0988C76.4828 61.1643 76.6521 61.1979 76.8231 61.1979H84.6356C84.8066 61.1979 84.9759 61.1643 85.1339 61.0988C85.2919 61.0334 85.4355 60.9375 85.5564 60.8166C85.6773 60.6957 85.7733 60.5521 85.8387 60.3941C85.9041 60.2361 85.9377 60.0668 85.9377 59.8958V54.6874H91.146C91.317 54.6875 91.4864 54.6538 91.6444 54.5884C91.8024 54.523 91.9459 54.4271 92.0668 54.3062C92.1878 54.1853 92.2837 54.0417 92.3491 53.8837C92.4145 53.7257 92.4482 53.5564 92.4481 53.3854V45.5729C92.4482 45.4019 92.4145 45.2325 92.3491 45.0745C92.2837 44.9165 92.1878 44.773 92.0668 44.6521C91.9459 44.5311 91.8024 44.4352 91.6444 44.3698C91.4864 44.3044 91.317 44.2707 91.146 44.2708H88.5952L89.6621 43.1957C92.2769 40.5452 93.7429 36.9717 93.7429 33.2485C93.7429 29.5254 92.2769 25.9519 89.6621 23.3014ZM69.0106 60.3007L50.208 41.3621C48.0753 39.2003 46.8797 36.2858 46.8797 33.2492C46.8797 30.2125 48.0753 27.298 50.208 25.1363C51.2598 24.0731 52.5121 23.2292 53.8923 22.6532C55.2725 22.0772 56.7532 21.7806 58.2487 21.7806C59.7443 21.7806 61.225 22.0772 62.6052 22.6532C63.9853 23.2292 65.2376 24.0731 66.2895 25.1363L68.0861 26.9463C68.3356 27.1833 68.6665 27.3154 69.0106 27.3154C69.3546 27.3154 69.6855 27.1833 69.935 26.9463L71.7317 25.1356C72.7837 24.0727 74.036 23.2289 75.4161 22.653C76.7963 22.0771 78.277 21.7806 79.7725 21.7806C81.2679 21.7806 82.7486 22.0771 84.1288 22.653C85.5089 23.2289 86.7612 24.0727 87.8132 25.1356C89.9458 27.2974 91.1415 30.2119 91.1415 33.2485C91.1415 36.2852 89.9458 39.1997 87.8132 41.3614L85.9377 43.2512V39.0624C85.9377 38.8914 85.9041 38.7221 85.8387 38.5641C85.7733 38.4061 85.6773 38.2626 85.5564 38.1416C85.4355 38.0207 85.2919 37.9248 85.1339 37.8594C84.9759 37.794 84.8066 37.7603 84.6356 37.7604H76.8231C76.6521 37.7603 76.4828 37.794 76.3248 37.8594C76.1668 37.9248 76.0232 38.0207 75.9023 38.1416C75.7814 38.2626 75.6855 38.4061 75.6201 38.5641C75.5546 38.7221 75.521 38.8914 75.521 39.0624V44.2708H70.3127C70.1417 44.2707 69.9724 44.3044 69.8144 44.3698C69.6564 44.4352 69.5128 44.5311 69.3919 44.6521C69.271 44.773 69.1751 44.9165 69.1096 45.0745C69.0442 45.2325 69.0106 45.4019 69.0106 45.5729V53.3854C69.0106 53.5564 69.0442 53.7257 69.1096 53.8837C69.1751 54.0417 69.271 54.1853 69.3919 54.3062C69.5128 54.4271 69.6564 54.523 69.8144 54.5884C69.9724 54.6538 70.1417 54.6875 70.3127 54.6874H74.5871L69.0106 60.3007ZM89.8439 52.0833H84.6356C84.4646 52.0832 84.2953 52.1169 84.1373 52.1823C83.9793 52.2477 83.8357 52.3436 83.7148 52.4646C83.5939 52.5855 83.498 52.729 83.4326 52.887C83.3671 53.045 83.3335 53.2144 83.3335 53.3854V58.5937H78.1252V53.3854C78.1252 53.2144 78.0916 53.045 78.0262 52.887C77.9608 52.729 77.8648 52.5855 77.7439 52.4646C77.623 52.3436 77.4794 52.2477 77.3215 52.1823C77.1635 52.1169 76.9941 52.0832 76.8231 52.0833H71.6148V46.8749H76.8231C76.9941 46.875 77.1635 46.8413 77.3215 46.7759C77.4794 46.7105 77.623 46.6146 77.7439 46.4937C77.8648 46.3728 77.9608 46.2292 78.0262 46.0712C78.0916 45.9132 78.1252 45.7439 78.1252 45.5729V40.3645H83.3335V45.5729C83.3335 45.7439 83.3671 45.9132 83.4326 46.0712C83.498 46.2292 83.5939 46.3728 83.7148 46.4937C83.8357 46.6146 83.9793 46.7105 84.1373 46.7759C84.2953 46.8413 84.4646 46.875 84.6356 46.8749H89.8439V52.0833Z" fill="black"/>
<path d="M52.1497 26.8758C50.6649 28.3655 49.7395 30.3219 49.5299 32.4147C49.3202 34.5075 49.8391 36.6086 50.9989 38.3632L53.1682 36.9199C52.4664 35.8616 52.0894 34.6212 52.0836 33.3514C52.0777 32.0816 52.4433 30.8378 53.1353 29.7731C53.8273 28.7084 54.8156 27.8693 55.9784 27.359C57.1412 26.8488 58.4278 26.6897 59.6799 26.9013L60.1122 24.3327C58.6784 24.0932 57.2081 24.199 55.8234 24.6413C54.4386 25.0836 53.1792 25.8496 52.1497 26.8758Z" fill="black"/>
<path d="M102.864 38.7109C102.883 31.1406 100.355 23.7839 95.6886 17.8231C91.0218 11.8623 84.4866 7.64355 77.133 5.84473L76.5125 8.37387C83.1799 10.0198 89.1189 13.8174 93.4106 19.1788C97.7022 24.5403 100.107 31.1667 100.253 38.0327C100.399 44.8987 98.2784 51.6215 94.2186 57.1606C90.1589 62.6997 84.3868 66.7464 77.7954 68.6745L79.2896 65.6865L76.9601 64.5218L74.3559 69.7301C74.2197 70.0029 74.1835 70.3148 74.2537 70.6116C74.3239 70.9083 74.4959 71.171 74.7399 71.3539L79.9483 75.2601L81.5097 73.1773L78.7494 71.1066C85.7264 69.0318 91.8449 64.7557 96.1913 58.9168C100.538 53.078 102.879 45.9898 102.864 38.7109Z" fill="black"/>
<path d="M35.1563 38.7108C35.1381 46.2812 37.6654 53.6378 42.3322 59.5986C46.999 65.5594 53.5342 69.7782 60.8878 71.577L61.5083 69.0478C54.9551 67.4265 49.1031 63.7269 44.8276 58.5027C40.5522 53.2784 38.0832 46.8102 37.79 40.0658C37.4968 33.3214 39.3953 26.6634 43.2013 21.0878C47.0073 15.5122 52.5163 11.3188 58.904 9.135L57.5524 10.9373L59.6353 12.5L63.5415 7.2917C63.6615 7.1318 63.7431 6.94642 63.7799 6.74992C63.8167 6.55342 63.8078 6.35108 63.7538 6.15859C63.6998 5.9661 63.6022 5.78862 63.4686 5.63991C63.335 5.4912 63.1689 5.37526 62.9833 5.30107L56.4729 2.6969L55.5065 5.11542L58.8282 6.44405C51.9554 8.59177 45.9501 12.8823 41.6908 18.6881C37.4315 24.4939 35.1417 31.5103 35.1563 38.7108Z" fill="black"/>
<path d="M23.296 89.6682C23.8158 88.6261 24.118 87.4891 24.1843 86.3265C24.2505 85.1638 24.0794 83.9998 23.6813 82.9054V82.9048C21.9672 78.3449 16.7399 76.114 9.72329 76.9411C9.49161 76.9682 9.27146 77.0571 9.08585 77.1983C8.90024 77.3396 8.75597 77.5281 8.66813 77.7442C8.5803 77.9603 8.55211 78.196 8.58651 78.4267C8.62092 78.6574 8.71665 78.8747 8.86372 79.0557C9.82248 80.2338 10.916 81.9326 10.691 83.3326C10.6777 83.4148 10.6573 83.4956 10.6299 83.5742C10.5487 83.8249 10.4803 84.0795 10.4252 84.3372C9.91012 86.1013 9.91896 87.9771 10.4506 89.7362C10.9665 90.9836 11.8612 92.0372 13.0085 92.7483C14.1558 93.4594 15.4975 93.792 16.8441 93.6991C17.2119 93.6984 17.5794 93.6789 17.9452 93.6406C18.2128 93.6075 18.4778 93.5565 18.7386 93.4881C18.8602 93.8968 18.9797 94.3062 19.0833 94.7195L19.5703 96.6695L22.0956 96.0388L21.6086 94.0882C21.4616 93.5 21.2957 92.9162 21.1151 92.3369C22.0197 91.6087 22.7625 90.6998 23.296 89.6682ZM19.1939 87.5594L18.0915 85.3551L15.762 86.5199L16.8644 88.7241C17.2368 89.4695 17.5677 90.2354 17.8758 91.0106C17.8081 91.0217 17.7469 91.0431 17.6769 91.0504C15.973 91.2259 13.7669 90.969 12.8615 88.7507C12.5542 87.4786 12.5915 86.1476 12.9696 84.8947C13.0075 84.7155 13.0546 84.5383 13.1107 84.3638C13.1787 84.163 13.2294 83.9567 13.262 83.7471C13.4368 82.2192 13.0793 80.6777 12.2499 79.3826C12.3122 79.3819 12.3745 79.3819 12.4355 79.3819C16.8975 79.3819 20.1806 80.9943 21.2424 83.8203C21.5122 84.5723 21.6286 85.3707 21.5847 86.1684C21.5408 86.9661 21.3375 87.7469 20.9868 88.4647C20.7576 88.9043 20.4768 89.315 20.1504 89.6881C19.8542 88.9682 19.5417 88.2552 19.1939 87.5594Z" fill="black"/>
</svg>
