<svg width="125" height="125" viewBox="0 0 125 125" fill="none" xmlns="http://www.w3.org/2000/svg">
<path d="M11 76.4999L14.5 72.9999L16.5 71.5C17.1667 71.5 18.8 71.3999 20 70.9999C21.2 70.5999 23.1667 70.8332 24 70.9999C24.8333 72.3332 26.6 75.0999 27 75.4999C27.4 75.8999 30.8333 82.9999 32.5 86.4999L37 94.9999L37.5 98.9999L35 99.9999L31.5 104L29 107.5L14.5 88.4999L10 81.4999L11 76.4999Z" fill="#E2E2E2"/>
<path d="M36.5 119.5L31.5 113C31.1667 112.333 30.4 110.9 30 110.5C29.5 110 29.5 108 30 106.5C30.5 105 30 105.5 31 104C32 102.5 31.5 103 32 102C32.5 101 33 101 33.5 100.5L35 99.0001C35.5 98.5001 36.5 99.0001 37 99.0001C37.5 99.0001 40 99.5001 41 99.5001H44H44.0005C45.5 99.5001 45.5001 99.5001 46 99.0001C46.5 98.5001 46.5 99.0001 47.5 99.0001H50C50.5 99.0001 52.5 99.5001 53 99.5001C53.5 99.5001 54.5 100.5 55 101L56 102C56.5 102.5 57 103.5 57.5 104C58 104.5 58 105.5 58 107C58 108.5 58.5 108.5 58.5 109.5C58.5 110.5 58 111 58 111.5C58 112 55 116 55 116.5C55 117 54.5 117.5 54 118L52.5 119.5C51.5 119.833 49.5 120.6 49.5 121C49.5 121.5 47 120.5 46.5 121C46.1 121.4 43.3333 121.167 42 121L36.5 119.5Z" fill="#E2E2E2"/>
<path d="M42.5 91.5L44 90C44.1667 89.8333 44.8 89.5 46 89.5C47.5 89.5 48 89.5 48.5 90C49 90.5 49 91 49 91.5C49 92 49 92.5 48.5 93L48 93.5C47.6667 93.6667 46.9 94.1 46.5 94.5C46 95 46 95 45 95.5C44.2 95.9 44 95.3333 44 95C43.8333 94.6667 43.4 93.9 43 93.5C42.6 93.1 42.5 92 42.5 91.5Z" fill="#E2E2E2"/>
<path d="M72.5 86.5L71.5 96H77.5L79 94.5C79.5 94 80.5 94 81.5 93.5C82.5 93 83.5 92.5 84 92.5C84.4 92.5 85.1667 91.8333 85.5 91.5C86 91.1667 87 90.4 87 90C87 89.6 88.3333 87.8333 89 87C88.8333 86.5 88.5 85.2 88.5 84C88.5 82.5 88 82 88 81C88 80 87.5 80 87.5 79.5C87.5 79 87.5 78.5 88 77.5C88.5 76.5 88.5 77 89 76.5C89.4 76.1 89.5 75.6667 89.5 75.5C90 75.3333 91.1 74.9 91.5 74.5C91.9 74.1 94 73.3333 95 73L96 71.5V70L86.5 72.5L77.5 79L72.5 86.5Z" fill="#E2E2E2"/>
<path d="M107 76.5L109 74.5L105 72L98.5 70L94 73.5C92.5 73.8333 89.3 74.8 88.5 76C87.5 77.5 87.5 77.5 87 78C86.5 78.5 87 79.5 86.5 80.5C86 81.5 87 82 87 82.5C87 83 87.5 84 88.5 85.5C89.5 87 88.5 86 88.5 87C88.5 87.8 88.1667 88.3333 88 88.5L86.5 91L81.5 93L77.5 96.5H95.5C95.6667 96 96.1 94.9 96.5 94.5C97 94 97.5 94 98.5 93.5C99.5 93 100 93 100.5 92.5C101 92 101 91 101.5 90.5C102 90 101.5 89.5 101.5 89V87.5C101.5 87 101.5 85.5 101 84.5C100.5 83.5 100.5 83.5 100.5 83C100.5 82.5 101 81.5 101 81C101 80.5 101.5 80 102 79.5C102.5 79 103 78.5 103 78C103 77.5 104.5 78 105 77.5C105.5 77 106.5 77 107 76.5Z" fill="#E2E2E2"/>
<path d="M118 84L119.5 87.5L113.5 89L111.5 92L112.5 96.5C112.667 97.1667 113.1 98.6 113.5 99C113.9 99.4 111 102.167 109.5 103.5L105.5 106L104 111.5L104.5 118.5L102 119.5L95.5 120L90 118L93.5 115.5L97.5 110.5L99.5 104.5L101.5 97L95 96.5C95.6667 95.8333 97.2 94.4 98 94C99 93.5 100.5 92.5 100.5 92C100.5 91.6 101.167 90.1667 101.5 89.5C101.333 88.6667 101 86.9 101 86.5C101 86 100 83 100.5 82.5C101 82 101.5 79.5 101.5 79C101.5 78.6 103.5 77.8333 104.5 77.5L108.5 75C109.333 75.1667 111.1 75.6 111.5 76C112 76.5 115 79.5 115.5 79.5C115.9 79.5 117.333 82.5 118 84Z" fill="#E2E2E2"/>
<path d="M121 100L120.5 89.5L119.5 88H114.5C113.5 88 111.5 91 111.5 91.5C111.5 92 112.5 95 113 96C113.4 96.8 113.833 98.3333 114 99L112.5 102C111.667 102.5 109.9 103.5 109.5 103.5C109.1 103.5 106.333 105.167 105 106L104.5 111L105 116.5V118.5L112 115L116.5 109.5L121 100Z" fill="#E2E2E2"/>
<path d="M100.5 96.5L52.5 96L52 99.5C52.5 99.6667 53.6 100.1 54 100.5C54.5 101 55 101 56 102C57 103 57 104 57.5 104.5C57.9 104.9 58.6667 108 59 109.5L66 114L76.5 116L88 113L96 107.5L100 101L100.5 96.5Z" fill="#E2E2E2"/>
<path d="M65.5 113.5L59 109.5L58 113L60 115L63 117.5L68.5 119.5L75 121L81 120.5L88.5 117.5L96 113L99.5 107L98.5 104L94.5 108L87 114L75.5 116L65.5 113.5Z" fill="#E2E2E2"/>
<path d="M61.559 49.0761C61.6804 49.2035 61.8264 49.3049 61.9881 49.3742C62.1498 49.4435 62.324 49.4792 62.4999 49.4792C62.6759 49.4792 62.85 49.4435 63.0118 49.3742C63.1735 49.3049 63.3195 49.2035 63.4409 49.0761L82.4305 29.2041C84.6768 26.8054 85.9267 23.6421 85.9267 20.3559C85.9267 17.0696 84.6768 13.9064 82.4305 11.5077C81.3355 10.3412 80.0131 9.41148 78.5449 8.77593C77.0766 8.14039 75.4937 7.8125 73.8938 7.8125C72.2939 7.8125 70.711 8.14039 69.2428 8.77593C67.7745 9.41148 66.4521 10.3412 65.3572 11.5077L62.4999 14.4971L59.6427 11.5077C58.5478 10.3412 57.2254 9.41148 55.7571 8.77593C54.2889 8.14039 52.706 7.8125 51.1061 7.8125C49.5062 7.8125 47.9233 8.14039 46.455 8.77593C44.9868 9.41148 43.6644 10.3412 42.5694 11.5077C40.3231 13.9064 39.0732 17.0696 39.0732 20.3559C39.0732 23.6421 40.3231 26.8054 42.5694 29.2041L61.559 49.0761ZM44.4513 13.3057C45.3035 12.3939 46.3339 11.6671 47.4787 11.1701C48.6234 10.6731 49.8581 10.4167 51.1061 10.4167C52.354 10.4167 53.5887 10.6731 54.7335 11.1701C55.8782 11.6671 56.9086 12.3939 57.7608 13.3057L61.559 17.2806C61.8093 17.5286 62.1475 17.6678 62.5 17.6678C62.8524 17.6678 63.1906 17.5286 63.4409 17.2806L67.2391 13.3057C68.0913 12.3939 69.1217 11.6671 70.2664 11.1701C71.4112 10.6731 72.6459 10.4167 73.8938 10.4167C75.1418 10.4167 76.3765 10.6731 77.5212 11.1701C78.666 11.6671 79.6964 12.3939 80.5486 13.3057C82.3378 15.2172 83.3333 17.7376 83.3333 20.3559C83.3333 22.9742 82.3378 25.4945 80.5486 27.4061L62.4999 46.2926L44.4513 27.4061C42.6621 25.4945 41.6666 22.9742 41.6666 20.3559C41.6666 17.7376 42.6621 15.2172 44.4513 13.3057Z" fill="black"/>
<path d="M62.4324 37.7591L62.4331 37.7475C62.4536 37.7486 62.4716 37.7602 62.4922 37.7604H62.4998C62.5183 37.7604 62.5345 37.75 62.5528 37.7492L62.5532 37.7591C70.4217 37.4374 73.8015 34.0614 74.2173 26.109C74.2266 25.9281 74.1981 25.7472 74.1335 25.578C74.0689 25.4087 73.9697 25.2548 73.8422 25.1261C73.717 24.9943 73.5645 24.8915 73.3953 24.8249C73.2262 24.7584 73.0445 24.7296 72.863 24.7408C70.9336 24.7708 69.0232 25.126 67.212 25.7917C66.3618 23.6199 65.089 21.6385 63.4674 19.9622C63.346 19.8277 63.198 19.7199 63.0327 19.6457C62.8674 19.5715 62.6885 19.5325 62.5073 19.5312H62.4998C62.3199 19.5314 62.142 19.5687 61.9772 19.6409C61.8124 19.7131 61.6644 19.8187 61.5423 19.9509C59.889 21.6161 58.6003 23.6072 57.758 25.7974C55.9579 25.1457 54.0644 24.7889 52.1505 24.7409C51.9696 24.7316 51.7888 24.7602 51.6195 24.8248C51.4503 24.8894 51.2963 24.9886 51.1676 25.116C51.0388 25.2434 50.9381 25.3963 50.8717 25.5649C50.8054 25.7335 50.7749 25.914 50.7823 26.095C51.104 33.9635 54.48 37.3433 62.4324 37.7591ZM71.5 27.448C71.0095 31.9478 69.3559 34.0586 65.4951 34.8268C66.9268 32.9945 67.7081 30.7378 67.7156 28.4125C68.9134 27.8792 70.193 27.5531 71.5 27.448V27.448ZM62.4896 22.8207C65.9954 27.1441 66.0017 30.2429 62.51 34.4708C59.0043 30.1475 58.9979 27.0487 62.4896 22.8208V22.8207ZM57.276 28.4323C57.3232 30.7403 58.1093 32.9723 59.5186 34.8006C55.5909 34.002 53.9297 31.9065 53.4844 27.4594C54.7934 27.5717 56.0746 27.9005 57.276 28.4323Z" fill="black"/>
<path d="M72.9163 52.0833H52.083V54.6874H72.9163V52.0833Z" fill="black"/>
<path d="M59.8958 59.8958H23.4375V62.4999H59.8958V59.8958Z" fill="black"/>
<path d="M101.562 59.8958H62.5V62.4999H101.562V59.8958Z" fill="black"/>
<path d="M59.8955 69.0105H28.6455V71.6147H59.8955V69.0105Z" fill="black"/>
<path d="M59.8962 78.125H33.8545V80.7292H59.8962V78.125Z" fill="black"/>
<path d="M72.9167 78.2407H62.5V80.8449H72.9167V78.2407Z" fill="black"/>
<path d="M80.7292 69.0105H62.5V71.6147H80.7292V69.0105Z" fill="black"/>
<path d="M78.1247 100.26H75.5205V104.167H78.1247V100.26Z" fill="black"/>
<path d="M69.0104 100.26H66.4062V104.167H69.0104V100.26Z" fill="black"/>
<path d="M87.2399 100.26H84.6357V104.167H87.2399V100.26Z" fill="black"/>
<path d="M113.508 75.5085C114.174 75.0524 114.653 74.37 114.854 73.5879C115.056 72.8059 114.966 71.9773 114.603 71.256C114.514 71.0763 114.499 70.8685 114.562 70.6781C114.626 70.4877 114.762 70.3301 114.941 70.24L115.943 69.739L118.963 72.7589L120.805 70.9177L117.68 67.7935C117.498 67.6108 117.373 67.3781 117.323 67.1246L116.556 63.296L114.003 63.8071L114.73 67.434L113.777 67.9105C112.98 68.3101 112.374 69.0094 112.093 69.8549C111.811 70.7004 111.876 71.6231 112.274 72.4207C112.318 72.5095 112.345 72.6062 112.352 72.7054C112.359 72.8045 112.347 72.9041 112.315 72.9984C112.284 73.0927 112.234 73.1798 112.169 73.2548C112.104 73.3298 112.024 73.3912 111.935 73.4354L111.294 73.756C110.674 73.3198 110.032 72.9157 109.374 72.5338V3.90621C109.375 3.73519 109.341 3.56583 109.276 3.40781C109.21 3.24979 109.114 3.10621 108.993 2.98528C108.872 2.86435 108.729 2.76844 108.571 2.70304C108.413 2.63764 108.243 2.60403 108.072 2.60413H16.9266C16.7556 2.60403 16.5862 2.63764 16.4282 2.70304C16.2702 2.76844 16.1266 2.86435 16.0057 2.98528C15.8848 3.10621 15.7889 3.24979 15.7235 3.40781C15.6581 3.56583 15.6244 3.73519 15.6245 3.90621V70.5581L14.3225 68.6071V61.1979H11.7183V64.7052L8.89538 60.4756L6.72871 61.9201L9.83678 66.5766L5.61988 65.1715L4.7959 67.6409L12.193 70.1066L13.6087 72.2274L12.3935 72.9751C11.4116 73.5796 10.5683 74.3846 9.91885 75.3374C9.26943 76.2903 8.82851 77.3695 8.62493 78.5045C8.42136 79.6395 8.45971 80.8047 8.7375 81.9239C9.01528 83.0431 9.52623 84.091 10.2369 84.999L15.6245 91.8832V117.187C15.6244 117.358 15.6581 117.528 15.7235 117.686C15.7889 117.844 15.8848 117.987 16.0057 118.108C16.1266 118.229 16.2702 118.325 16.4282 118.391C16.5862 118.456 16.7556 118.49 16.9266 118.49H33.3359C35.6613 121.046 38.6266 122.786 41.7158 122.317C42.2358 122.236 42.7491 122.118 43.2519 121.962C43.916 121.761 44.6247 121.761 45.2889 121.962C45.7924 122.118 46.3067 122.236 46.8275 122.317C47.1674 122.37 47.5109 122.396 47.8549 122.396C49.2833 122.286 50.6735 121.882 51.9386 121.21C53.2037 120.538 54.3163 119.612 55.2067 118.49H63.146C66.8706 120.806 71.1227 122.139 75.5034 122.362C79.8842 122.585 84.2498 121.692 88.1906 119.766C93.8897 121.659 100.068 121.522 105.678 119.377C111.287 117.232 115.981 113.212 118.963 107.999C121.945 102.786 123.031 96.7022 122.036 90.7798C121.042 84.8573 118.029 79.4615 113.508 75.5085ZM99.9713 85.9197C100.699 87.5981 101.076 88.6179 100.388 90.0637C100.182 90.6092 99.844 91.0953 99.4045 91.4788C98.9651 91.8623 98.4378 92.1314 97.8694 92.2622C96.3513 92.6822 95.0606 93.6849 94.2783 95.052H80.9426C81.7051 94.6149 82.5215 94.2794 83.371 94.0539C84.5591 93.8342 85.6813 93.346 86.652 92.6265C87.6227 91.9071 88.4162 90.9754 88.972 89.9026C89.5278 88.8298 89.8312 87.6442 89.859 86.4363C89.8868 85.2283 89.6383 84.03 89.1325 82.9328C88.7588 82.1599 88.5632 81.3131 88.5601 80.4546C88.557 79.5961 88.7465 78.7479 89.1147 77.9724C90.0607 76.0803 91.4442 75.6442 93.1939 75.0936C95.2699 74.6483 97.1045 73.4433 98.3379 71.7151C101.601 71.9856 104.771 72.9423 107.639 74.5225C106.829 75.275 105.813 75.7699 104.721 75.9443C103.624 76.0731 102.579 76.4779 101.682 77.1208C100.785 77.7637 100.065 78.6236 99.5906 79.6201C99.1162 80.6167 98.9022 81.7173 98.9688 82.819C99.0354 83.9207 99.3803 84.9875 99.9713 85.9197V85.9197ZM59.8706 107.284C59.775 105.348 59.1216 103.48 57.9891 101.906C56.8567 100.333 55.2934 99.1199 53.4876 98.414C53.4659 98.1612 53.4354 97.9065 53.4218 97.6562H99.318C98.1798 101.618 96.0144 105.209 93.0412 108.065C90.068 110.92 86.3928 112.939 82.388 113.916C78.3832 114.894 74.1912 114.795 70.2368 113.631C66.2824 112.466 62.7062 110.276 59.8706 107.284ZM86.6517 83.7262C87.0255 84.4993 87.221 85.3464 87.2239 86.2051C87.2267 87.0639 87.0368 87.9123 86.6682 88.6878C85.7222 90.5812 84.3387 91.0174 82.5877 91.5692C80.472 92.0234 78.6101 93.2694 77.3834 95.052H72.9162C72.9259 89.1267 75.1782 83.4247 79.2203 79.0922C83.2625 74.7598 88.7949 72.118 94.7053 71.6981C93.9779 72.0879 93.2085 72.3935 92.4118 72.6089C91.2238 72.8279 90.1016 73.3156 89.1308 74.0347C88.1601 74.7537 87.3665 75.6851 86.8108 76.7577C86.255 77.8304 85.9518 79.0158 85.9242 80.2235C85.8966 81.4313 86.1454 82.6293 86.6517 83.7262H86.6517ZM106.77 5.20829V71.1998C102.809 69.4629 98.477 68.7412 94.1665 69.1C89.856 69.4589 85.703 70.887 82.0834 73.2551C78.4638 75.6232 75.4918 78.8564 73.4364 82.6623C71.3811 86.4682 70.3072 90.7266 70.312 95.052H52.0829C51.9119 95.0519 51.7425 95.0855 51.5845 95.1509C51.4265 95.2164 51.2829 95.3123 51.1619 95.4332C51.041 95.5541 50.9451 95.6977 50.8797 95.8557C50.8143 96.0137 50.7807 96.1831 50.7808 96.3541C50.7808 96.8155 50.798 97.2854 50.8234 97.7577C48.9429 97.5421 47.0385 97.8084 45.2893 98.5315C45.1928 97.7467 45.0539 96.9972 44.8919 96.2595C45.3293 96.1913 45.7612 96.0912 46.1841 95.96C49.3783 94.9923 51.3021 92.6552 50.66 90.5215C50.5329 90.1245 50.3271 89.7572 50.0549 89.4415C49.7827 89.1258 49.4496 88.8682 49.0756 88.6841C47.4478 87.9635 45.6056 87.8943 43.9283 88.4908C43.3742 88.6576 42.8383 88.8799 42.3288 89.1544C42.0626 88.5903 41.7792 88.0083 41.478 87.4023L39.146 88.562C40.8289 91.5813 42.0013 94.858 42.6157 98.2595C41.7369 97.9728 40.8262 97.7951 39.9041 97.7305L27.9664 73.855C27.1012 72.1188 25.6462 70.7473 23.8619 69.9863C22.0776 69.2252 20.0807 69.1242 18.2287 69.7015V5.20829H106.77ZM43.3846 91.5519C43.7921 91.3117 44.227 91.1211 44.6798 90.9843C45.701 90.5926 46.8309 90.5921 47.8524 90.983C47.9338 91.0262 48.127 91.1407 48.1665 91.2729C48.2962 91.7027 47.331 92.8916 45.4211 93.4702C45.0222 93.5926 44.6117 93.6738 44.1961 93.7126C43.9608 93.0032 43.6859 92.2841 43.3846 91.5519ZM11.1868 78.9655C11.3264 78.1912 11.6276 77.455 12.0708 76.8049C12.5141 76.1549 13.0893 75.6055 13.7592 75.1927L17.7125 72.7602C18.3725 72.3542 19.1099 72.0899 19.8776 71.9842C20.6453 71.8784 21.4267 71.9336 22.1719 72.1461C22.9172 72.3586 23.6101 72.7238 24.2066 73.2185C24.8031 73.7133 25.2902 74.3267 25.6368 75.0198L29.5456 82.8372L24.069 86.1231L25.4092 88.356L30.7137 85.1733L37.0498 97.8457C35.2031 98.1632 33.4809 98.9872 32.0749 100.226C30.6689 101.464 29.6344 103.069 29.0866 104.861L24.5306 99.0394L29.3155 96.1685L27.9753 93.9356L22.9134 96.9728L15.3206 87.2709L21.5551 83.1145L20.1106 80.9479L13.711 85.2142L12.2867 83.3943C11.8024 82.7749 11.4542 82.0603 11.2646 81.2971C11.0751 80.534 11.0486 79.7395 11.1868 78.9655ZM18.2287 115.885V95.2109L28.6804 108.566C28.7112 109.08 28.7786 109.591 28.8819 110.096C29.3649 112.155 30.2023 114.114 31.3568 115.885H18.2287ZM47.2268 119.743C46.8325 119.682 46.4432 119.593 46.062 119.475C44.8946 119.116 43.6461 119.116 42.4787 119.475C42.0983 119.592 41.7099 119.682 41.3165 119.743C36.9677 120.415 32.4003 114.12 31.4301 109.554C31.1945 108.532 31.1741 107.471 31.37 106.44C31.566 105.41 31.9741 104.431 32.5684 103.566C33.1628 102.701 33.9304 101.969 34.8225 101.417C35.7147 100.865 36.712 100.504 37.751 100.357C39.7801 100.062 41.8482 100.493 43.59 101.575C43.7946 101.701 44.0301 101.768 44.2703 101.768C44.5106 101.768 44.7461 101.701 44.9506 101.575C46.6925 100.494 48.7606 100.062 50.7896 100.357C51.8287 100.504 52.8259 100.865 53.7181 101.417C54.6103 101.969 55.3779 102.701 55.9722 103.566C56.5666 104.431 56.9747 105.41 57.1706 106.44C57.3666 107.471 57.3462 108.532 57.1106 109.554C56.1392 114.122 51.5158 120.399 47.2268 119.743ZM57.1853 115.885C57.4978 115.394 57.7916 114.895 58.0565 114.388C58.1763 114.512 58.2891 114.635 58.414 114.76C58.8104 115.158 59.2341 115.517 59.6512 115.885H57.1853ZM76.8225 119.792C73.7433 119.801 70.693 119.198 67.8489 118.018C65.0047 116.839 62.4235 115.105 60.2552 112.919C59.8684 112.532 59.5191 112.153 59.1831 111.771C59.3182 111.374 59.4342 110.984 59.5311 110.6C62.2849 113.057 65.5309 114.898 69.0526 116.001C72.5743 117.104 76.2907 117.443 79.9539 116.996C83.6172 116.55 87.143 115.327 90.2963 113.41C93.4496 111.492 96.1578 108.925 98.2403 105.878C96.3933 110.016 93.3884 113.532 89.588 116.001C85.7877 118.47 81.3543 119.786 76.8225 119.792ZM91.3673 117.937C94.9136 115.565 97.8188 112.354 99.8245 108.589C101.83 104.823 102.874 100.62 102.864 96.3541C102.864 96.1831 102.831 96.0137 102.765 95.8557C102.7 95.6977 102.604 95.5541 102.483 95.4332C102.362 95.3123 102.218 95.2164 102.06 95.1509C101.902 95.0855 101.733 95.0519 101.562 95.052H97.9018C98.177 94.9252 98.4586 94.8128 98.7455 94.7151C99.6364 94.4695 100.459 94.0235 101.152 93.4113C101.844 92.7991 102.387 92.0368 102.74 91.1827C103.177 90.1771 103.371 89.0823 103.306 87.9876C103.24 86.8928 102.916 85.8291 102.361 84.8833C101.632 83.2049 101.254 82.1851 101.942 80.738C102.631 79.2935 103.661 78.9451 105.421 78.453C107.141 78.1373 108.701 77.2422 109.841 75.9167C113.61 78.5809 116.513 82.2946 118.188 86.5956C117.599 86.834 116.99 87.0168 116.368 87.1416C114.648 87.5409 112.508 88.0394 111.328 90.4884C110.145 92.9387 111.087 94.9223 111.844 96.5156C112.588 98.0809 112.979 99.0282 112.369 100.293C111.757 101.559 110.771 101.842 109.08 102.234C107.359 102.633 105.218 103.13 104.035 105.579C103.189 107.759 102.965 110.13 103.391 112.429C103.678 114.106 103.604 115.824 103.175 117.47C99.3459 118.647 95.277 118.808 91.3673 117.937ZM106.081 116.349C106.187 114.963 106.154 113.571 105.985 112.193C105.63 110.363 105.766 108.471 106.38 106.711C106.99 105.447 107.977 105.163 109.668 104.771C111.389 104.373 113.531 103.875 114.714 101.425C115.896 98.976 114.954 96.9923 114.196 95.3978C113.452 93.8325 113.062 92.8852 113.674 91.6187C114.283 90.3548 115.268 90.0712 116.958 89.6783C117.65 89.5308 118.329 89.3311 118.991 89.0809C120.428 94.4187 119.919 100.094 117.553 105.09C115.188 110.086 111.121 114.077 106.081 116.349V116.349Z" fill="black"/>
</svg>
