<svg width="125" height="125" viewBox="0 0 125 125" fill="none" xmlns="http://www.w3.org/2000/svg">
<path d="M76.8232 44.2708H79.4274C79.4274 42.8895 78.8787 41.5647 77.9019 40.588C76.9252 39.6112 75.6004 39.0625 74.2191 39.0625C72.8377 39.0625 71.513 39.6112 70.5362 40.588C69.5595 41.5647 69.0107 42.8895 69.0107 44.2708H71.6149C71.6149 43.5802 71.8893 42.9178 72.3777 42.4294C72.866 41.941 73.5284 41.6667 74.2191 41.6667C74.9097 41.6667 75.5721 41.941 76.0605 42.4294C76.5489 42.9178 76.8232 43.5802 76.8232 44.2708Z" fill="black"/>
<path d="M110 90.5L103.5 89.5L103 92.5L105.5 94.5L108.5 95.5L110 90.5Z" fill="#E2E2E2"/>
<path d="M99.5 101L95.5 105V109.5C95.5 111 96 112 96 113C96 114 96.5 114.5 97 115.5C97.5 116.5 97.5 116.5 98.5 117.5C99.3 118.3 99.5 119.167 99.5 119.5C100 120 101.2 121.1 102 121.5C103 122 105.5 121 106 121C106.4 121 108.5 121.333 109.5 121.5L114.5 120L119 115.5L121 108.5L119 103L114 100.5H108L99.5 101Z" fill="#E2E2E2"/>
<path d="M27.5 45.5L7.5 26L3.5 18.5L5 11L9 6L16 4L21.5 5L27 8.5L31 5.5L38 4L45 6L49 10L50.5 15.5L50 20.5L47.5 25.5L43 28L42 23.5L35 23V29.5L28.5 30V37.5L33.5 38.5L27.5 45.5Z" fill="#E2E2E2"/>
<path d="M35 29.5V23.5V23L42.5 23.5V29.5L49 30L49.5 37.5L43 38V44.5H35L34.5 38.5L29 37V30L35 29.5Z" fill="#E2E2E2"/>
<path d="M92.4476 39.0625C91.0667 39.0641 89.7429 39.6133 88.7665 40.5897C87.7901 41.5661 87.2408 42.89 87.2393 44.2708H89.8434C89.8434 43.5802 90.1178 42.9178 90.6062 42.4294C91.0945 41.941 91.7569 41.6667 92.4476 41.6667C93.1382 41.6667 93.8006 41.941 94.289 42.4294C94.7774 42.9178 95.0517 43.5802 95.0517 44.2708H97.6559C97.6543 42.89 97.1051 41.5661 96.1287 40.5897C95.1523 39.6133 93.8284 39.0641 92.4476 39.0625Z" fill="black"/>
<path d="M93.7497 75.5208H106.484C108.217 75.4834 109.941 75.7925 111.554 76.43C113.167 77.0675 114.636 78.0206 115.875 79.2334C117.115 80.4461 118.099 81.8942 118.772 83.4926C119.444 85.091 119.791 86.8075 119.791 88.5416V92.4479H122.396V88.5416C122.399 86.4645 121.988 84.4076 121.186 82.4916C120.384 80.5755 119.207 78.8389 117.725 77.3836C116.243 75.9282 114.485 74.7835 112.555 74.0164C110.625 73.2493 108.561 72.8754 106.484 72.9166H95.0518V64.0864C97.831 62.1875 100.113 59.6478 101.704 56.6817C102.165 60.0918 103.845 63.2196 106.435 65.4861C109.024 67.7527 112.347 69.0047 115.788 69.0104H117.187C117.533 69.0104 117.864 68.8732 118.108 68.629C118.352 68.3848 118.489 68.0536 118.489 67.7083V31.1527C118.485 27.3811 116.985 23.7652 114.318 21.0983C111.651 18.4313 108.035 16.9312 104.264 16.927H101.626C97.3426 12.7466 91.0898 10.4166 83.333 10.4166C68.073 10.4166 58.5934 19.3971 58.5934 33.8541C58.5934 34.1995 58.7306 34.5306 58.9748 34.7748C59.219 35.019 59.5502 35.1562 59.8955 35.1562H62.4997V46.875C62.5011 50.2694 63.3323 53.6121 64.9209 56.6119C66.5095 59.6117 68.8073 62.1776 71.6143 64.0864V72.9166H60.1823C58.1055 72.8754 56.0415 73.2493 54.1112 74.0164C52.1809 74.7835 50.4232 75.9282 48.9411 77.3836C47.4591 78.8389 46.2825 80.5755 45.4805 82.4916C44.6785 84.4076 44.2671 86.4645 44.2705 88.5416V102.865H46.8747V88.5416C46.875 86.8075 47.2216 85.091 47.8941 83.4926C48.5666 81.8942 49.5515 80.4461 50.7909 79.2334C52.0304 78.0206 53.4995 77.0675 55.1122 76.43C56.7248 75.7925 58.4486 75.4834 60.1823 75.5208H72.9164C73.2617 75.5208 73.5929 75.3836 73.8371 75.1394C74.0813 74.8952 74.2184 74.564 74.2184 74.2187V65.5796C77.0528 66.9799 80.1716 67.7083 83.333 67.7083C86.4944 67.7083 89.6132 66.9799 92.4476 65.5797V74.2187C92.4476 74.564 92.5848 74.8952 92.829 75.1394C93.0732 75.3836 93.4044 75.5208 93.7497 75.5208ZM104.264 19.5312C107.345 19.5347 110.299 20.7602 112.477 22.9389C114.656 25.1176 115.882 28.0715 115.885 31.1527V66.4062H115.788C112.707 66.4027 109.753 65.1772 107.574 62.9985C105.395 60.8198 104.17 57.8659 104.166 54.7847V35.1562H106.771C107.116 35.1562 107.447 35.019 107.691 34.7748C107.935 34.5306 108.073 34.1995 108.073 33.8541C108.219 28.7531 106.741 23.7375 103.852 19.5312H104.264ZM83.333 13.0208C96.7258 13.0208 104.903 20.2929 105.44 32.552H100.26V26.0416H97.6559V32.552H89.8434V26.0416H87.2393V32.552H79.4268V26.0416H76.8226V32.552H69.0101V26.0416H66.4059V32.552H61.2256C61.7628 20.2929 69.9403 13.0208 83.333 13.0208ZM65.1039 46.875V35.1562H101.562V46.875C101.562 51.7096 99.6416 56.3463 96.223 59.7649C92.8044 63.1836 88.1677 65.1041 83.333 65.1041C78.4983 65.1041 73.8617 63.1836 70.4431 59.7649C67.0244 56.3463 65.1039 51.7096 65.1039 46.875Z" fill="black"/>
<path d="M83.3329 55.9896C82.133 55.9874 80.9705 55.572 80.041 54.8134C79.1114 54.0547 78.4715 52.9991 78.2288 51.824L75.6768 52.3428C76.037 54.1074 76.9958 55.6935 78.3909 56.8325C79.786 57.9716 81.5318 58.5938 83.3329 58.5938C85.1339 58.5938 86.8797 57.9716 88.2748 56.8325C89.6699 55.6935 90.6287 54.1074 90.9889 52.3428L88.4369 51.824C88.1942 52.999 87.5543 54.0547 86.6248 54.8133C85.6952 55.572 84.5327 55.9874 83.3329 55.9896Z" fill="black"/>
<path d="M44.2709 44.2708V39.0625H49.4793C49.8246 39.0625 50.1558 38.9253 50.4 38.6811C50.6442 38.4369 50.7813 38.1058 50.7813 37.7604V29.9479C50.7813 29.6026 50.6442 29.2714 50.4 29.0272C50.1558 28.783 49.8246 28.6458 49.4793 28.6458H45.9822L47.9947 26.6202C50.61 23.9702 52.0764 20.3967 52.0764 16.6734C52.0764 12.9501 50.61 9.37665 47.9947 6.72659C46.7035 5.41608 45.164 4.37621 43.4661 3.66783C41.7682 2.95944 39.9461 2.59676 38.1064 2.60099H38.1057C36.2659 2.59658 34.4438 2.95912 32.7458 3.66741C31.0478 4.37569 29.5081 5.4155 28.2168 6.72599L27.3438 7.6046L26.4715 6.72656C25.1776 5.41947 23.6374 4.38185 21.9399 3.67371C20.2425 2.96557 18.4215 2.60096 16.5823 2.60096C14.743 2.60096 12.922 2.96557 11.2246 3.67371C9.52715 4.38185 7.98692 5.41947 6.69298 6.72656C4.07758 9.37676 2.61121 12.9504 2.61133 16.6738C2.61145 20.3973 4.07805 23.9708 6.69362 26.6208L26.42 46.4903C26.541 46.6122 26.685 46.709 26.8435 46.775C27.0021 46.841 27.1721 46.875 27.3438 46.875C27.5156 46.875 27.6856 46.841 27.8442 46.775C28.0027 46.709 28.1466 46.6122 28.2676 46.4903L33.8543 40.8662V44.2708C33.8543 44.6162 33.9914 44.9474 34.2356 45.1915C34.4798 45.4357 34.811 45.5729 35.1563 45.5729H42.9688C43.3142 45.5729 43.6454 45.4357 43.8896 45.1915C44.1337 44.9474 44.2709 44.6162 44.2709 44.2708ZM27.3438 43.7253L8.54183 24.7866C6.40863 22.6251 5.21256 19.7103 5.21256 16.6734C5.21256 13.6365 6.40863 10.7217 8.54183 8.56018C9.5938 7.4972 10.8461 6.65335 12.2263 6.07747C13.6065 5.50159 15.0872 5.2051 16.5827 5.20516C18.0782 5.20522 19.5589 5.50182 20.939 6.07781C22.3192 6.65381 23.5714 7.49775 24.6233 8.56082L26.42 10.3703C26.6693 10.6072 27 10.7393 27.3438 10.7393C27.6877 10.7393 28.0184 10.6072 28.2676 10.3703L30.065 8.56018C31.1169 7.49725 32.3691 6.65343 33.7493 6.07755C35.1294 5.50167 36.61 5.20516 38.1054 5.20516C39.6009 5.20516 41.0815 5.50167 42.4616 6.07755C43.8417 6.65343 45.0939 7.49725 46.1458 8.56018C48.279 10.7215 49.4751 13.636 49.4752 16.6726C49.4753 19.7093 48.2795 22.6239 46.1465 24.7854L44.2709 26.6728V23.4375C44.2709 23.0922 44.1337 22.761 43.8896 22.5168C43.6454 22.2726 43.3142 22.1354 42.9688 22.1354H35.1563C34.811 22.1354 34.4798 22.2726 34.2356 22.5168C33.9914 22.761 33.8543 23.0922 33.8543 23.4375V28.6458H28.6459C28.3006 28.6458 27.9694 28.783 27.7252 29.0272C27.481 29.2714 27.3438 29.6026 27.3438 29.9479V37.7604C27.3438 38.1058 27.481 38.4369 27.7252 38.6811C27.9694 38.9253 28.3006 39.0625 28.6459 39.0625H31.9757L27.3438 43.7253ZM41.6668 37.7604V42.9688H36.4584V37.7604C36.4584 37.4151 36.3212 37.0839 36.0771 36.8397C35.8329 36.5955 35.5017 36.4583 35.1563 36.4583H29.948V31.25H35.1563C35.5017 31.25 35.8329 31.1128 36.0771 30.8686C36.3212 30.6244 36.4584 30.2933 36.4584 29.9479V24.7396H41.6668V29.9479C41.6668 30.2933 41.8039 30.6244 42.0481 30.8686C42.2923 31.1128 42.6235 31.25 42.9688 31.25H48.1772V36.4583H42.9688C42.6235 36.4583 42.2923 36.5955 42.0481 36.8397C41.8039 37.0839 41.6668 37.4151 41.6668 37.7604Z" fill="black"/>
<path d="M13.0212 51.697L18.543 58.1392L20.5203 56.4442L12.7078 47.3296C12.5818 47.1931 12.4289 47.0841 12.2588 47.0096C12.0886 46.9351 11.9049 46.8966 11.7191 46.8966C11.5334 46.8966 11.3496 46.9351 11.1795 47.0096C11.0093 47.0841 10.8564 47.1931 10.7305 47.3296L2.91797 56.4442L4.89526 58.1392L10.417 51.697V101.563H13.0212V51.697Z" fill="black"/>
<path d="M13.0212 104.167H10.417V106.771H13.0212V104.167Z" fill="black"/>
<path d="M13.0212 109.375H10.417V111.979H13.0212V109.375Z" fill="black"/>
<path d="M35.156 62.1136L40.6777 68.5558L42.655 66.8608L34.8425 57.7462C34.7166 57.6097 34.5637 57.5007 34.3935 57.4262C34.2234 57.3517 34.0396 57.3132 33.8539 57.3132C33.6681 57.3132 33.4844 57.3517 33.3142 57.4262C33.1441 57.5007 32.9912 57.6097 32.8652 57.7462L25.0527 66.8608L27.03 68.5558L32.5518 62.1136V111.979H35.156V62.1136Z" fill="black"/>
<path d="M35.1559 114.583H32.5518V117.188H35.1559V114.583Z" fill="black"/>
<path d="M35.1559 119.792H32.5518V122.396H35.1559V119.792Z" fill="black"/>
<path d="M72.917 122.396H78.1253C78.4707 122.396 78.8018 122.259 79.046 122.014C79.2902 121.77 79.4274 121.439 79.4274 121.094V118.49H83.3337C83.679 118.49 84.0102 118.352 84.2544 118.108C84.4986 117.864 84.6357 117.533 84.6357 117.188V106.771C84.6357 106.426 84.4986 106.094 84.2544 105.85C84.0102 105.606 83.679 105.469 83.3337 105.469H79.4274V102.865C79.4274 102.519 79.2902 102.188 79.046 101.944C78.8018 101.7 78.4707 101.562 78.1253 101.562H72.917C72.5717 101.562 72.2405 101.7 71.9963 101.944C71.7521 102.188 71.6149 102.519 71.6149 102.865V108.073H58.5941V102.865C58.5941 102.519 58.4569 102.188 58.2127 101.944C57.9685 101.7 57.6373 101.562 57.292 101.562H52.0837C51.7383 101.562 51.4071 101.7 51.1629 101.944C50.9188 102.188 50.7816 102.519 50.7816 102.865V105.469H46.8753C46.53 105.469 46.1988 105.606 45.9546 105.85C45.7104 106.094 45.5732 106.426 45.5732 106.771V117.188C45.5732 117.533 45.7104 117.864 45.9546 118.108C46.1988 118.352 46.53 118.49 46.8753 118.49H50.7816V121.094C50.7816 121.439 50.9188 121.77 51.1629 122.014C51.4071 122.259 51.7383 122.396 52.0837 122.396H57.292C57.6373 122.396 57.9685 122.259 58.2127 122.014C58.4569 121.77 58.5941 121.439 58.5941 121.094V115.885H71.6149V121.094C71.6149 121.439 71.7521 121.77 71.9963 122.014C72.2405 122.259 72.5717 122.396 72.917 122.396ZM82.0316 108.073V115.885H79.4274V108.073H82.0316ZM74.2191 104.167H76.8232V119.792H74.2191V104.167ZM48.1774 115.885V108.073H50.7816V115.885H48.1774ZM55.9899 119.792H53.3857V104.167H55.9899V119.792ZM58.5941 113.281V110.677H71.6149V113.281H58.5941Z" fill="black"/>
<path d="M104.819 122.395C105.139 122.395 105.459 122.369 105.775 122.318C106.259 122.239 106.736 122.123 107.201 121.969C107.767 121.787 108.376 121.786 108.942 121.968C109.407 122.122 109.884 122.239 110.368 122.317C115.937 123.233 121.09 115.924 122.18 110.496C122.471 109.133 122.482 107.724 122.212 106.357C121.942 104.989 121.397 103.69 120.61 102.54C119.895 101.495 118.975 100.606 117.905 99.9276C116.836 99.2492 115.639 98.7956 114.389 98.5941C112.646 98.3219 110.861 98.5295 109.226 99.1946C109.611 95.5736 110.722 92.7764 112.808 88.5589L110.473 87.4043C110.2 87.9562 109.95 88.4785 109.706 88.9934C109.295 88.7938 108.868 88.6273 108.43 88.4953C106.748 87.8943 104.9 87.9621 103.267 88.6848C102.893 88.8691 102.56 89.1267 102.288 89.4424C102.015 89.7581 101.81 90.1253 101.682 90.5222C101.039 92.6552 102.963 94.9924 106.151 95.9575C106.458 96.0474 106.769 96.1214 107.084 96.179C106.872 97.1297 106.717 98.0922 106.619 99.0613C105.064 98.4936 103.39 98.3328 101.756 98.5941C100.506 98.7956 99.3094 99.2492 98.2399 99.9276C97.1704 100.606 96.2501 101.495 95.5349 102.54C94.7477 103.69 94.2027 104.989 93.9328 106.357C93.663 107.724 93.674 109.133 93.9651 110.496C94.9925 115.613 99.6204 122.395 104.819 122.395ZM106.913 93.4678C105.011 92.8918 104.046 91.7041 104.175 91.275C104.216 91.1414 104.409 91.027 104.491 90.9838C105.518 90.5923 106.653 90.5942 107.679 90.9888C108.012 91.0866 108.337 91.2125 108.649 91.3649C108.32 92.1538 108.034 92.9199 107.782 93.6761C107.488 93.6259 107.198 93.5563 106.913 93.4678ZM97.6762 104.022C98.1934 103.265 98.8589 102.622 99.6324 102.131C100.406 101.639 101.271 101.31 102.176 101.164C102.543 101.104 102.914 101.074 103.286 101.074C104.736 101.085 106.153 101.516 107.364 102.315C107.575 102.452 107.821 102.525 108.072 102.525C108.324 102.525 108.57 102.452 108.781 102.315C110.307 101.298 112.157 100.888 113.969 101.164C114.874 101.31 115.739 101.639 116.513 102.131C117.286 102.622 117.952 103.265 118.469 104.022C119.056 104.885 119.461 105.859 119.66 106.884C119.859 107.909 119.847 108.963 119.627 109.984C118.75 114.353 114.666 120.394 110.786 119.747C110.437 119.69 110.093 119.606 109.757 119.495C108.662 119.138 107.481 119.138 106.386 119.496C106.05 119.607 105.706 119.691 105.357 119.747C101.483 120.367 97.3946 114.353 96.5185 109.983C96.2976 108.963 96.2863 107.909 96.4853 106.884C96.6843 105.859 97.0895 104.885 97.6762 104.022Z" fill="black"/>
<path d="M119.792 2.60413H117.188V5.20829H119.792V2.60413Z" fill="black"/>
<path d="M119.792 7.8125H117.188V10.4167H119.792V7.8125Z" fill="black"/>
<path d="M122.396 5.20837H119.792V7.81254H122.396V5.20837Z" fill="black"/>
<path d="M117.187 5.20837H114.583V7.81254H117.187V5.20837Z" fill="black"/>
<path d="M108.073 5.20837H105.469V7.81254H108.073V5.20837Z" fill="black"/>
<path d="M108.073 10.4166H105.469V13.0208H108.073V10.4166Z" fill="black"/>
<path d="M110.677 7.8125H108.073V10.4167H110.677V7.8125Z" fill="black"/>
<path d="M105.468 7.8125H102.864V10.4167H105.468V7.8125Z" fill="black"/>
<path d="M10.4817 10.2971C8.99723 11.7868 8.07222 13.7432 7.8628 15.8359C7.65338 17.9285 8.17239 20.0294 9.33222 21.7838L11.5002 20.3418C10.7983 19.2834 10.4213 18.0429 10.4155 16.773C10.4096 15.5031 10.7753 14.2591 11.4674 13.1944C12.1595 12.1296 13.1478 11.2904 14.3107 10.7801C15.4737 10.2699 16.7604 10.1108 18.0126 10.3225L18.4449 7.75393C17.011 7.51351 15.5403 7.61884 14.1553 8.06116C12.7703 8.50348 11.5109 9.27002 10.4817 10.2971Z" fill="black"/>
</svg>
