<svg width="125" height="125" viewBox="0 0 125 125" fill="none" xmlns="http://www.w3.org/2000/svg">
<path d="M16 120L3.5 78.5L6 73.5L9 71.5L26 72L29.5 76V82L25.5 94.5L20.5 98L18.5 104.5L19.5 111L16 120Z" fill="#E2E2E2"/>
<path d="M40.5 95L34.5 97.5L31.5 95.5L24.5 95L20.5 98L18.5 106L21.5 114L25.5 119.5L29 120.5H32.5L35 120L40.5 121L45 117L49 110L49.5 102L47.5 97L40.5 95Z" fill="#E2E2E2"/>
<path d="M58.5 96.5L55.5 103V106L57.5 111L53.5 119H55.5L62 116L66 117.5L73.5 117L79.5 114.5L78 110L80.5 109L81 103L78.5 96L71 92.5H65L58.5 96.5Z" fill="#E2E2E2"/>
<path d="M78.5 109.5H101V112L98.5 117.5L94.5 120L86.5 120.5L79.5 115L78.5 109.5Z" fill="#E2E2E2"/>
<path d="M108 88.5L99 92L94 99L92.5 105L93 109L94.5 109.5L101.5 110L100 116.5L103 117L112.5 115L119 108.5L121 100.5L120 93.5L121 90.5L119.5 88.5L115.5 89.5L108 88.5Z" fill="#E2E2E2"/>
<path d="M113.5 54.5L105.5 49.5L101 51L97 62.5L96.5 73.5L97.5 85.5L100.5 91L103 90L111 89L115.5 90L118 88L120 76L118.5 66.5L113.5 54.5Z" fill="#E2E2E2"/>
<path d="M50.6432 108.816C51.1429 107.037 51.2868 105.177 51.0665 103.342C50.8462 101.507 50.2662 99.7343 49.3596 98.1243C48.7242 97.0212 47.874 96.0568 46.8594 95.288C45.8448 94.5192 44.6864 93.9617 43.4525 93.6484C42.0959 93.3525 40.6922 93.3444 39.3322 93.6246C37.9722 93.9049 36.6861 94.4673 35.557 95.2755C35.5499 92.951 36.1924 90.6707 37.412 88.6918L35.2732 87.2066C33.7404 89.633 32.9336 92.4472 32.9479 95.3171C31.1219 94.0223 28.9227 93.3596 26.6853 93.4299L31.0167 80.0171C31.3117 78.8604 31.3373 77.6513 31.0913 76.4831C30.8454 75.3149 30.3346 74.2187 29.5982 73.2791C28.8833 72.3541 27.9656 71.6057 26.9158 71.0913C25.866 70.577 24.7121 70.3106 23.5431 70.3126H18.2355V65.9626L26.5611 62.3946L25.535 60.0015L18.2355 63.1297V57.2917H15.6313V63.1297L8.33196 60.0014L7.3058 62.3946L15.6313 65.9627V70.3126H10.3137C9.15872 70.3115 8.01853 70.5722 6.97886 71.0752C5.93919 71.5783 5.02711 72.3105 4.31122 73.2168C3.5674 74.1527 3.04713 75.2461 2.79008 76.4136C2.53303 77.5811 2.546 78.7919 2.82799 79.9536L15.1196 121.464C15.1988 121.73 15.3612 121.965 15.5829 122.132C15.8047 122.3 16.0743 122.392 16.3523 122.396H16.3682C16.6436 122.396 16.9119 122.309 17.1345 122.147C17.3572 121.985 17.5227 121.756 17.6074 121.494L19.9657 114.193C22.6139 119.065 26.9375 123.309 31.4776 122.228C32.452 121.992 33.3792 121.592 34.2198 121.046C35.0606 121.592 35.988 121.992 36.9626 122.228C37.4363 122.342 37.9218 122.399 38.409 122.4C44.0407 122.398 49.1117 114.737 50.6432 108.816ZM16.4223 116.69L8.85648 91.1459H15.6314V88.5417H8.08519L5.34568 79.2924C5.16511 78.5226 5.16151 77.722 5.33518 76.9506C5.50885 76.1793 5.85524 75.4574 6.34829 74.8393C6.82085 74.2399 7.42322 73.7554 8.11007 73.4224C8.79693 73.0894 9.55036 72.9165 10.3137 72.9167H23.5431C24.3159 72.9161 25.0787 73.0928 25.7724 73.4334C26.4662 73.774 27.0726 74.2694 27.5447 74.8813C28.0301 75.4965 28.3696 76.2138 28.5377 76.9791C28.7057 77.7445 28.6979 78.5381 28.5149 79.3L28.4738 79.4272H15.6313V82.0313H27.6322L23.7458 94.0577C21.7885 94.8676 20.15 96.2958 19.0805 98.1243C18.1739 99.7343 17.5938 101.507 17.3735 103.342C17.1532 105.177 17.2971 107.037 17.7968 108.816C17.9508 109.411 18.1516 110.027 18.3739 110.648L16.4223 116.69ZM37.571 119.695C36.6423 119.467 35.7767 119.033 35.038 118.426C34.8062 118.239 34.5175 118.137 34.2198 118.137C33.9221 118.137 33.6333 118.239 33.4015 118.426C32.663 119.033 31.7976 119.467 30.8692 119.695C26.9267 120.654 21.8703 114.163 20.3184 108.165C19.9047 106.72 19.7796 105.209 19.9502 103.716C20.1208 102.224 20.5838 100.779 21.3128 99.4658C21.7668 98.6567 22.3805 97.9483 23.1167 97.3837C23.8529 96.819 24.6962 96.41 25.5954 96.1813C27.0093 95.9225 28.4668 96.0484 29.8153 96.5459C31.1639 97.0434 32.354 97.8942 33.261 99.0093C33.383 99.1419 33.5312 99.2479 33.6963 99.3203C33.8613 99.3927 34.0396 99.4301 34.2198 99.4301C34.4 99.4301 34.5783 99.3927 34.7433 99.3203C34.9084 99.2479 35.0566 99.1419 35.1786 99.0093C36.0863 97.895 37.2764 97.0448 38.6248 96.5474C39.9732 96.0499 41.4303 95.9235 42.8442 96.1813H42.8448C43.744 96.4101 44.5872 96.8192 45.3234 97.3838C46.0596 97.9484 46.6734 98.6567 47.1275 99.4658C47.8564 100.779 48.3194 102.224 48.49 103.716C48.6606 105.209 48.5355 106.72 48.1218 108.165C46.5699 114.161 41.5096 120.649 37.571 119.695Z" fill="black"/>
<path d="M120.4 87.3641C120.035 87.1916 119.644 87.0774 119.243 87.0255C120.501 82.8741 121.125 78.5564 121.094 74.2187C121.094 61.3199 113.208 48.177 105.469 48.177C98.9466 48.177 95.0524 57.9121 95.0524 74.2187C94.937 80.0346 96.1186 85.8033 98.5113 91.1055C97.8564 91.61 97.2335 92.1547 96.6463 92.7365C94.5981 94.6812 93.0462 97.0889 92.1209 99.7575C91.1957 102.426 90.924 105.278 91.3287 108.073H82.3198C82.7282 106.151 82.7384 104.166 82.3499 102.24C81.9614 100.314 81.1823 98.488 80.0608 96.8747L88.4218 97.6511L88.6622 95.0571L81.1434 94.359L86.9888 89.5474L85.3332 87.5358L79.4765 92.3575L80.0912 86.0646L77.4997 85.8103L76.7523 93.4622C74.1966 91.4809 71.0316 90.4498 67.7993 90.5455C64.567 90.6412 61.4685 91.8576 59.0344 93.9865C56.6003 96.1154 54.9821 99.0243 54.4569 102.215C53.9316 105.406 54.532 108.68 56.1553 111.477C55.6383 112.554 55.058 113.601 54.4177 114.61C52.5224 117.766 51.4785 119.504 52.6089 120.636C52.755 120.787 52.9307 120.907 53.1251 120.987C53.3196 121.067 53.5285 121.106 53.7387 121.101C54.8424 121.101 56.3753 120.179 58.6342 118.82C59.6432 118.178 60.6896 117.596 61.7679 117.078C64.3533 118.556 67.3415 119.173 70.3008 118.842C73.2601 118.51 76.0374 117.246 78.2315 115.233C79.1925 117.148 80.6126 118.796 82.3652 120.029C84.1177 121.263 86.1483 122.043 88.2757 122.301C90.4032 122.559 92.5614 122.287 94.558 121.508C96.5546 120.73 98.3274 119.469 99.7185 117.839C101.152 118.313 102.653 118.554 104.163 118.553C108.973 118.445 113.547 116.447 116.896 112.993C122.268 107.633 123.927 99.8623 121.053 94.1085L121.402 93.7588C122.08 93.1012 122.503 92.2251 122.597 91.2857C122.69 90.3462 122.449 89.4039 121.914 88.6255C121.525 88.0833 121.004 87.6492 120.4 87.3641ZM97.6566 74.2187C97.6566 59.9809 100.723 50.7812 105.469 50.7812C111.154 50.7812 118.49 62.1464 118.49 74.2187C118.546 78.9057 117.758 83.5645 116.164 87.9723C116.103 88.0254 116.038 88.071 115.98 88.1283L115.527 88.581C113.613 87.6458 111.506 87.1724 109.375 87.1988V85.5173L115.067 83.2404L114.1 80.8219L109.375 82.7119V79.6177C109.375 78.5343 109.342 77.4424 109.321 76.3531L113.864 74.0813L112.699 71.7518L109.249 73.4769C109.189 71.8875 109.116 70.2969 109.01 68.7115L108.892 67.4252L112.702 64.8854L111.257 62.7187L108.62 64.4763L108.068 58.4742L105.475 58.7132L105.952 63.8894L103.447 62.6373L102.283 64.9668L106.233 66.9421L106.415 68.9175C106.513 70.3853 106.578 71.8657 106.636 73.3461L103.447 71.7518L102.283 74.0813L106.716 76.2979C106.739 77.4057 106.771 78.5151 106.771 79.6177V82.7119L102.047 80.8219L101.079 83.2404L106.771 85.5173V87.4227C104.629 87.791 102.57 88.5414 100.693 89.6382C98.6032 84.7703 97.5685 79.5152 97.6566 74.2187ZM98.5332 115.11L93.3628 110.677H100.18C99.9805 112.262 99.4168 113.779 98.5332 115.11ZM81.1532 115.107C80.2706 113.777 79.7076 112.261 79.5082 110.677H86.3228L81.1532 115.107ZM88.542 112.206V119.701C86.4208 119.435 84.4333 118.521 82.8514 117.083L88.542 112.206ZM91.1462 112.207L96.8359 117.084C95.2541 118.521 93.267 119.435 91.1462 119.701V112.207ZM76.7749 113.037C75.4707 114.34 73.8638 115.299 72.098 115.829L67.3272 111.059L65.486 112.9L68.9003 116.314C66.7335 116.333 64.6037 115.752 62.747 114.635C61.6719 113.998 60.3794 114.729 57.2914 116.588C56.8438 116.858 56.2779 117.198 55.7235 117.517C56.0421 116.964 56.3816 116.398 56.6499 115.951C58.5121 112.85 59.2413 111.549 58.5928 110.491C57.4786 108.652 56.8999 106.537 56.9216 104.387C56.9433 102.236 57.5646 100.134 58.7157 98.3169L62.8819 102.483L64.723 100.642L60.3794 96.2983C61.5777 95.1534 63.0177 94.2921 64.5933 93.7779L69.3923 98.5767L71.2334 96.7356L67.717 93.2192C69.5655 93.1507 71.4044 93.516 73.0864 94.2858C74.7685 95.0556 76.2469 96.2085 77.4033 97.6523C78.5598 99.0961 79.3621 100.791 79.7461 102.6C80.1301 104.41 80.085 106.284 79.6146 108.073H78.1253C77.9543 108.073 77.785 108.106 77.627 108.172C77.469 108.237 77.3254 108.333 77.2045 108.454C77.0836 108.575 76.9877 108.719 76.9223 108.877C76.8569 109.035 76.8232 109.204 76.8233 109.375C76.8274 110.438 76.9624 111.497 77.2251 112.527C77.0762 112.697 76.9476 112.865 76.7749 113.037ZM118.328 94.5561C121.252 99.3626 119.877 106.341 115.055 111.151C111.145 115.071 105.797 116.739 101.283 115.589C102.323 113.683 102.867 111.546 102.865 109.375C102.865 109.204 102.831 109.035 102.766 108.877C102.7 108.719 102.605 108.575 102.484 108.454C102.363 108.333 102.219 108.237 102.061 108.172C101.903 108.106 101.734 108.073 101.563 108.073H93.9762C92.9532 103.589 94.6646 98.3907 98.5111 94.5548C103.325 89.7534 110.291 88.3877 115.078 91.306C115.327 91.458 115.62 91.5218 115.91 91.4872C116.2 91.4526 116.47 91.3216 116.676 91.1152L117.821 89.9708C118.011 89.7824 118.254 89.6573 118.518 89.6127C118.782 89.5681 119.053 89.6061 119.294 89.7216C119.499 89.8201 119.676 89.9694 119.807 90.1552C119.98 90.4311 120.05 90.7589 120.005 91.0811C119.96 91.4034 119.803 91.6995 119.561 91.9176L118.52 92.959C118.313 93.1652 118.182 93.4347 118.147 93.7243C118.113 94.014 118.176 94.3069 118.328 94.5561Z" fill="black"/>
<path d="M117.187 100.26H114.583V102.864H117.187V100.26Z" fill="black"/>
<path d="M54.0361 20.8333C54.0361 22.9072 55.5938 26.0416 57.9424 26.0416C60.291 26.0416 61.8486 22.9072 61.8486 20.8333C61.8486 19.7972 61.4371 18.8037 60.7045 18.0711C59.972 17.3386 58.9784 16.927 57.9424 16.927C56.9064 16.927 55.9128 17.3386 55.1802 18.0711C54.4477 18.8037 54.0361 19.7972 54.0361 20.8333ZM59.2445 20.8333C59.2445 21.9007 58.3595 23.3802 57.9462 23.4374C57.5253 23.3802 56.6403 21.9007 56.6403 20.8333C56.6403 20.4879 56.7775 20.1567 57.0217 19.9125C57.2659 19.6684 57.597 19.5312 57.9424 19.5312C58.2877 19.5312 58.6189 19.6684 58.8631 19.9125C59.1073 20.1567 59.2445 20.4879 59.2445 20.8333Z" fill="black"/>
<path d="M68.3594 26.0416C70.708 26.0416 72.2656 22.9072 72.2656 20.8333C72.2656 19.7972 71.8541 18.8037 71.1215 18.0711C70.3889 17.3386 69.3954 16.927 68.3594 16.927C67.3234 16.927 66.3298 17.3386 65.5972 18.0711C64.8647 18.8037 64.4531 19.7972 64.4531 20.8333C64.4531 22.9072 66.0108 26.0416 68.3594 26.0416ZM68.3594 19.5312C68.7046 19.5316 69.0355 19.6689 69.2796 19.913C69.5237 20.1571 69.661 20.4881 69.6615 20.8333C69.6615 21.9007 68.7764 23.3802 68.3632 23.4374C67.9423 23.3802 67.0573 21.9007 67.0573 20.8333C67.0577 20.4881 67.1951 20.1571 67.4392 19.913C67.6832 19.6689 68.0142 19.5316 68.3594 19.5312Z" fill="black"/>
<path d="M45.4557 33.5414C44.1353 33.5142 42.858 34.0115 41.9036 34.9244C40.9493 35.8373 40.3957 37.0913 40.3643 38.4115C40.3817 39.532 40.7797 40.6132 41.493 41.4774C42.2062 42.3417 43.1923 42.9376 44.289 43.1672C44.5857 44.2429 45.2303 45.1901 46.122 45.8608C47.0137 46.5316 48.1025 46.8883 49.2183 46.8751C50.5386 46.9023 51.816 46.405 52.7704 45.4922C53.7247 44.5793 54.2783 43.3253 54.3097 42.005C54.3075 41.099 54.0452 40.2128 53.5537 39.4517L54.5055 38.4757C55.154 38.8537 55.8898 39.056 56.6404 39.0626C57.5829 39.056 58.4983 38.7471 59.2522 38.1814C59.661 38.8484 60.2341 39.3994 60.9166 39.7817C61.5992 40.1639 62.3685 40.3647 63.1508 40.3647C63.9331 40.3647 64.7024 40.1639 65.385 39.7817C66.0676 39.3994 66.6407 38.8484 67.0494 38.1814C67.8033 38.7471 68.7188 39.056 69.6612 39.0626C70.1894 39.0523 70.7108 38.9428 71.1986 38.7399L71.8776 39.4021C71.4972 40.1382 71.2996 40.9551 71.3016 41.7837C71.2743 43.1041 71.7716 44.3814 72.6845 45.3358C73.5974 46.2901 74.8514 46.8437 76.1717 46.8751C77.2922 46.8578 78.3735 46.4597 79.2378 45.7463C80.1021 45.033 80.6979 44.0467 80.9273 42.9498C82.0029 42.6531 82.95 42.0087 83.6208 41.1171C84.2915 40.2255 84.6482 39.1368 84.6352 38.0212C84.6625 36.7008 84.1652 35.4234 83.2523 34.4691C82.3394 33.5147 81.0854 32.9612 79.7651 32.9298C78.8599 32.9322 77.9744 33.1944 77.2137 33.6851L74.7684 31.2925C74.7034 30.8847 74.6063 30.4828 74.4779 30.0904C76.3934 27.881 77.456 25.0596 77.4737 22.1355H74.8696C74.8433 24.6765 73.8261 27.1069 72.0346 28.9091C71.8516 29.0987 71.7303 29.3394 71.6869 29.5993C71.6434 29.8592 71.6797 30.1262 71.7911 30.3651C72.1059 31.0511 72.2678 31.7974 72.2654 32.5522C72.2654 34.6694 71.0727 36.4584 69.6612 36.4584C69.2776 36.4199 68.909 36.2888 68.5872 36.0764C68.2653 35.864 67.9999 35.5766 67.8136 35.239C67.6799 35.0334 67.4908 34.8698 67.2682 34.767C67.0456 34.6642 66.7985 34.6264 66.5553 34.6579C66.3122 34.6894 66.0828 34.7889 65.8938 34.945C65.7047 35.1012 65.5635 35.3075 65.4866 35.5403C65.0404 36.8895 64.1236 37.7605 63.1508 37.7605C62.1781 37.7605 61.2613 36.8895 60.8149 35.5403C60.7377 35.3077 60.5964 35.1015 60.4074 34.9454C60.2184 34.7893 59.9892 34.6897 59.7461 34.6579C59.5031 34.6285 59.2568 34.6673 59.0346 34.7699C58.8124 34.8725 58.6231 35.0349 58.4879 35.239C58.3016 35.5766 58.0362 35.8639 57.7144 36.0763C57.3926 36.2887 57.024 36.4198 56.6404 36.4584C55.2289 36.4584 54.0362 34.6694 54.0362 32.5522C54.0339 31.7974 54.1957 31.0511 54.5105 30.3651C54.6219 30.1262 54.6582 29.8592 54.6148 29.5993C54.5713 29.3394 54.4501 29.0987 54.267 28.9091C52.4755 27.1069 51.4583 24.6765 51.4321 22.1355C51.4321 16.1973 56.1903 11.7188 62.4998 11.7188V9.11467C59.6645 9.08494 56.8839 9.89603 54.5093 11.4455L53.1201 10.0804C53.5016 9.34348 53.6998 8.52544 53.698 7.6956C53.7252 6.37522 53.2279 5.09789 52.315 4.14354C51.4022 3.18918 50.1482 2.63565 48.8279 2.60425C47.7074 2.62152 46.6262 3.01949 45.7619 3.73275C44.8976 4.44601 44.3018 5.43211 44.0722 6.52894C42.9966 6.82574 42.0495 7.4703 41.3787 8.36201C40.708 9.25372 40.3513 10.3424 40.3643 11.4582C40.3371 12.7785 40.8344 14.0559 41.7473 15.0103C42.6601 15.9646 43.9141 16.5182 45.2344 16.5496C46.1402 16.5474 47.0262 16.285 47.7871 15.7936L49.6356 17.5986C49.1005 19.0513 48.827 20.5874 48.8279 22.1355C48.8458 25.0498 49.9018 27.8623 51.8064 30.0682L47.8392 34.1187C47.1026 33.7377 46.285 33.5397 45.4557 33.5414ZM77.1972 36.7433C77.374 36.7368 77.5476 36.6944 77.7074 36.6185C77.8673 36.5426 78.0099 36.435 78.1267 36.302C78.3282 36.0634 78.5789 35.8711 78.8618 35.7385C79.1446 35.6059 79.4528 35.5361 79.7651 35.5339C80.3853 35.5898 80.962 35.8761 81.3815 36.3363C81.801 36.7966 82.0329 37.3973 82.0313 38.02C82.0297 38.6427 81.7948 39.2422 81.3729 39.7003C80.9511 40.1583 80.3729 40.4416 79.7524 40.4944C79.5814 40.4943 79.412 40.528 79.254 40.5934C79.096 40.6588 78.9525 40.7547 78.8316 40.8756C78.7107 40.9966 78.6147 41.1401 78.5493 41.2981C78.4839 41.4561 78.4503 41.6254 78.4503 41.7964C78.4771 42.1117 78.4381 42.4291 78.3356 42.7284C78.2332 43.0278 78.0696 43.3025 77.8552 43.5352C77.6409 43.7679 77.3804 43.9535 77.0905 44.0802C76.8006 44.2068 76.4875 44.2717 76.1711 44.2709C75.8547 44.27 75.5419 44.2033 75.2527 44.075C74.9635 43.9468 74.7041 43.7597 74.4911 43.5258C74.278 43.2919 74.116 43.0162 74.0152 42.7163C73.9144 42.4164 73.8771 42.0988 73.9057 41.7837C73.8997 41.1652 74.1238 40.5665 74.5345 40.104C74.76 39.8541 74.88 39.5266 74.8692 39.1902C74.8584 38.8538 74.7177 38.5346 74.4767 38.2997L73.3225 37.174C73.8913 36.4468 74.3086 35.613 74.5498 34.7217L76.2378 36.3733C76.3629 36.4986 76.513 36.5963 76.6782 36.66C76.8435 36.7238 77.0203 36.7521 77.1972 36.7432V36.7433ZM48.7611 13.1048C48.6338 12.9824 48.4833 12.8867 48.3184 12.8232C48.1535 12.7598 47.9777 12.73 47.8011 12.7354C47.6243 12.7421 47.4507 12.7848 47.291 12.8609C47.1313 12.937 46.9888 13.0449 46.8722 13.178C46.6708 13.4165 46.4201 13.6085 46.1374 13.741C45.8547 13.8735 45.5466 13.9432 45.2344 13.9453C44.6049 13.9139 44.0133 13.6348 43.5888 13.1688C43.1643 12.7029 42.9413 12.0879 42.9685 11.4582C42.9445 10.8284 43.1707 10.2148 43.5976 9.75128C44.0246 9.28777 44.6176 9.01204 45.2472 8.98433C45.5925 8.98433 45.9237 8.84714 46.1679 8.60295C46.4121 8.35877 46.5492 8.02758 46.5492 7.68224C46.5225 7.36702 46.5616 7.04967 46.6642 6.75038C46.7667 6.45109 46.9303 6.1764 47.1447 5.94375C47.3591 5.71111 47.6195 5.5256 47.9094 5.39902C48.1994 5.27244 48.5125 5.20756 48.8288 5.20849C49.1452 5.20942 49.4579 5.27614 49.7471 5.40443C50.0363 5.53271 50.2956 5.71974 50.5086 5.95364C50.7216 6.18754 50.8836 6.4632 50.9844 6.76308C51.0851 7.06297 51.1224 7.38054 51.0938 7.6956C51.0995 8.31426 50.8755 8.91304 50.465 9.37597C50.2401 9.6252 50.1203 9.95169 50.1305 10.2872C50.1406 10.6228 50.2801 10.9414 50.5197 11.1765L52.4867 13.109C51.8724 13.7295 51.3247 14.4127 50.8526 15.1474L48.7611 13.1048ZM48.9379 36.7191L51.5782 34.0237C51.7513 34.9652 52.1108 35.8625 52.6355 36.6631L50.8643 38.4789C50.741 38.6055 50.6446 38.756 50.5812 38.921C50.5178 39.086 50.4887 39.2623 50.4956 39.4389C50.5025 39.6156 50.5453 39.789 50.6214 39.9486C50.6974 40.1082 50.8052 40.2506 50.9381 40.3672C51.1766 40.5687 51.3686 40.8194 51.5011 41.1021C51.6335 41.3848 51.7033 41.6928 51.7055 42.005C51.6495 42.6252 51.3632 43.202 50.9029 43.6215C50.4427 44.041 49.8419 44.2729 49.2191 44.2713C48.5964 44.2697 47.9968 44.0348 47.5387 43.6129C47.0806 43.191 46.7972 42.6128 46.7444 41.9923C46.7445 41.8213 46.7108 41.6519 46.6454 41.4939C46.58 41.3359 46.4841 41.1924 46.3632 41.0715C46.2422 40.9505 46.0987 40.8546 45.9407 40.7892C45.7827 40.7238 45.6133 40.6901 45.4423 40.6902C45.1271 40.7169 44.8098 40.6778 44.5105 40.5753C44.2112 40.4728 43.9365 40.3091 43.7039 40.0947C43.4712 39.8804 43.2857 39.6199 43.1591 39.33C43.0325 39.0401 42.9677 38.727 42.9686 38.4106C42.9695 38.0943 43.0362 37.7815 43.1645 37.4924C43.2928 37.2032 43.4798 36.9438 43.7137 36.7308C43.9476 36.5178 44.2233 36.3558 44.5232 36.255C44.8231 36.1543 45.1406 36.117 45.4557 36.1456C46.0744 36.1401 46.6732 36.3644 47.1361 36.775C47.3854 37.0004 47.7123 37.1204 48.0482 37.11C48.3842 37.0995 48.703 36.9594 48.9379 36.7191Z" fill="black"/>
<path d="M92.4482 67.7084H77.8131C76.1697 67.7065 74.5942 67.0528 73.4322 65.8907C72.2702 64.7285 71.6166 63.153 71.6149 61.5096V55.9897H75.5211C75.7911 55.9898 76.0543 55.906 76.2745 55.7499C76.4947 55.5938 76.661 55.3731 76.7503 55.1184C76.8396 54.8637 76.8475 54.5875 76.773 54.3281C76.6985 54.0687 76.5452 53.8388 76.3343 53.6703L63.3135 43.2537C63.0824 43.0697 62.7957 42.9695 62.5003 42.9695C62.2049 42.9695 61.9183 43.0697 61.6872 43.2537L48.6663 53.6703C48.4555 53.8388 48.3022 54.0687 48.2277 54.3281C48.1531 54.5875 48.1611 54.8637 48.2504 55.1184C48.3397 55.3731 48.5059 55.5938 48.7261 55.7499C48.9463 55.9059 49.2096 55.9898 49.4795 55.9897H53.3857V61.5096C53.384 63.153 52.7304 64.7285 51.5684 65.8907C50.4064 67.0528 48.8309 67.7065 47.1875 67.7084H29.9482V70.3126H47.1875C49.5213 70.3098 51.7587 69.3814 53.4089 67.7311C55.059 66.0808 55.9873 63.8433 55.9899 61.5096V54.6876C55.9899 54.5166 55.9563 54.3473 55.8909 54.1893C55.8255 54.0313 55.7295 53.8877 55.6086 53.7668C55.4877 53.6459 55.3442 53.55 55.1862 53.4845C55.0282 53.4191 54.8588 53.3855 54.6878 53.3855H53.1912L62.5003 45.9379L71.8094 53.3855H70.3128C70.1418 53.3855 69.9725 53.4191 69.8145 53.4845C69.6565 53.55 69.5129 53.6459 69.392 53.7668C69.2711 53.8877 69.1752 54.0313 69.1098 54.1893C69.0443 54.3473 69.0107 54.5166 69.0107 54.6876V61.5096C69.0134 63.8433 69.9416 66.0808 71.5918 67.7311C73.242 69.3814 75.4793 70.3098 77.8131 70.3126H92.4482V67.7084Z" fill="black"/>
<path d="M69.0104 10.4167H66.4062V13.0209H69.0104V10.4167Z" fill="black"/>
<path d="M67.7087 5.20825H65.1045V7.81242H67.7087V5.20825Z" fill="black"/>
<path d="M72.9167 6.5105H70.3125V9.11467H72.9167V6.5105Z" fill="black"/>
<path d="M76.8229 10.4167H74.2188V13.0209H76.8229V10.4167Z" fill="black"/>
<path d="M84.6354 16.927H82.0312V19.5312H84.6354V16.927Z" fill="black"/>
<path d="M83.3337 11.7188H80.7295V14.3229H83.3337V11.7188Z" fill="black"/>
<path d="M92.4479 13.0208H89.8438V15.6249H92.4479V13.0208Z" fill="black"/>
<path d="M96.3542 16.927H93.75V19.5312H96.3542V16.927Z" fill="black"/>
<path d="M78.1247 15.625H75.5205V18.2292H78.1247V15.625Z" fill="black"/>
<path d="M82.0309 5.20825H79.4268V7.81242H82.0309V5.20825Z" fill="black"/>
<path d="M75.5212 2.60425H72.917V5.20841H75.5212V2.60425Z" fill="black"/>
<path d="M98.9587 6.5105H96.3545V9.11467H98.9587V6.5105Z" fill="black"/>
<path d="M104.167 10.4167H101.562V13.0209H104.167V10.4167Z" fill="black"/>
<path d="M106.771 2.60425H104.167V5.20841H106.771V2.60425Z" fill="black"/>
<path d="M88.5417 7.8125H85.9375V10.4167H88.5417V7.8125Z" fill="black"/>
<path d="M85.9372 2.60425H83.333V5.20841H85.9372V2.60425Z" fill="black"/>
<path d="M117.187 3.90625H114.583V6.51042H117.187V3.90625Z" fill="black"/>
<path d="M122.396 2.60425H119.792V5.20841H122.396V2.60425Z" fill="black"/>
<path d="M61.1976 59.8563V52.0833H58.5935V59.8563C58.6076 63.9331 57.4789 67.9323 55.3356 71.4003C53.1922 74.8682 50.1199 77.6661 46.4672 79.4766L41.084 82.1685L42.2488 84.498L47.6319 81.8061C51.7182 79.7804 55.1551 76.6503 57.5528 72.7706C59.9506 68.891 61.2132 64.4171 61.1976 59.8563Z" fill="black"/>
<path d="M63.8019 52.0833V59.8563C63.7863 64.4171 65.049 68.891 67.4467 72.7706C69.8445 76.6503 73.2813 79.7804 77.3676 81.8061L82.7508 84.498L83.9155 82.1685L78.5324 79.4766C74.8796 77.6661 71.8073 74.8682 69.6639 71.4003C67.5206 67.9323 66.392 63.9331 66.4061 59.8563V52.0833H63.8019Z" fill="black"/>
<path d="M111.979 7.8125H109.375V10.4167H111.979V7.8125Z" fill="black"/>
</svg>
