<svg width="125" height="125" viewBox="0 0 125 125" fill="none" xmlns="http://www.w3.org/2000/svg">
<path d="M48.5 95.5L43 98.5L39.5 103L38 109.5L40 115.5L45 121L52.5 123.5L61 122L66.5 117.5L69.5 112V106L66 100L60 96L54 94.5L48.5 95.5Z" fill="#E2E2E2"/>
<path d="M32.5 78.5L29.5 81C29.6667 82.3333 30 85.1 30 85.5V88V92L32 94.5V97.5C32 97.9 32.6667 99.6667 33 100.5C34 101 36.1 102 36.5 102C36.9 102 38.6667 102.667 39.5 103L41.5 101L48 96L47.5 94L45 90.5L45.5 87.5L41 83.5L38 79L32.5 78.5Z" fill="#E2E2E2"/>
<path d="M69 84L63.5 96.5C64.8333 96.5 67.8 96.6 69 97C70.5 97.5 71.5 97.5 72 98C72.4 98.4 75.1667 98.1667 76.5 98L80 96.5L87 85L86.5 80.5L79.5 76L73.5 77L69 84Z" fill="#E2E2E2"/>
<path d="M70 122.5L65.5 120L66 117.5L69.5 111L68 104L64.5 97L65.5 96.5H68.5C68.9 96.5 71.3333 97.1667 72.5 97.5L75.5 98.5L79.5 97H84L88.5 99.5L90.5 104L90 109.5L88 115.5L82.5 122L78.5 122.5L74.5 121.5L70 122.5Z" fill="#E2E2E2"/>
<path d="M6.06192 51.7514L8.65973 52.4075L15.0303 55.5864C17.7913 56.9646 20.834 57.6845 23.9198 57.6896H39.4722L61.2256 79.4435C61.3465 79.5644 61.49 79.6604 61.648 79.7258C61.806 79.7913 61.9753 79.825 62.1462 79.825C62.3172 79.825 62.4865 79.7913 62.6445 79.7258C62.8025 79.6604 62.946 79.5644 63.0669 79.4435L84.8203 57.6896H101.085C104.17 57.6856 107.212 56.9675 109.972 55.5915L116.34 52.4075L118.941 51.7578C119.929 51.5115 120.805 50.942 121.431 50.1398C122.058 49.3376 122.397 48.349 122.396 47.3314V18.6271C122.396 18.4753 122.37 18.3247 122.318 18.182L117.11 3.85912C117.032 3.64539 116.899 3.45578 116.726 3.3092C116.552 3.16262 116.342 3.06418 116.118 3.0237L105.409 1.07693C104.78 0.962442 104.133 0.98762 103.515 1.15068C102.896 1.31374 102.321 1.6107 101.83 2.02057C101.339 2.43043 100.944 2.94319 100.672 3.52259C100.401 4.10198 100.261 4.73387 100.261 5.37356V9.05093C100.262 10.2089 100.723 11.3191 101.542 12.138C102.36 12.9568 103.471 13.4174 104.629 13.4188H109.873L111.688 17.0491C111.738 17.1486 111.765 17.2579 111.769 17.3692C111.772 17.4806 111.751 17.5913 111.707 17.6938L108.453 25.2863C108.164 25.9636 108.104 26.7167 108.281 27.4314L109.97 34.1885C110.001 34.3102 110.002 34.4377 109.971 34.5595C109.941 34.6813 109.881 34.7937 109.796 34.8866C109.713 34.9814 109.607 35.0537 109.489 35.0966C109.37 35.1395 109.243 35.1517 109.118 35.132C105.685 34.6413 102.191 35.4367 99.3088 37.3652C99.4633 36.3601 99.5447 35.3452 99.5525 34.3284C99.5523 30.2079 98.3304 26.1801 96.0411 22.7541C93.7519 19.3282 90.4981 16.658 86.6913 15.0812C82.8845 13.5044 78.6956 13.0919 74.6544 13.8957C70.6131 14.6996 66.901 16.6837 63.9874 19.5973L62.1462 21.4385L60.3043 19.5973C57.3908 16.6838 53.6787 14.6998 49.6375 13.896C45.5963 13.0922 41.4075 13.5047 37.6008 15.0815C33.7941 16.6583 30.5404 19.3284 28.2512 22.7543C25.962 26.1802 24.7401 30.208 24.74 34.3284C24.7455 35.1743 24.8019 36.0192 24.9088 36.8584C22.1887 35.2874 19.0182 34.68 15.9102 35.1345L15.7684 35.1511C15.6524 35.1478 15.5385 35.1188 15.435 35.0662C15.3315 35.0136 15.241 34.9387 15.1701 34.8468C15.0991 34.7549 15.0494 34.6485 15.0245 34.5351C14.9997 34.4217 15.0004 34.3042 15.0265 34.1911L16.7234 27.4148C16.8983 26.7056 16.8369 25.9587 16.5485 25.2875L13.2978 17.7065C13.2528 17.6021 13.2309 17.4891 13.2336 17.3754C13.2364 17.2617 13.2637 17.15 13.3137 17.0478L15.1282 13.4188H20.3778C21.5342 13.4174 22.6429 12.9575 23.4607 12.1399C24.2784 11.3223 24.7385 10.2137 24.74 9.05728V5.37228C24.7398 4.7318 24.599 4.09915 24.3275 3.51908C24.056 2.939 23.6603 2.42565 23.1685 2.01532C22.6768 1.60498 22.1008 1.30769 21.4815 1.14444C20.8622 0.981186 20.2145 0.955972 19.5844 1.07058L8.88098 3.0237C8.6574 3.0644 8.44838 3.16294 8.27471 3.30951C8.10104 3.45608 7.96877 3.64556 7.89107 3.85912L2.68274 18.182C2.63113 18.3247 2.60467 18.4753 2.60453 18.6271V47.3378C2.60021 48.3551 2.93914 49.3442 3.56653 50.1451C4.19392 50.9461 5.0731 51.512 6.06192 51.7514ZM99.2607 40.6824C100.52 39.509 102.026 38.6329 103.668 38.1186C105.311 37.6043 107.048 37.4649 108.751 37.7107C109.298 37.7885 109.856 37.7307 110.375 37.5425C110.894 37.3542 111.359 37.0413 111.729 36.6311C112.099 36.2209 112.363 35.7261 112.497 35.1902C112.63 34.6543 112.631 34.0938 112.497 33.5578L110.808 26.7994C110.767 26.6368 110.781 26.4654 110.847 26.3112L114.1 18.7199C114.294 18.2697 114.387 17.7827 114.372 17.2929C114.358 16.8031 114.237 16.3224 114.017 15.8843L111.842 11.5343C111.734 11.318 111.568 11.1361 111.362 11.009C111.156 10.8819 110.919 10.8145 110.677 10.8146H104.629C104.161 10.8141 103.713 10.6282 103.382 10.2975C103.051 9.96688 102.865 9.51854 102.865 9.05093V5.37356C102.865 5.1152 102.922 4.85999 103.031 4.62596C103.14 4.39194 103.3 4.18482 103.498 4.01925C103.697 3.85367 103.929 3.7337 104.179 3.6678C104.429 3.6019 104.69 3.59168 104.944 3.63788L114.917 5.45114L119.792 18.856V47.3314C119.792 47.7683 119.647 48.1927 119.378 48.5372C119.109 48.8817 118.733 49.1264 118.309 49.2324L115.57 49.9165C115.478 49.9396 115.389 49.9724 115.303 50.0145L108.808 53.262C106.409 54.4581 103.766 55.0822 101.085 55.0854H87.4245L93.4503 49.0595C95.5465 46.9618 97.1687 44.439 98.2074 41.6613L99.2607 40.6824ZM32.6834 21.4385C36.1048 18.0251 40.7404 16.1081 45.5733 16.1081C50.4062 16.1081 55.0418 18.0251 58.4631 21.4385L61.2256 24.2004C61.3465 24.3213 61.49 24.4172 61.648 24.4827C61.806 24.5481 61.9753 24.5818 62.1462 24.5818C62.3172 24.5818 62.4865 24.5481 62.6445 24.4827C62.8025 24.4172 62.946 24.3213 63.0669 24.2004L65.8287 21.4385C67.521 19.7438 69.5306 18.3992 71.7428 17.4815C73.955 16.5639 76.3263 16.0911 78.7213 16.0902C81.1162 16.0894 83.4879 16.5604 85.7007 17.4766C87.9135 18.3927 89.9241 19.7358 91.6176 21.4293C93.3112 23.1228 94.6544 25.1333 95.5705 27.3461C96.4867 29.5589 96.9578 31.9306 96.957 34.3255C96.9562 36.7205 96.4835 39.0918 95.5659 41.304C94.6483 43.5162 93.3037 45.5259 91.6091 47.2182L62.1462 76.6817L32.6834 47.2182C30.9907 45.5255 29.6479 43.516 28.7318 41.3043C27.8156 39.0927 27.3441 36.7222 27.3441 34.3284C27.3441 31.9345 27.8156 29.564 28.7318 27.3524C29.6479 25.1407 30.9907 23.1312 32.6834 21.4385V21.4385ZM5.2087 18.856L10.0832 5.45112L20.0479 3.63279C20.3029 3.58616 20.565 3.59612 20.8158 3.66199C21.0665 3.72785 21.2997 3.848 21.4989 4.01394C21.6981 4.17988 21.8584 4.38755 21.9684 4.62228C22.0785 4.857 22.1356 5.11304 22.1358 5.37228V9.05728C22.1352 9.52328 21.9498 9.97002 21.6202 10.2995C21.2906 10.6289 20.8438 10.8142 20.3778 10.8146H14.3233C14.0815 10.8145 13.8444 10.8818 13.6387 11.009C13.4329 11.1361 13.2667 11.318 13.1585 11.5343L10.9842 15.883C10.7658 16.3224 10.6453 16.8038 10.6308 17.2942C10.6163 17.7846 10.7082 18.2723 10.9002 18.7237L14.1592 26.3226C14.2218 26.4737 14.2337 26.641 14.1929 26.7994L12.4992 33.5616C12.3776 34.0586 12.37 34.5767 12.4772 35.077C12.5844 35.5772 12.8035 36.0468 13.1181 36.4503C13.4326 36.8538 13.8345 37.1808 14.2935 37.4068C14.7525 37.6329 15.2568 37.752 15.7684 37.7552C15.9315 37.7529 16.0942 37.7393 16.2554 37.7146C17.957 37.4669 19.6926 37.6051 21.3335 38.119C22.9745 38.6329 24.4789 39.5093 25.7353 40.6833C26.7427 43.8438 28.494 46.7164 30.8422 49.0594L36.868 55.0854H23.9198C21.2378 55.0808 18.5933 54.4549 16.1938 53.2569L9.69606 50.0144C9.61238 49.9722 9.52433 49.9394 9.43348 49.9165L6.68499 49.2222C6.26256 49.1204 5.88691 48.8789 5.61895 48.5369C5.35098 48.1948 5.20642 47.7723 5.2087 47.3378V18.856Z" fill="black"/>
<path d="M49.4798 34.2521C50.1702 34.2529 50.8322 34.5275 51.3204 35.0157C51.8086 35.5039 52.0832 36.1659 52.084 36.8563H54.6882C54.6882 35.4749 54.1394 34.1502 53.1627 33.1734C52.1859 32.1967 50.8612 31.6479 49.4798 31.6479C48.0985 31.6479 46.7737 32.1967 45.797 33.1734C44.8202 34.1502 44.2715 35.4749 44.2715 36.8563H46.8757C46.8764 36.1659 47.1511 35.5039 47.6393 35.0157C48.1275 34.5275 48.7894 34.2529 49.4798 34.2521Z" fill="black"/>
<path d="M75.5208 34.2521C76.2113 34.2529 76.8732 34.5275 77.3614 35.0157C77.8496 35.5039 78.1242 36.1659 78.125 36.8563H80.7292C80.7292 35.4749 80.1804 34.1502 79.2037 33.1734C78.2269 32.1967 76.9022 31.6479 75.5208 31.6479C74.1395 31.6479 72.8147 32.1967 71.838 33.1734C70.8612 34.1502 70.3125 35.4749 70.3125 36.8563H72.9167C72.9175 36.1659 73.1921 35.5039 73.6803 35.0157C74.1685 34.5275 74.8304 34.2529 75.5208 34.2521Z" fill="black"/>
<path d="M62.5001 58.9917C66.9163 58.9917 70.7424 55.2483 71.5969 50.0895L69.0283 49.6648C68.3824 53.5596 65.6371 56.3876 62.5001 56.3876C59.3632 56.3876 56.6178 53.5596 55.9719 49.6648L53.4033 50.0895C54.2578 55.2483 58.084 58.9917 62.5001 58.9917Z" fill="black"/>
<path d="M82.2087 0H79.6045V2.60417H82.2087V0Z" fill="black"/>
<path d="M82.2087 5.20825H79.6045V7.81242H82.2087V5.20825Z" fill="black"/>
<path d="M84.8122 2.604H82.208V5.20817H84.8122V2.604Z" fill="black"/>
<path d="M79.6042 2.604H77V5.20817H79.6042V2.604Z" fill="black"/>
<path d="M7.81217 114.583H5.20801V117.188H7.81217V114.583Z" fill="black"/>
<path d="M7.81217 119.792H5.20801V122.396H7.81217V119.792Z" fill="black"/>
<path d="M10.4167 117.188H7.8125V119.792H10.4167V117.188Z" fill="black"/>
<path d="M5.20866 117.188H2.60449V119.792H5.20866V117.188Z" fill="black"/>
<path d="M119.792 114.583H117.188V117.188H119.792V114.583Z" fill="black"/>
<path d="M119.792 119.792H117.188V122.396H119.792V119.792Z" fill="black"/>
<path d="M122.396 117.188H119.792V119.792H122.396V117.188Z" fill="black"/>
<path d="M117.187 117.188H114.583V119.792H117.187V117.188Z" fill="black"/>
<path d="M89.0281 69.4266L86.7672 68.1347L84.935 71.3411L82.4286 68L80.3458 69.5615L83.5277 73.804L82.4872 75.6249C81.4433 75.0191 80.2855 74.6357 79.0864 74.4986C77.8873 74.3616 76.6728 74.4739 75.5192 74.8284C74.3655 75.183 73.2976 75.7722 72.3825 76.5591C71.4674 77.3459 70.7247 78.3134 70.2013 79.4009L62.4084 95.5789C60.2183 94.4298 57.813 93.7495 55.3455 93.5812V89.614H52.7414V93.5812C51.5288 93.6633 50.3277 93.8674 49.156 94.1904C49.0981 93.8673 49.0135 93.5496 48.9032 93.2405C48.4263 91.9446 47.5423 90.8382 46.3836 90.0871C46.7962 88.7731 46.7706 87.3606 46.3104 86.0625C45.929 85.0716 45.3209 84.1838 44.5347 83.4701C43.7485 82.7565 42.8061 82.2368 41.783 81.9528C41.7532 81.8549 41.7214 81.757 41.6864 81.6578C41.0856 79.8283 39.7859 78.3105 38.0707 77.4352C36.3555 76.5598 34.3639 76.398 32.5299 76.9848C31.6446 77.3097 30.8368 77.8158 30.1583 78.4707C29.4798 79.1256 28.9454 79.9149 28.5893 80.7881C27.8423 82.5851 27.8041 84.5984 28.4825 86.4224C28.6075 86.7677 28.7566 87.1038 28.9288 87.4282C28.1676 88.9984 28.0593 90.8061 28.6275 92.456C29.1051 93.7477 29.9901 94.8488 31.1489 95.5929C30.7442 96.9064 30.7682 98.3147 31.2176 99.6136C31.7895 100.948 32.7396 102.085 33.9505 102.886C35.1614 103.686 36.5802 104.115 38.0318 104.118C37.4306 105.726 37.1206 107.429 37.1164 109.145C37.1164 117.761 44.7095 124.77 54.0435 124.77C57.8778 124.788 61.6144 123.561 64.6927 121.275C67.1291 123.537 69.7406 124.467 72.1321 123.888C73.1079 123.654 74.0363 123.254 74.8768 122.705C75.716 123.253 76.6431 123.653 77.6177 123.887C78.0954 124.003 78.5852 124.062 79.0768 124.062C84.7105 124.062 89.7707 116.407 91.294 110.488C91.7955 108.706 91.9404 106.843 91.7202 105.005C91.5 103.167 90.9192 101.391 90.011 99.7776C89.3765 98.6773 88.5278 97.7154 87.515 96.9487C86.5023 96.1821 85.346 95.6264 84.1148 95.3145C83.4771 95.1668 82.8252 95.0893 82.1708 95.0832L86.5167 89.2898C87.2111 88.3648 87.7154 87.3114 88.0007 86.1905C88.2859 85.0696 88.3464 83.9033 88.1786 82.7588C88.0108 81.6144 87.6181 80.5146 87.0231 79.5227C86.4282 78.5308 85.6427 77.6665 84.712 76.9798L85.6769 75.2911H91.8039V72.6869H87.1651L89.0281 69.4266ZM33.6685 98.735C33.5019 98.2155 33.4401 97.668 33.487 97.1245C33.5338 96.5809 33.6882 96.0521 33.9413 95.5688C34.0162 95.4126 34.0593 95.2431 34.068 95.0701C34.0767 94.8971 34.0509 94.7241 33.992 94.5612C33.9331 94.3983 33.8423 94.2488 33.725 94.1214C33.6077 93.994 33.4661 93.8912 33.3087 93.8191C32.8053 93.6108 32.3486 93.3042 31.9651 92.9173C31.5816 92.5305 31.279 92.071 31.0752 91.5659C30.8911 90.9784 30.8375 90.3578 30.9181 89.7475C30.9987 89.1371 31.2116 88.5517 31.5418 88.0322C31.6592 87.8264 31.7182 87.5925 31.7125 87.3556C31.7068 87.1188 31.6366 86.888 31.5094 86.6881C31.2742 86.3265 31.0801 85.9396 30.9308 85.5348C30.4771 84.327 30.4978 82.9922 30.9887 81.799C31.2067 81.2577 31.5352 80.7678 31.9531 80.3606C32.3711 79.9533 32.8693 79.6377 33.4161 79.4338C34.598 79.0802 35.8717 79.207 36.9607 79.7867C38.0498 80.3664 38.8662 81.3522 39.2329 82.5301C39.3166 82.7746 39.3842 83.0244 39.4351 83.2778C39.4864 83.5234 39.6076 83.7489 39.784 83.9273C39.9603 84.1057 40.1845 84.2294 40.4294 84.2836C41.1815 84.398 41.8918 84.7029 42.4926 85.1695C43.0935 85.636 43.5649 86.2485 43.862 86.9488C44.0322 87.4642 44.0959 88.0088 44.0492 88.5496C44.0026 89.0904 43.8465 89.616 43.5906 90.0946C43.514 90.2508 43.4695 90.4207 43.4596 90.5944C43.4498 90.7681 43.4749 90.9419 43.5334 91.1057C43.5919 91.2696 43.6826 91.42 43.8002 91.5481C43.9178 91.6763 44.0599 91.7796 44.2181 91.8519C44.7244 92.0615 45.1834 92.371 45.5676 92.7618C45.9518 93.1527 46.2533 93.6169 46.4541 94.1268C46.566 94.4446 46.6297 94.7774 46.6433 95.1141C45.3499 95.694 44.1335 96.4321 43.0217 97.3113C42.5678 95.4807 41.941 93.6975 41.1498 91.9855C40.3423 90.2428 39.4401 88.5458 38.4471 86.9018L36.4291 83.6199L34.2103 84.983L36.2218 88.2547C37.1642 89.8154 38.0208 91.4264 38.7879 93.0803C39.7175 95.1034 40.3997 97.2312 40.8197 99.4176C40.2506 100.074 39.737 100.777 39.2844 101.518C36.6102 101.7 34.3479 100.615 33.6685 98.735ZM39.7205 109.145C39.7205 102.366 45.4524 96.7853 52.7414 96.1845V98.4467C52.0711 98.2947 51.4336 98.0232 50.8595 97.6452L49.415 99.8119C50.7847 100.728 52.3956 101.217 54.0435 101.217C55.6913 101.217 57.3022 100.728 58.672 99.8119L57.2275 97.6453C56.6534 98.0232 56.0159 98.2947 55.3455 98.4467V96.1845C62.6345 96.7853 68.3664 102.366 68.3664 109.145C68.3664 116.325 61.9412 122.166 54.0435 122.166C46.1458 122.166 39.7205 116.325 39.7205 109.145ZM87.7787 101.12C88.5092 102.437 88.973 103.884 89.1435 105.38C89.314 106.875 89.1879 108.39 88.7725 109.837C87.2282 115.835 82.1819 122.3 78.2255 121.355C77.2977 121.127 76.4332 120.694 75.6963 120.086C75.4644 119.898 75.1751 119.796 74.8768 119.796C74.5785 119.796 74.2892 119.898 74.0573 120.086C73.3191 120.695 72.453 121.129 71.5237 121.356C69.6977 121.792 67.9021 120.653 66.6492 119.537C68.0832 118.107 69.2063 116.396 69.9482 114.511C70.6901 112.627 71.0349 110.609 70.9607 108.585C70.8866 106.561 70.3953 104.574 69.5176 102.749C68.6398 100.924 67.3946 99.2996 65.8599 97.978C65.9912 97.9368 66.1167 97.8775 66.2505 97.8449C67.6649 97.5844 69.1233 97.71 70.4724 98.2083C71.8215 98.7066 73.0113 99.5593 73.9168 100.677C74.0418 100.805 74.1911 100.906 74.3559 100.976C74.5208 101.045 74.6979 101.081 74.8768 101.081C75.0557 101.081 75.2328 101.045 75.3977 100.976C75.5625 100.906 75.7118 100.805 75.8368 100.677C76.7427 99.5592 77.933 98.7065 79.2826 98.2084C80.6321 97.7103 82.091 97.5851 83.5056 97.8462C84.4026 98.0738 85.244 98.4814 85.9786 99.0443C86.7131 99.6072 87.3256 100.314 87.7787 101.12ZM85.5446 82.8086C85.7172 83.6603 85.7075 84.539 85.5162 85.3867C85.3249 86.2344 84.9562 87.032 84.4345 87.727L78.3945 95.7791C77.6894 96.062 77.0147 96.4154 76.3806 96.8339C76.5453 95.9819 76.823 95.1557 77.2063 94.3773L77.3436 94.1026L75.0141 92.9379L74.8768 93.2126C74.2802 94.418 73.884 95.7126 73.7037 97.0454C72.5617 96.1959 71.2505 95.6017 69.8588 95.303C68.4672 95.0044 67.0276 95.0083 65.6376 95.3145C65.5506 95.3355 65.4705 95.3768 65.3842 95.4004L69.1605 87.5608L72.9923 89.4767L74.1571 87.1471L70.291 85.214L71.6879 82.314L78.2007 85.5704L79.3654 83.2409L72.8751 79.9958C73.7036 78.6169 75.0437 77.6215 76.6031 77.2266C78.1625 76.8317 79.8148 77.0693 81.1997 77.8876L82.608 78.7078C83.3591 79.1454 84.0091 79.7371 84.5152 80.4439C85.0213 81.1507 85.3722 81.9566 85.5446 82.8086Z" fill="black"/>
<path d="M118.266 84.5985C118.549 84.5291 118.8 84.3667 118.98 84.1373C119.16 83.9079 119.258 83.6248 119.258 83.3333C119.258 83.0418 119.16 82.7587 118.98 82.5293C118.8 82.2999 118.549 82.1375 118.266 82.0681C114.609 81.1742 114.14 80.7037 113.244 77.0467C113.175 76.7638 113.012 76.5123 112.783 76.3325C112.554 76.1527 112.271 76.0549 111.98 76.0549C111.688 76.0549 111.405 76.1527 111.176 76.3325C110.947 76.5123 110.784 76.7638 110.715 77.0467C109.819 80.7037 109.35 81.1742 105.694 82.0681C105.41 82.1375 105.159 82.2999 104.979 82.5293C104.799 82.7587 104.701 83.0418 104.701 83.3333C104.701 83.6248 104.799 83.9079 104.979 84.1373C105.159 84.3667 105.41 84.5291 105.694 84.5985C109.35 85.4924 109.819 85.9629 110.715 89.6199C110.784 89.9029 110.947 90.1544 111.176 90.3342C111.405 90.514 111.688 90.6117 111.98 90.6117C112.271 90.6117 112.554 90.514 112.783 90.3342C113.012 90.1544 113.175 89.9029 113.244 89.6199C114.14 85.9629 114.609 85.4924 118.266 84.5985ZM111.98 85.4098C111.5 84.5339 110.779 83.8135 109.904 83.3333C110.779 82.8532 111.5 82.1327 111.98 81.2569C112.459 82.1327 113.18 82.8532 114.055 83.3333C113.18 83.8135 112.459 84.5339 111.98 85.4098Z" fill="black"/>
<path d="M13.543 59.9918C13.4736 59.7088 13.3112 59.4573 13.082 59.2775C12.8527 59.0977 12.5698 59 12.2784 59C11.9871 59 11.7041 59.0977 11.4749 59.2775C11.2456 59.4573 11.0833 59.7088 11.0139 59.9918C10.118 63.6488 9.64882 64.1193 5.99243 65.0132C5.7093 65.0826 5.45763 65.245 5.27771 65.4744C5.09779 65.7038 5 65.9869 5 66.2784C5 66.5699 5.09779 66.853 5.27771 67.0824C5.45763 67.3118 5.7093 67.4742 5.99243 67.5436C9.64882 68.4375 10.118 68.908 11.0139 72.565C11.0833 72.848 11.2456 73.0995 11.4749 73.2793C11.7041 73.4591 11.9871 73.5568 12.2784 73.5568C12.5698 73.5568 12.8527 73.4591 13.082 73.2793C13.3112 73.0995 13.4736 72.848 13.543 72.565C14.4388 68.908 14.908 68.4375 18.5644 67.5436C18.8475 67.4742 19.0992 67.3118 19.2791 67.0824C19.4591 66.853 19.5568 66.5699 19.5568 66.2784C19.5568 65.9869 19.4591 65.7038 19.2791 65.4744C19.0992 65.245 18.8475 65.0826 18.5644 65.0132C14.908 64.1193 14.4388 63.6488 13.543 59.9918ZM12.2784 68.3549C11.7985 67.479 11.0783 66.7586 10.2026 66.2784C11.0783 65.7983 11.7985 65.0778 12.2784 64.2019C12.7583 65.0778 13.4785 65.7983 14.3543 66.2784C13.4785 66.7586 12.7583 67.479 12.2784 68.3549Z" fill="black"/>
</svg>
