<svg width="125" height="125" viewBox="0 0 125 125" fill="none" xmlns="http://www.w3.org/2000/svg">
<path d="M85.4996 60.5L82.4996 57.5L80.4996 54.5L80.4995 54C79.1662 53.3333 76.1995 52 74.9995 52C73.4995 52 73.4995 52 72.9995 52.5C72.4995 53 71.9995 53 70.9995 55C69.9995 57 70.4995 56 70.4995 57.5C70.4995 59 70.9995 59 70.9995 60.5C70.9995 62 70.9996 61.5 70.4996 62.5C69.9996 63.5 70.4996 64 70.4996 65C70.4996 66 70.9996 66.5 71.4996 67.5C71.9996 68.5 72.4996 68.5 72.9996 69C73.4996 69.5 72.9996 69.5 72.9996 70.5V72.5C72.9996 73.5 72.9996 73.5 73.4996 74.5C73.9996 75.5 73.9996 75.5 74.4996 76C74.9996 76.5 76.9996 77 77.9996 77C78.9996 77 80.9996 77 81.4996 76.5C81.9996 76 83.9996 75.5 84.4996 75.5C84.8996 75.5 86.6662 73.5 87.4996 72.5V69L85.9996 66V63.5L85.4996 60.5Z" fill="#E2E2E2"/>
<path d="M77.4994 81L82.4994 81.5C82.9994 81.3333 84.0994 80.9999 84.4994 80.9999H84.4997C84.9998 80.9999 85.9997 80.9999 87.4994 80.5C88.9994 80 89.4994 81 89.9994 81C90.4994 81 90.9994 81.5 91.4994 82.5C91.9994 83.5 92.4994 83.5 92.9994 84.5C93.3994 85.3 93.4994 85.8333 93.4994 86V89.5L91.9994 94H76.4994L75.9994 93C75.8327 92.6667 75.3994 91.7 74.9994 90.5C74.4994 89.0001 74.4994 89 73.9995 88.0002L73.9994 88C73.4994 87 74.4994 86 74.4994 85.5C74.4994 85.1 75.4994 83.6667 75.9994 83L77.4994 81Z" fill="#E2E2E2"/>
<path d="M91.5001 93.5H100.5L100.5 90C100.5 89 100.5 88.5 101 87.5C101.5 86.5 101 87 101.5 85.5C102 84 101.5 84 102 83.5C102.5 83 102 82.5 102.5 81C103 79.5 102.5 79.5 103 78.5C103.5 77.5 103 77 103 75.5C103 74 103.5 74.5 103.5 73.5C103.5 72.5 104 71.5 104 70.5V69.5C103.667 69 102.9 68 102.5 68C102 68 101 67.5 100.5 67.5H98.5001C98.0001 67.5 96.5001 67 96.0001 67H92.0001C90.5001 67 91.5001 67 91.0001 67.5L90.0001 68.5C89.5001 69 90.0001 69 89.5001 70C89.0001 71 89.5001 71 89.5001 72V74.5V78C89.5001 79.4999 89.5001 79.5 89.0002 80.4998L89.0001 80.5C88.6001 81.3 89.5001 81.5 90.0001 81.5L92.0001 83.5C93.0001 84.5 92.5001 84 93.0001 85C93.5001 86 93.5001 86.5 93.5001 87V90L91.5001 93.5Z" fill="#E2E2E2"/>
<path d="M117.5 86L113 81.5C111.5 81.3334 108.3 81.1 107.5 81.5C106.5 82 105.5 81.5 105 82C104.5 82.5 104 82.5 103.5 83L102 84.5C101.5 85 101.5 86 101 87C100.5 88 100.5 90 100 90C99.6001 90 100.5 92.6667 101 94H118L118.5 91.5L117.5 86Z" fill="#E2E2E2"/>
<path d="M120.001 58L119.501 51.5L116.001 52.5L108.001 58C106.001 60.6667 101.901 66.1 101.501 66.5C101.101 66.9 101.668 67 102.001 67C102.001 67.1667 102.101 67.6 102.501 68L103.501 69C103.901 69.4 104.001 70.1667 104.001 70.5C103.834 71.6667 103.501 74.1 103.501 74.5C103.501 74.9 102.834 80 102.501 82.5L104.001 82L112.001 81L118.501 68.5L120.001 58Z" fill="#E2E2E2"/>
<path d="M112.631 62.5C113.017 62.5 113.395 62.3855 113.716 62.1708C114.037 61.9562 114.287 61.6512 114.435 61.2943C114.583 60.9374 114.622 60.5447 114.546 60.1658C114.471 59.787 114.285 59.439 114.012 59.1658C113.739 58.8927 113.391 58.7066 113.012 58.6313C112.633 58.5559 112.24 58.5946 111.883 58.7424C111.527 58.8903 111.222 59.1406 111.007 59.4618C110.792 59.783 110.678 60.1606 110.678 60.5469C110.678 61.0647 110.884 61.5612 111.25 61.9273C111.617 62.2935 112.113 62.4994 112.631 62.5ZM112.631 59.8958C112.76 59.8958 112.885 59.934 112.993 60.0056C113.1 60.0771 113.183 60.1788 113.232 60.2977C113.282 60.4167 113.295 60.5476 113.269 60.6739C113.244 60.8002 113.182 60.9162 113.091 61.0072C113 61.0983 112.884 61.1603 112.758 61.1854C112.632 61.2105 112.501 61.1976 112.382 61.1484C112.263 61.0991 112.161 61.0156 112.09 60.9086C112.018 60.8015 111.98 60.6756 111.98 60.5469C111.98 60.3743 112.049 60.2088 112.171 60.0868C112.293 59.9647 112.458 59.8961 112.631 59.8958Z" fill="black"/>
<path d="M69.8085 61.4039C68.9909 62.9392 68.8157 64.7362 69.3216 66.4005C69.754 67.7085 70.5962 68.8423 71.7235 69.6341C71.264 70.9331 71.2359 72.3456 71.6434 73.6618C71.9895 74.6694 72.5675 75.5816 73.3308 76.3248C74.0942 77.0681 75.0214 77.6215 76.0379 77.9406C77.1058 78.3156 78.2301 78.5042 79.3618 78.4982C80.1214 78.4874 80.8781 78.4006 81.6204 78.2391L81.7183 79.5591C80.8821 79.3993 80.0239 79.3916 79.1851 79.5365C78.2267 79.7032 77.3117 80.0609 76.4943 80.5882C75.6769 81.1155 74.9739 81.8017 74.4269 82.606C73.774 83.5747 73.3192 84.663 73.0887 85.8081C72.8583 86.9533 72.8567 88.1328 73.0841 89.2786C73.3065 90.3719 73.6555 91.4355 74.1242 92.4479H71.6154C71.4444 92.4479 71.2751 92.4815 71.1171 92.5469C70.9591 92.6124 70.8155 92.7083 70.6946 92.8292C70.5737 92.9501 70.4778 93.0937 70.4124 93.2517C70.347 93.4097 70.3133 93.579 70.3134 93.75V98.9583C70.3133 99.1293 70.347 99.2987 70.4124 99.4567C70.4778 99.6147 70.5737 99.7582 70.6946 99.8792C70.8155 100 70.9591 100.096 71.1171 100.161C71.2751 100.227 71.4444 100.26 71.6154 100.26H73.0617L73.9042 107.427C74.3907 111.55 76.3734 115.352 79.4762 118.111C82.5791 120.87 86.5864 122.395 90.7385 122.396H101.972C106.124 122.395 110.131 120.87 113.234 118.111C116.337 115.352 118.319 111.55 118.806 107.426L119.648 100.26H121.095C121.266 100.26 121.435 100.227 121.593 100.161C121.751 100.096 121.895 100 122.015 99.8792C122.136 99.7582 122.232 99.6147 122.298 99.4567C122.363 99.2987 122.397 99.1293 122.397 98.9583V93.75C122.397 93.579 122.363 93.4097 122.298 93.2517C122.232 93.0937 122.136 92.9501 122.015 92.8292C121.895 92.7083 121.751 92.6124 121.593 92.5469C121.435 92.4815 121.266 92.4479 121.095 92.4479H119.451C120.087 90.0328 119.829 87.4694 118.725 85.2293C117.621 82.9891 115.745 81.223 113.443 80.2558L118.632 70.4149C118.731 70.2006 118.831 69.9724 118.9 69.7988C121.265 64.503 122.12 58.656 121.368 52.9048L121.151 51.3579C121.067 50.8215 120.79 50.3342 120.372 49.9881C119.954 49.6419 119.423 49.4609 118.881 49.4792C118.487 49.4755 118.098 49.5701 117.749 49.7545C112.149 52.5855 107.259 56.642 103.443 61.6226C102.436 62.9505 101.526 64.3492 100.72 65.808L100.708 65.8297C100.283 65.7175 99.8474 65.6493 99.4081 65.6261L98.3092 65.5772L98.4089 63.4824L102.45 61.1738L101.158 58.9129L98.5557 60.3995L98.6388 58.6554L96.0371 58.5321L95.9415 60.5406L92.9612 58.8684L91.6871 61.1394L95.803 63.4483L95.7072 65.4612L94.4565 65.4055C93.5618 65.3584 92.6673 65.5018 91.8321 65.8262C90.9969 66.1507 90.2402 66.6487 89.6119 67.2874C89.5301 67.3703 89.4733 67.4709 89.3966 67.5577C88.9369 66.4105 88.1577 65.4192 87.1514 64.7017C87.6109 63.4028 87.6389 61.9902 87.2315 60.674C86.885 59.6709 86.3091 58.7624 85.5498 58.0209C84.7904 57.2794 83.8685 56.7254 82.8573 56.4028C82.8293 56.3011 82.8001 56.2 82.767 56.0989C82.1887 54.2405 80.9291 52.6693 79.241 51.7006C78.426 51.2263 77.5209 50.9276 76.5837 50.8234C75.6465 50.7193 74.6979 50.8121 73.7987 51.096C71.9871 51.7461 70.5067 53.0874 69.6815 54.8263C68.8563 56.5651 68.7533 58.56 69.3952 60.3746C69.5083 60.7271 69.6464 61.0711 69.8085 61.4039ZM75.6425 88.7947C75.4783 87.9891 75.4752 87.1589 75.6334 86.3521C75.7917 85.5452 76.108 84.7777 76.5644 84.0937C76.9155 83.5735 77.3676 83.1291 77.8938 82.7871C78.42 82.445 79.0096 82.2122 79.6276 82.1025C80.8998 81.899 82.2008 82.2073 83.2464 82.9601C83.4637 83.1098 83.7214 83.19 83.9852 83.19C84.2491 83.19 84.5067 83.1098 84.724 82.9601C85.7729 82.2082 87.0761 81.9004 88.3505 82.1037C88.9671 82.214 89.5552 82.447 90.0801 82.7889C90.605 83.1307 91.0559 83.5744 91.4061 84.0938C91.8624 84.7776 92.1787 85.545 92.337 86.3518C92.4952 87.1585 92.4921 87.9886 92.328 88.7941C92.056 90.0768 91.5864 91.3094 90.9359 92.4479H77.0345C76.3841 91.3096 75.9145 90.0772 75.6425 88.7947ZM116.219 107.122C115.808 110.612 114.13 113.83 111.504 116.165C108.878 118.5 105.486 119.791 101.972 119.792H90.7385C87.2242 119.791 83.8325 118.501 81.2063 116.165C78.5801 113.83 76.9022 110.612 76.4906 107.122L75.6837 100.26H117.026L116.219 107.122ZM119.793 97.6563H72.9175V95.0521H119.793V97.6563ZM117.188 89.8438C117.19 90.7313 117.038 91.6124 116.738 92.4479H102.013C101.714 91.6124 101.562 90.7313 101.563 89.8438C101.566 87.7724 102.389 85.7866 103.854 84.322C105.319 82.8573 107.305 82.0335 109.376 82.0313C110.013 82.0293 110.648 82.1085 111.265 82.2671C112.959 82.683 114.464 83.6561 115.538 85.0302C116.613 86.4043 117.194 88.0996 117.188 89.8438ZM118.64 52.2092L118.788 53.2576C119.415 58.112 118.794 63.0461 116.983 67.5935C113.242 66.1975 109.683 64.3574 106.38 62.1129C109.764 58.0254 113.933 54.6578 118.64 52.2092ZM104.814 64.1968C108.273 66.5585 112.002 68.4979 115.922 69.9737L110.873 79.546C108.429 79.1683 105.932 79.6961 103.849 81.0301L105.355 73.1843C105.577 72.0399 105.478 70.8566 105.07 69.7647C104.662 68.6728 103.961 67.7146 103.043 66.9956C103.585 66.0327 104.176 65.0985 104.814 64.1968ZM91.4659 69.1166C91.8367 68.7381 92.2841 68.4432 92.7782 68.2518C93.2723 68.0603 93.8016 67.9767 94.3307 68.0065L99.2834 68.2271C99.8217 68.254 100.348 68.396 100.827 68.6435C101.305 68.891 101.725 69.2384 102.058 69.6621C102.391 70.0857 102.629 70.5759 102.757 71.0995C102.884 71.6231 102.898 72.168 102.797 72.6973L102.005 76.8229H98.1975V79.4271H101.505L100.568 84.3078C100.5 84.4159 100.433 84.5247 100.369 84.6354H96.355V87.2396H99.302C98.8455 88.9456 98.8449 90.7416 99.3004 92.4479H93.8462C94.315 91.4353 94.664 90.3714 94.8864 89.2779C95.1137 88.1322 95.1121 86.9529 94.8817 85.8078C94.6512 84.6627 94.1964 83.5746 93.5436 82.606C92.8696 81.6451 91.9768 80.858 90.9389 80.3098L90.622 75.5208H94.2912V72.9167H90.4496L90.3888 71.9986C90.3548 71.4694 90.4332 70.939 90.6189 70.4423C90.8045 69.9456 91.0931 69.4938 91.4659 69.1166ZM87.9507 74.6009L88.2745 79.4929C86.9355 79.3637 85.5867 79.6045 84.3752 80.1892L84.1698 77.4319C85.6258 76.7826 86.9178 75.8152 87.9507 74.6009ZM74.5922 53.5768C75.1491 53.4034 75.7362 53.3485 76.3156 53.4155C76.8951 53.4825 77.4541 53.67 77.9567 53.9659C79.0748 54.6134 79.9072 55.659 80.2875 56.8937C80.3635 57.1371 80.4217 57.3857 80.4617 57.6376C80.5033 57.885 80.6157 58.115 80.7851 58.3C80.9545 58.485 81.1738 58.6171 81.4166 58.6803C82.1634 58.8236 82.8614 59.1547 83.4449 59.6423C84.0285 60.1299 84.4782 60.758 84.752 61.4674C84.9004 61.9918 84.9422 62.5405 84.8749 63.0813C84.8076 63.6221 84.6327 64.1439 84.3604 64.6159C84.2789 64.7692 84.2289 64.9372 84.2134 65.1101C84.1979 65.283 84.2171 65.4573 84.27 65.6226C84.3228 65.788 84.4082 65.9411 84.5211 66.0729C84.634 66.2048 84.7722 66.3127 84.9275 66.3903C85.4232 66.6169 85.8686 66.9405 86.2373 67.342C86.6059 67.7435 86.8904 68.2148 87.0739 68.7281C87.7371 70.8065 86.3825 73.1617 83.9586 74.5966L83.9166 74.0324C83.5584 71.4086 82.863 68.8419 81.8477 66.3961C81.1065 64.6286 80.2686 62.9032 79.3377 61.2279L77.4481 57.8721L75.1796 59.1501L77.0654 62.4987C77.9478 64.089 78.7429 65.7262 79.447 67.4031C80.3659 69.6156 80.9983 71.9363 81.329 74.309L81.426 75.6172C79.9416 76.0109 78.375 75.9664 76.9154 75.489C76.278 75.3 75.6937 74.9646 75.2089 74.5097C74.7241 74.0548 74.3523 73.493 74.123 72.869C73.9743 72.3446 73.9324 71.7957 73.9997 71.2548C74.0669 70.7139 74.2421 70.192 74.5147 69.7199C74.5961 69.5667 74.6461 69.3986 74.6616 69.2257C74.6771 69.0528 74.6579 68.8786 74.6051 68.7132C74.5522 68.5478 74.4668 68.3947 74.3539 68.2629C74.241 68.131 74.1028 68.0231 73.9475 67.9455C73.4517 67.7189 73.0063 67.3952 72.6376 66.9936C72.2689 66.5919 71.9845 66.1205 71.8011 65.6071C71.6382 65.015 71.6074 64.3944 71.7109 63.7892C71.8144 63.1839 72.0497 62.6088 72.4001 62.1045C72.528 61.8997 72.5966 61.6635 72.5981 61.422C72.5997 61.1806 72.5342 60.9434 72.409 60.737C72.1859 60.3744 72.0067 59.9866 71.8749 59.5818C71.4441 58.4248 71.488 57.1445 71.9969 56.0197C72.5059 54.895 73.4387 54.0169 74.5922 53.5768Z" fill="black"/>
<path d="M103.045 27.776L104.167 28.2249V42.9687H106.771V27.3437C106.771 27.0835 106.693 26.8292 106.547 26.6138C106.401 26.3984 106.194 26.2316 105.952 26.1351L104.012 25.3582C102.902 24.9187 101.951 24.155 101.281 23.1667C100.612 22.1784 100.256 21.0114 100.26 19.8179V5.85933C100.26 5.68667 100.329 5.52107 100.451 5.39898C100.573 5.27688 100.739 5.20829 100.912 5.20829C101.084 5.20829 101.25 5.27688 101.372 5.39898C101.494 5.52107 101.563 5.68667 101.563 5.85933V16.927C101.563 17.098 101.596 17.2674 101.662 17.4254C101.727 17.5834 101.823 17.7269 101.944 17.8479C102.065 17.9688 102.208 18.0647 102.366 18.1301C102.524 18.1955 102.694 18.2292 102.865 18.2291H106.771C106.942 18.2292 107.111 18.1955 107.269 18.1301C107.427 18.0647 107.571 17.9688 107.692 17.8479C107.813 17.7269 107.909 17.5834 107.974 17.4254C108.039 17.2674 108.073 17.098 108.073 16.927V5.85933C108.073 5.68667 108.142 5.52107 108.264 5.39898C108.386 5.27688 108.551 5.20829 108.724 5.20829C108.897 5.20829 109.062 5.27688 109.184 5.39898C109.306 5.52107 109.375 5.68667 109.375 5.85933V16.927C109.375 17.098 109.409 17.2674 109.474 17.4254C109.539 17.5834 109.635 17.7269 109.756 17.8479C109.877 17.9688 110.021 18.0647 110.179 18.1301C110.337 18.1955 110.506 18.2292 110.677 18.2291H114.583C114.754 18.2292 114.924 18.1955 115.082 18.1301C115.24 18.0647 115.383 17.9688 115.504 17.8479C115.625 17.7269 115.721 17.5834 115.786 17.4254C115.852 17.2674 115.886 17.098 115.885 16.927V5.85933C115.885 5.68667 115.954 5.52107 116.076 5.39898C116.198 5.27688 116.364 5.20829 116.537 5.20829C116.709 5.20829 116.875 5.27688 116.997 5.39898C117.119 5.52107 117.188 5.68667 117.188 5.85933V19.8179C117.191 21.0115 116.836 22.1785 116.167 23.1669C115.497 24.1553 114.546 24.9191 113.436 25.3588L111.496 26.1351C111.254 26.2316 111.047 26.3984 110.901 26.6138C110.755 26.8292 110.677 27.0835 110.677 27.3437V42.9687H113.281V28.2249L114.403 27.7767C115.997 27.1454 117.364 26.0484 118.325 24.6287C119.286 23.209 119.798 21.5325 119.792 19.8179V5.85933C119.792 4.996 119.449 4.16802 118.838 3.55755C118.228 2.94708 117.4 2.60413 116.537 2.60413C115.673 2.60413 114.845 2.94708 114.235 3.55755C113.624 4.16802 113.281 4.996 113.281 5.85933V15.625H111.979V5.85933C111.979 4.996 111.636 4.16802 111.026 3.55755C110.415 2.94708 109.587 2.60413 108.724 2.60413C107.861 2.60413 107.033 2.94708 106.422 3.55755C105.812 4.16802 105.469 4.996 105.469 5.85933V15.625H104.167V5.85933C104.167 4.996 103.824 4.16802 103.213 3.55755C102.603 2.94708 101.775 2.60413 100.912 2.60413C100.048 2.60413 99.2202 2.94708 98.6097 3.55755C97.9993 4.16802 97.6563 4.996 97.6563 5.85933V19.8179C97.6504 21.5324 98.1615 23.2088 99.1228 24.6285C100.084 26.0481 101.451 27.145 103.045 27.776Z" fill="black"/>
<path d="M78.7754 29.5721V44.2708H81.3796V28.8575C81.3796 28.6299 81.32 28.4063 81.2067 28.2089C81.0934 28.0116 80.9302 27.8474 80.7336 27.7328C77.5661 25.8859 75.5202 21.6446 75.5202 16.927C75.5202 10.4656 79.3171 5.20829 83.9837 5.20829C88.6504 5.20829 92.4473 10.4656 92.4473 16.927C92.4473 21.6445 90.4013 25.8859 87.2338 27.7322C87.0374 27.8469 86.8743 28.0111 86.761 28.2085C86.6477 28.4058 86.588 28.6293 86.5879 28.8569V44.2708H89.1921V29.5715C92.7741 27.1059 95.0514 22.2409 95.0514 16.927C95.0514 9.02935 90.086 2.60413 83.9837 2.60413C77.8815 2.60413 72.916 9.02935 72.916 16.927C72.916 22.2403 75.1934 27.1059 78.7754 29.5721Z" fill="black"/>
<path d="M32.123 57.2916C32.5093 57.2916 32.887 57.1771 33.2081 56.9625C33.5293 56.7478 33.7797 56.4428 33.9275 56.0859C34.0753 55.729 34.114 55.3363 34.0386 54.9575C33.9633 54.5786 33.7773 54.2306 33.5041 53.9574C33.231 53.6843 32.883 53.4983 32.5041 53.4229C32.1252 53.3475 31.7325 53.3862 31.3756 53.534C31.0187 53.6819 30.7137 53.9322 30.4991 54.2534C30.2845 54.5746 30.1699 54.9522 30.1699 55.3385C30.1705 55.8563 30.3764 56.3528 30.7426 56.7189C31.1088 57.0851 31.6052 57.291 32.123 57.2916ZM32.123 54.6875C32.2518 54.6875 32.3777 54.7256 32.4847 54.7972C32.5918 54.8687 32.6753 54.9704 32.7245 55.0894C32.7738 55.2083 32.7867 55.3392 32.7616 55.4655C32.7365 55.5918 32.6745 55.7078 32.5834 55.7988C32.4924 55.8899 32.3764 55.9519 32.2501 55.977C32.1238 56.0021 31.9929 55.9893 31.8739 55.94C31.7549 55.8907 31.6533 55.8073 31.5817 55.7002C31.5102 55.5931 31.472 55.4673 31.472 55.3385C31.4722 55.1659 31.5409 55.0004 31.6629 54.8784C31.785 54.7563 31.9505 54.6877 32.123 54.6875Z" fill="black"/>
<path d="M6.53377 65.3559C5.99463 66.4615 5.48473 67.5061 5.06385 68.5011C0.310734 79.6852 2.51308 94.5104 11.6506 112.641L14.7239 117.849L16.967 116.526L13.9343 111.394C12.3116 108.192 10.8505 104.911 9.55636 101.562H30.1683V118.49H32.7725V101.562H54.4681C53.179 104.896 51.7237 108.164 50.1078 111.352L47.2557 116.561L49.5394 117.814L52.4118 112.565C61.5086 94.5104 63.7109 79.6851 58.9591 68.5018C58.5357 67.5061 58.027 66.4615 57.4879 65.3553C55.0291 60.7437 53.3561 55.7546 52.5377 50.593C51.9651 46.5647 51.9421 42.4773 52.4693 38.4427C55.1803 36.9867 57.4447 34.8217 59.0209 32.1788C60.5971 29.536 61.4257 26.5146 61.4184 23.4375C61.4494 18.9859 59.7135 14.7039 56.5914 11.5306C53.4694 8.35725 49.2162 6.55184 44.7647 6.51038C42.5169 6.50969 40.293 6.97124 38.231 7.86635C36.1691 8.76145 34.3133 10.071 32.7789 11.7136C31.2419 10.0705 29.3836 8.76085 27.3194 7.86578C25.2552 6.97071 23.0291 6.50937 20.7791 6.51038C16.3279 6.55209 12.0749 8.35762 8.95312 11.5309C5.83132 14.7042 4.0956 18.9861 4.1267 23.4375C4.12356 26.1857 4.78569 28.894 6.05654 31.3308C7.32739 33.7676 9.16919 35.8606 11.4246 37.431C12.0853 41.7918 12.1053 46.2258 11.484 50.5924C10.6644 55.7541 8.99151 60.7435 6.53377 65.3559ZM55.4268 98.9583H8.59784C4.52335 87.2121 4.13497 77.3439 7.46075 69.519C7.70305 68.9472 7.98908 68.3362 8.28973 67.7083H55.7323C56.0331 68.3363 56.3192 68.9475 56.5623 69.5196C59.8888 77.348 59.4985 87.2218 55.4268 98.9583ZM6.73086 23.4375C6.69903 19.6766 8.16015 16.0566 10.7937 13.3715C13.4273 10.6864 17.0183 9.15553 20.7791 9.11454C22.8994 9.1168 24.991 9.60449 26.8936 10.5402C28.7962 11.476 30.4592 12.835 31.7553 14.513C31.8772 14.6685 32.0329 14.7943 32.2106 14.8808C32.3883 14.9672 32.5834 15.0121 32.781 15.0121C32.9786 15.012 33.1736 14.967 33.3513 14.8804C33.5289 14.7938 33.6845 14.668 33.8063 14.5123C35.0989 12.835 36.7588 11.4762 38.6585 10.5405C40.5582 9.60478 42.647 9.11697 44.7647 9.11454C48.5256 9.15549 52.1168 10.6864 54.7505 13.3714C57.3843 16.0564 58.8457 19.6764 58.8141 23.4375C58.8245 26.1446 58.0696 28.7995 56.6365 31.0961C55.2034 33.3928 53.1504 35.2377 50.7143 36.4182L14.8307 36.4169C12.3948 35.2364 10.3421 33.3917 8.909 31.0953C7.47594 28.7989 6.72089 26.1443 6.73086 23.4375ZM14.0602 50.9687C14.6243 46.9869 14.681 42.9496 14.2289 38.9535C14.3305 38.9889 14.4361 39.0117 14.5434 39.0211L49.7909 39.0223C49.3432 42.9961 49.4006 47.0106 49.9616 50.97C50.7047 55.8912 52.2276 60.6625 54.4731 65.1041H9.54868C11.7941 60.662 13.317 55.8903 14.0602 50.9687Z" fill="black"/>
</svg>
