<svg width="60" height="60" viewBox="0 0 60 60" fill="none" xmlns="http://www.w3.org/2000/svg">
<g clip-path="url(#clip0)">
<path d="M29.5826 34.4411C28.9984 34.1632 28.2994 34.411 28.0212 34.9952L27.8269 35.4035C27.5488 35.9877 27.7969 36.6867 28.381 36.9649C28.5436 37.0424 28.7149 37.0791 28.8838 37.0791C29.3216 37.0791 29.7416 36.8326 29.9424 36.4108L30.1367 36.0026C30.4149 35.4183 30.1667 34.7192 29.5826 34.4411Z" fill="#006837"/>
<path d="M16.4513 27.6498C15.9938 27.1923 15.252 27.1923 14.7945 27.6498C13.8233 28.6211 12.2428 28.6211 11.2714 27.6498C10.8139 27.1923 10.0721 27.1923 9.61461 27.6498C9.15711 28.1073 9.15711 28.8491 9.61461 29.3066C10.557 30.2489 11.795 30.7202 13.033 30.7202C14.2709 30.7202 15.5088 30.249 16.4512 29.3066C16.9087 28.8492 16.9087 28.1074 16.4513 27.6498Z" fill="#006837"/>
<path d="M55.9425 3.11246C51.8151 -1.01489 45.1081 -1.02684 40.9642 3.07402C39.6707 2.43183 38.2974 1.88093 36.8494 1.42742C32.0992 -0.0605128 28.213 -0.00531745 27.876 0.00206536C21.5208 0.00628411 15.9774 2.67289 13.4059 6.96347C13.0665 7.52972 12.7838 8.1166 12.5569 8.72046C11.3458 9.87371 5.88014 15.5223 5.88014 23.5316C5.88014 28.8662 3.3142 31.6514 1.78478 32.8368C1.21326 33.2798 0.903769 33.9754 0.95709 34.6975C1.01041 35.42 1.41881 36.0629 2.04963 36.4174C2.62596 36.7413 3.27412 37.0522 3.90084 37.3529C4.45502 37.6188 5.24252 37.9966 5.62654 38.2425V40.3291C5.62654 40.6146 5.57205 40.8934 5.46459 41.1581L5.17408 41.8732C4.77623 42.8521 4.92271 43.973 5.55412 44.8166V45.0736C5.55412 45.8337 5.88881 46.5373 6.44627 47.0146V48.3902C6.44627 51.338 8.84439 53.7362 11.7922 53.7362H15.2514C15.8984 53.7362 16.4229 53.2116 16.4229 52.5646C16.4229 51.9177 15.8984 51.3931 15.2514 51.3931H11.7922C10.1365 51.3931 8.7892 50.0459 8.7892 48.3901V46.3688C8.7892 45.8994 8.509 45.4755 8.07728 45.2913L8.02666 45.2697C7.94791 45.2361 7.89705 45.1591 7.89705 45.0736V44.4123C7.89705 44.1495 7.80869 43.8943 7.64627 43.6878L7.43955 43.4251C7.29025 43.2355 7.25404 42.9786 7.34486 42.755L7.63537 42.0398C7.85709 41.4938 7.96959 40.9183 7.96959 40.3291V37.835C7.96959 36.7061 6.81963 36.1544 4.91439 35.2403C4.41412 35.0003 3.89967 34.7534 3.44463 34.51C5.32877 32.9723 8.2233 29.6179 8.2233 23.5314C8.2233 19.1273 10.1837 15.4575 11.8845 13.1018C11.9774 15.143 12.5949 17.2777 13.7376 19.4151C16.7442 25.0386 21.9802 27.3957 26.1873 29.2894C30.1902 31.0913 32.4558 32.2256 32.474 34.5834C32.4872 36.3148 32.089 37.5888 31.2904 38.3696C30.3683 39.2712 29.1444 39.2482 29.1371 39.248C28.7439 39.2205 28.3753 39.3922 28.1359 39.7048C27.8964 40.0175 27.8419 40.4304 27.9709 40.8024C28.0053 40.9016 28.8352 43.2547 30.7351 45.5477C33.1098 48.4135 36.1074 49.9257 39.4497 49.9596L42.5976 59.1888C42.7636 59.6759 43.2188 59.9825 43.7062 59.9825C43.8315 59.9825 43.9592 59.9622 44.0844 59.9193C44.6969 59.7105 45.0239 59.0448 44.815 58.4325L41.7149 49.3433C47.5594 46.2113 51.6686 41.3529 53.6275 35.234C55.189 30.3566 55.2637 24.8837 53.9442 19.7002C54.6672 19.2608 55.3371 18.7361 55.9424 18.1309C60.0831 13.9904 60.0831 7.25316 55.9425 3.11246ZM51.3962 34.52C49.5578 40.2628 45.6108 44.7842 39.9742 47.6091C37.1241 47.7371 34.6382 46.5594 32.5831 44.1054C31.7544 43.1161 31.1547 42.0977 30.762 41.3268C31.4304 41.1178 32.1981 40.7452 32.8893 40.0832C34.1869 38.8404 34.8355 36.984 34.817 34.5657C34.7865 30.5909 31.0767 28.9211 27.1492 27.1531C23.064 25.3142 18.4338 23.23 15.8038 18.3106C14.17 15.2545 13.7854 12.3486 14.6562 9.80082C14.6598 9.79109 14.6632 9.78125 14.6666 9.77152C14.8575 9.21957 15.1065 8.68402 15.4159 8.16781C17.5683 4.57613 22.3487 2.34488 27.8915 2.34488C27.9027 2.34488 27.9138 2.34476 27.9252 2.34441C27.9617 2.34324 31.654 2.255 36.1492 3.663C42.1313 5.53695 46.5379 9.02855 49.2464 14.0409C52.6695 20.3762 53.4733 28.0318 51.3962 34.52ZM53.244 17.3586C52.7214 15.8355 52.0764 14.3499 51.3075 12.9271C49.3844 9.36839 46.606 6.44644 43.1214 4.27648C46.3698 1.55316 51.2329 1.71605 54.2858 4.76914C57.5129 7.99625 57.5129 13.2472 54.2858 16.4743C53.961 16.7993 53.6128 17.0944 53.244 17.3586Z" fill="#006837"/>
<path d="M31.0037 54.8793L27.3333 48.5218L27.2092 44.1809C27.1054 40.5455 24.2935 37.5817 20.6685 37.2867C18.003 37.0694 15.4437 38.5476 14.2989 40.9644L14.241 41.0865C12.7234 44.2898 13.8183 48.165 16.7877 50.1007L20.4415 52.4824L24.4332 59.396C24.6501 59.7719 25.0438 59.982 25.4487 59.9819C25.6473 59.9819 25.8489 59.9312 26.0334 59.8247C26.5936 59.5013 26.7857 58.7848 26.4621 58.2244L22.9162 52.0826L24.329 51.2668L25.7418 50.4511L28.9745 56.0503C29.2979 56.6106 30.0143 56.8026 30.5748 56.4791C31.1353 56.156 31.3273 55.4395 31.0037 54.8793ZM21.3534 50.28L18.0674 48.138C16.075 46.8393 15.3403 44.239 16.3586 42.0895L16.4165 41.9674C17.0992 40.5264 18.5709 39.6088 20.1488 39.6088C20.2584 39.6088 20.3684 39.6132 20.4787 39.6223C22.9109 39.8201 24.7976 41.8089 24.8672 44.248L24.9798 48.1862L21.3534 50.28Z" fill="#006837"/>
<path d="M32.7596 58.0005C32.5417 57.7825 32.2394 57.6572 31.9313 57.6572C31.622 57.6572 31.321 57.7826 31.103 58.0005C30.885 58.2183 30.7598 58.5207 30.7598 58.8287C30.7598 59.1368 30.8852 59.4391 31.103 59.657C31.3209 59.8749 31.622 60.0003 31.9313 60.0003C32.2394 60.0003 32.5416 59.8749 32.7596 59.657C32.9774 59.4392 33.1028 59.1368 33.1028 58.8287C33.1028 58.5207 32.9774 58.2184 32.7596 58.0005Z" fill="#006837"/>
<path d="M23.1589 6.86849C22.9044 6.27376 22.2161 5.99744 21.621 6.25185C19.5549 7.13509 18.0647 8.62396 17.425 10.4443C16.784 12.2684 17.0247 14.3166 18.1211 16.3672C18.3321 16.762 18.7368 16.9866 19.1553 16.9866C19.3417 16.9866 19.5307 16.9419 19.7065 16.8479C20.2771 16.5429 20.4924 15.8331 20.1873 15.2624C19.3977 13.7855 19.2121 12.4258 19.6355 11.2208C20.0549 10.0275 21.0871 9.02779 22.5421 8.40599C23.1369 8.15193 23.413 7.46357 23.1589 6.86849Z" fill="#006837"/>
<path d="M26.0174 5.39062L25.9517 5.39074C25.3049 5.39449 24.7833 5.92207 24.7871 6.56918C24.7909 7.21383 25.3147 7.73379 25.9585 7.73379C25.9609 7.73379 25.9632 7.73379 25.9656 7.73379L26.0174 7.73367C26.6644 7.73367 27.1889 7.20914 27.1889 6.56215C27.1889 5.91516 26.6644 5.39062 26.0174 5.39062Z" fill="#006837"/>
</g>
<defs>
<clipPath id="clip0">
<rect width="60" height="60" fill="white"/>
</clipPath>
</defs>
</svg>
