<svg width="70" height="42" viewBox="0 0 70 42" fill="none" xmlns="http://www.w3.org/2000/svg">
<path d="M70 21C70 32.5556 60.6667 42 49 42C37.4444 42 28 32.5556 28 21C28 9.44444 37.3333 0 48.8889 0C60.6667 0 70 9.44444 70 21Z" fill="#FFB600"/>
<path d="M49 0C60.5555 0 70 9.44444 70 21C70 32.5556 60.6667 42 49 42C37.4444 42 28 32.5556 28 21" fill="#F7981D"/>
<path d="M49 0C60.5556 0 70 9.44444 70 21C70 32.5556 60.6667 42 49 42" fill="#FF8500"/>
<path d="M20.7778 0C9.33333 0.111111 0 9.44444 0 21C0 32.5556 9.33333 42 21 42C26.4444 42 31.3333 39.8889 35.1111 36.5556C35.8889 35.8889 36.5555 35.1111 37.2222 34.3333H32.8889C32.3333 33.6667 31.7778 32.8889 31.3333 32.2222H38.7778C39.2222 31.5556 39.6667 30.7778 40 30H30.1111C29.7778 29.3333 29.4444 28.5556 29.2222 27.7778H40.7778C41.4444 25.6667 41.8889 23.4444 41.8889 21.1111C41.8889 19.5556 41.6667 18.1111 41.4444 16.6667H28.5556C28.6667 15.8889 28.8889 15.2222 29.1111 14.4444H40.6667C40.4444 13.6667 40.1111 12.8889 39.7778 12.2222H30C30.3333 11.4444 30.7778 10.7778 31.2222 10H38.6667C38.2222 9.22222 37.6667 8.44444 37 7.77778H32.8889C33.5555 7 34.2222 6.33333 35 5.66667C31.3333 2.22222 26.3333 0.222222 20.8889 0.222222C20.8889 -2.15239e-07 20.8889 0 20.7778 0Z" fill="#FF5050"/>
<path d="M0 20.9995C0 32.555 9.33333 41.9995 21 41.9995C26.4444 41.9995 31.3333 39.8883 35.1111 36.555C35.8889 35.8883 36.5555 35.1106 37.2222 34.3328H32.8889C32.3333 33.6661 31.7778 32.8883 31.3333 32.2217H38.7778C39.2222 31.555 39.6667 30.7772 40 29.9995H30.1111C29.7778 29.3328 29.4444 28.555 29.2222 27.7772H40.7778C41.4444 25.6661 41.8889 23.4439 41.8889 21.1106C41.8889 19.555 41.6667 18.1106 41.4444 16.6661H28.5556C28.6667 15.8883 28.8889 15.2217 29.1111 14.4439H40.6667C40.4444 13.6661 40.1111 12.8883 39.7778 12.2217H30C30.3333 11.4439 30.7778 10.7772 31.2222 9.99946H38.6667C38.2222 9.22168 37.6667 8.4439 37 7.77724H32.8889C33.5555 6.99946 34.2222 6.33279 35 5.66612C31.3333 2.22168 26.3333 0.22168 20.8889 0.22168H20.7778" fill="#E52836"/>
<path d="M21.0001 41.9995C26.4445 41.9995 31.3334 39.8883 35.1112 36.555C35.8889 35.8883 36.5556 35.1106 37.2223 34.3328H32.8889C32.3334 33.6661 31.7778 32.8883 31.3334 32.2217H38.7778C39.2223 31.555 39.6667 30.7772 40.0001 29.9995H30.1112C29.7778 29.3328 29.4445 28.555 29.2223 27.7772H40.7778C41.4445 25.6661 41.8889 23.4439 41.8889 21.1106C41.8889 19.555 41.6667 18.1106 41.4445 16.6661H28.5556C28.6667 15.8883 28.8889 15.2217 29.1112 14.4439H40.6667C40.4445 13.6661 40.1112 12.8883 39.7778 12.2217H30.0001C30.3334 11.4439 30.7778 10.7772 31.2223 9.99946H38.6667C38.2223 9.22168 37.6667 8.4439 37.0001 7.77724H32.8889C33.5556 6.99946 34.2223 6.33279 35.0001 5.66612C31.3334 2.22168 26.3334 0.22168 20.8889 0.22168H20.7778" fill="#CB2026"/>
<path d="M28.4444 26.3334L28.7777 24.4446C28.6666 24.4446 28.4444 24.5557 28.2222 24.5557C27.4444 24.5557 27.3333 24.1112 27.4444 23.889L28.1111 20.0001H29.3333L29.6666 17.889H28.5555L28.7777 16.5557H26.5555C26.5555 16.5557 25.2222 23.889 25.2222 24.7779C25.2222 26.1112 25.9999 26.6668 26.9999 26.6668C27.6666 26.6668 28.2222 26.4446 28.4444 26.3334Z" fill="white"/>
<path d="M29.2222 22.7777C29.2222 25.8888 31.3333 26.6666 33.1111 26.6666C34.7777 26.6666 35.4444 26.3333 35.4444 26.3333L35.8888 24.2222C35.8888 24.2222 34.6666 24.7777 33.5555 24.7777C31.1111 24.7777 31.5555 23 31.5555 23H36.1111C36.1111 23 36.4444 21.5555 36.4444 21C36.4444 19.5555 35.6666 17.7777 33.2222 17.7777C30.8888 17.5555 29.2222 20 29.2222 22.7777ZM33.1111 19.5555C34.3333 19.5555 34.1111 21 34.1111 21.1111H31.6666C31.6666 21 31.8888 19.5555 33.1111 19.5555Z" fill="white"/>
<path d="M47.2219 26.3334L47.6664 23.889C47.6664 23.889 46.5553 24.4446 45.7775 24.4446C44.222 24.4446 43.5553 23.2223 43.5553 21.889C43.5553 19.2223 44.8886 17.7779 46.4442 17.7779C47.5553 17.7779 48.4442 18.4446 48.4442 18.4446L48.7775 16.1112C48.7775 16.1112 47.4442 15.5557 46.2219 15.5557C43.6664 15.5557 41.1108 17.7779 41.1108 22.0001C41.1108 24.7779 42.4442 26.6668 45.1108 26.6668C45.9997 26.6668 47.2219 26.3334 47.2219 26.3334Z" fill="white"/>
<path d="M16.2222 17.5557C14.6667 17.5557 13.5556 18.0001 13.5556 18.0001L13.2222 19.889C13.2222 19.889 14.2222 19.4446 15.6667 19.4446C16.4444 19.4446 17.1111 19.5557 17.1111 20.2223C17.1111 20.6668 17 20.7779 17 20.7779C17 20.7779 16.3333 20.7779 16 20.7779C14.1111 20.7779 12 21.5557 12 24.1112C12 26.1112 13.3333 26.5557 14.1111 26.5557C15.6667 26.5557 16.3333 25.5557 16.4444 25.5557L16.3333 26.4446H18.3333L19.2222 20.3334C19.2222 17.6668 17 17.5557 16.2222 17.5557ZM16.6667 22.5557C16.6667 22.889 16.4444 24.6668 15.1111 24.6668C14.4444 24.6668 14.2222 24.1112 14.2222 23.7779C14.2222 23.2223 14.5556 22.4446 16.2222 22.4446C16.5556 22.5557 16.6667 22.5557 16.6667 22.5557Z" fill="white"/>
<path d="M21.3334 26.5564C21.8889 26.5564 24.6667 26.6675 24.6667 23.6675C24.6667 20.8898 22.0001 21.4453 22.0001 20.3342C22.0001 19.7786 22.4445 19.5564 23.2223 19.5564C23.5556 19.5564 24.7778 19.6675 24.7778 19.6675L25.1112 17.6675C25.1112 17.6675 24.3334 17.4453 23.0001 17.4453C21.3334 17.4453 19.6667 18.112 19.6667 20.3342C19.6667 22.8898 22.4445 22.6675 22.4445 23.6675C22.4445 24.3342 21.6667 24.4453 21.1112 24.4453C20.1112 24.4453 19.1112 24.112 19.1112 24.112L18.7778 26.112C18.8889 26.3342 19.4445 26.5564 21.3334 26.5564Z" fill="white"/>
<path d="M65.6668 15.7783L65.2224 18.7783C65.2224 18.7783 64.3335 17.6672 63.1113 17.6672C61.1113 17.6672 59.3335 20.1117 59.3335 23.0005C59.3335 24.7783 60.2224 26.6672 62.1113 26.6672C63.4446 26.6672 64.2224 25.7783 64.2224 25.7783L64.1113 26.5561H66.3335L68.0002 15.8894L65.6668 15.7783ZM64.6668 21.6672C64.6668 22.8894 64.1113 24.445 62.889 24.445C62.1113 24.445 61.6668 23.7783 61.6668 22.6672C61.6668 20.8894 62.4446 19.7783 63.4446 19.7783C64.2224 19.7783 64.6668 20.3339 64.6668 21.6672Z" fill="white"/>
<path d="M4.11111 26.445L5.44444 18.445L5.66667 26.445H7.22222L10.1111 18.445L8.88889 26.445H11.2222L13 15.7783H9.33333L7.11111 22.3339L7 15.7783H3.77778L2 26.445H4.11111Z" fill="white"/>
<path d="M38.5553 26.445C39.222 22.7783 39.3331 19.7783 40.8886 20.3339C41.1108 18.8894 41.4442 18.3339 41.6664 17.7783C41.6664 17.7783 41.5553 17.7783 41.2219 17.7783C40.2219 17.7783 39.4442 19.1117 39.4442 19.1117L39.6664 17.8894H37.5553L36.1108 26.5561H38.5553V26.445Z" fill="white"/>
<path d="M52.3336 17.5557C50.778 17.5557 49.6669 18.0001 49.6669 18.0001L49.3336 19.889C49.3336 19.889 50.3336 19.4446 51.778 19.4446C52.5558 19.4446 53.2224 19.5557 53.2224 20.2223C53.2224 20.6668 53.1113 20.7779 53.1113 20.7779C53.1113 20.7779 52.4447 20.7779 52.1113 20.7779C50.2224 20.7779 48.1113 21.5557 48.1113 24.1112C48.1113 26.1112 49.4447 26.5557 50.2224 26.5557C51.778 26.5557 52.4447 25.5557 52.5558 25.5557L52.4447 26.4446H54.4447L55.3336 20.3334C55.4447 17.6668 53.1113 17.5557 52.3336 17.5557ZM52.8891 22.5557C52.8891 22.889 52.6669 24.6668 51.3336 24.6668C50.6669 24.6668 50.4447 24.1112 50.4447 23.7779C50.4447 23.2223 50.778 22.4446 52.4447 22.4446C52.778 22.5557 52.778 22.5557 52.8891 22.5557Z" fill="white"/>
<path d="M57.2223 26.445C57.8889 22.7783 58.0001 19.7783 59.5556 20.3339C59.7778 18.8894 60.1112 18.3339 60.3334 17.7783C60.3334 17.7783 60.2223 17.7783 59.8889 17.7783C58.8889 17.7783 58.1112 19.1117 58.1112 19.1117L58.3334 17.8894H56.2223L54.7778 26.5561H57.2223V26.445Z" fill="white"/>
<path d="M25 24.7779C25 26.1112 25.7778 26.6668 26.7778 26.6668C27.5556 26.6668 28.2222 26.4446 28.4444 26.3334L28.7778 24.4446C28.6667 24.4446 28.4444 24.5557 28.2222 24.5557C27.4444 24.5557 27.3333 24.1112 27.4444 23.889L28.1111 20.0001H29.3333L29.6667 17.889H28.5556L28.7778 16.5557" fill="#DCE5E5"/>
<path d="M30.3335 22.7777C30.3335 25.8888 31.3335 26.6666 33.1113 26.6666C34.7779 26.6666 35.4446 26.3333 35.4446 26.3333L35.8891 24.2222C35.8891 24.2222 34.6668 24.7777 33.5557 24.7777C31.1113 24.7777 31.5557 23 31.5557 23H36.1113C36.1113 23 36.4446 21.5555 36.4446 21C36.4446 19.5555 35.6668 17.7777 33.2224 17.7777C30.8891 17.5555 30.3335 20 30.3335 22.7777ZM33.1113 19.5555C34.3335 19.5555 34.5557 21 34.5557 21.1111H31.6668C31.6668 21 31.8891 19.5555 33.1113 19.5555Z" fill="#DCE5E5"/>
<path d="M47.2222 26.3334L47.6666 23.889C47.6666 23.889 46.5555 24.4446 45.7777 24.4446C44.2222 24.4446 43.5555 23.2223 43.5555 21.889C43.5555 19.2223 44.8888 17.7779 46.4444 17.7779C47.5555 17.7779 48.4444 18.4446 48.4444 18.4446L48.7777 16.1112C48.7777 16.1112 47.4444 15.5557 46.2222 15.5557C43.6666 15.5557 42.2222 17.7779 42.2222 22.0001C42.2222 24.7779 42.4444 26.6668 45.1111 26.6668C45.9999 26.6668 47.2222 26.3334 47.2222 26.3334Z" fill="#DCE5E5"/>
<path d="M13.2222 20.0005C13.2222 20.0005 14.2222 19.5561 15.6667 19.5561C16.4444 19.5561 17.1111 19.6672 17.1111 20.3339C17.1111 20.7783 17 20.8894 17 20.8894C17 20.8894 16.3333 20.8894 16 20.8894C14.1111 20.8894 12 21.6672 12 24.2228C12 26.2228 13.3333 26.6672 14.1111 26.6672C15.6667 26.6672 16.3333 25.6672 16.4444 25.6672L16.3333 26.5561H18.3333L19.2222 20.445C19.2222 17.8894 17 17.7783 16.1111 17.7783L13.2222 20.0005ZM17.7778 22.5561C17.7778 22.8894 16.4444 24.6672 15.1111 24.6672C14.4444 24.6672 14.2222 24.1117 14.2222 23.7783C14.2222 23.2228 14.5556 22.445 16.2222 22.445C16.5556 22.5561 17.7778 22.5561 17.7778 22.5561Z" fill="#DCE5E5"/>
<path d="M18.8887 26.3342C18.8887 26.3342 19.5553 26.5564 21.4442 26.5564C21.9998 26.5564 24.7776 26.6675 24.7776 23.6675C24.7776 20.8898 22.1109 21.4453 22.1109 20.3342C22.1109 19.7786 22.5553 19.5564 23.3331 19.5564C23.6664 19.5564 24.8887 19.6675 24.8887 19.6675L25.222 17.6675C25.222 17.6675 24.4442 17.4453 23.1109 17.4453C21.4442 17.4453 20.8887 18.112 20.8887 20.3342C20.8887 22.8898 22.5553 22.6675 22.5553 23.6675C22.5553 24.3342 21.7776 24.4453 21.222 24.4453" fill="#DCE5E5"/>
<path d="M65.2219 18.7776C65.2219 18.7776 64.333 17.6665 63.1108 17.6665C61.1108 17.6665 60.4441 20.1109 60.4441 22.9998C60.4441 24.7776 60.2219 26.6664 62.1108 26.6664C63.4441 26.6664 64.2219 25.7776 64.2219 25.7776L64.1108 26.5553H66.333L67.9997 15.8887L65.2219 18.7776ZM65.1108 21.6664C65.1108 22.8887 64.1108 24.4442 62.8885 24.4442C62.1108 24.4442 61.6663 23.7776 61.6663 22.6664C61.6663 20.8887 62.4441 19.7776 63.4441 19.7776C64.2219 19.7776 65.1108 20.3331 65.1108 21.6664Z" fill="#DCE5E5"/>
<path d="M4.11111 26.445L5.44444 18.445L5.66667 26.445H7.22222L10.1111 18.445L8.88889 26.445H11.2222L13 15.7783H10.2222L7.11111 22.3339L7 15.7783H5.77778L2 26.445H4.11111Z" fill="#DCE5E5"/>
<path d="M36.2222 26.445H38.5555C39.2222 22.7783 39.3333 19.7783 40.8888 20.3339C41.1111 18.8894 41.4444 18.3339 41.6666 17.7783C41.6666 17.7783 41.5555 17.7783 41.2222 17.7783C40.2222 17.7783 39.4444 19.1117 39.4444 19.1117L39.6666 17.8894" fill="#DCE5E5"/>
<path d="M49.3336 20.0005C49.3336 20.0005 50.3335 19.5561 51.778 19.5561C52.5558 19.5561 53.2224 19.6672 53.2224 20.3339C53.2224 20.7783 53.1113 20.8894 53.1113 20.8894C53.1113 20.8894 52.4447 20.8894 52.1113 20.8894C50.2224 20.8894 48.1113 21.6672 48.1113 24.2228C48.1113 26.2228 49.4447 26.6672 50.2224 26.6672C51.778 26.6672 52.4447 25.6672 52.5558 25.6672L52.4447 26.5561H54.4447L55.3335 20.445C55.3335 17.8894 53.1113 17.7783 52.2224 17.7783L49.3336 20.0005ZM53.8891 22.5561C53.8891 22.8894 52.5558 24.6672 51.2224 24.6672C50.5558 24.6672 50.3335 24.1117 50.3335 23.7783C50.3335 23.2228 50.6669 22.445 52.3335 22.445C52.778 22.5561 53.8891 22.5561 53.8891 22.5561Z" fill="#DCE5E5"/>
<path d="M54.8892 26.445H57.2225C57.8892 22.7783 58.0003 19.7783 59.5558 20.3339C59.778 18.8894 60.1114 18.3339 60.3336 17.7783C60.3336 17.7783 60.2225 17.7783 59.8892 17.7783C58.8892 17.7783 58.1114 19.1117 58.1114 19.1117L58.3336 17.8894" fill="#DCE5E5"/>
</svg>
