<svg width="60" height="60" viewBox="0 0 60 60" fill="none" xmlns="http://www.w3.org/2000/svg">
<g clip-path="url(#clip0)">
<path d="M59.9959 2.00635H57.9961V4.00614H59.9959V2.00635Z" fill="#131315"/>
<path d="M57.9959 0.00683594H55.9961V2.00663H57.9959V0.00683594Z" fill="#131315"/>
<path d="M55.9978 2.00635H53.998V4.00614H55.9978V2.00635Z" fill="#131315"/>
<path d="M57.9959 4.00635H55.9961V6.00614H57.9959V4.00635Z" fill="#131315"/>
<path d="M51.9978 2.00635H49.998V4.00614H51.9978V2.00635Z" fill="#131315"/>
<path d="M49.9978 22.0044H47.998V24.0042H49.9978V22.0044Z" fill="#131315"/>
<path d="M53.9978 22.0044H51.998V24.0042H53.9978V22.0044Z" fill="#131315"/>
<path d="M51.9978 20.0044H49.998V22.0042H51.9978V20.0044Z" fill="#131315"/>
<path d="M51.9978 24.0039H49.998V26.0037H51.9978V24.0039Z" fill="#131315"/>
<path d="M13.0017 19.0044H11.002V21.0042H13.0017V19.0044Z" fill="#131315"/>
<path d="M11.0037 17.0049H9.00391V19.0047H11.0037V17.0049Z" fill="#131315"/>
<path d="M9.00175 19.0044H7.00195V21.0042H9.00175V19.0044Z" fill="#131315"/>
<path d="M11.0037 21.0044H9.00391V23.0042H11.0037V21.0044Z" fill="#131315"/>
<path d="M5.00175 19.0044H3.00195V21.0042H5.00175V19.0044Z" fill="#131315"/>
<path d="M2.0037 6.00586H0.00390625V8.00565H2.0037V6.00586Z" fill="#131315"/>
<path d="M6.00175 6.00586H4.00195V8.00565H6.00175V6.00586Z" fill="#131315"/>
<path d="M4.00175 4.00635H2.00195V6.00614H4.00175V4.00635Z" fill="#131315"/>
<path d="M4.00175 8.00586H2.00195V10.0057H4.00175V8.00586Z" fill="#131315"/>
<path d="M16.0017 0.00683594H14.002V2.00663H16.0017V0.00683594Z" fill="#131315"/>
<path d="M53.8254 46.9918C53.4003 45.7963 52.2673 44.9988 50.9984 45.0018H48.5797L44.9991 38.7364V28.0035C44.9991 25.7946 43.2084 24.0039 40.9995 24.0039V11.0052C41.2023 5.1336 36.6069 0.209229 30.7353 0.00637435C30.4904 -0.00212478 30.2454 -0.00212478 30.0006 0.00637435C23.1253 0.00637435 19.2017 5.6538 19.0017 10.9673C19.0017 10.9802 19.0087 10.9922 19.0087 11.0052H19.0017V24.0039C16.7928 24.0039 15.0021 25.7946 15.0021 28.0035V38.7364L11.4215 45.0018H9.00286C7.35003 44.9984 6.00741 46.3354 6.00391 47.9882C6.00129 49.2567 6.79871 50.3891 7.99396 50.8142C6.54973 52.4466 6.70234 54.9409 8.33492 56.3851C8.92486 56.907 9.65766 57.2405 10.4387 57.3425L29.8657 59.9912C29.9557 60.003 30.0467 60.003 30.1367 59.9912L49.5637 57.3425C51.725 57.0601 53.2482 55.0792 52.9659 52.9179C52.8639 52.1369 52.5304 51.4041 52.0085 50.8142C53.5657 50.2605 54.3792 48.5491 53.8254 46.9918ZM30.0007 2.00629C34.7502 1.78582 38.7793 5.45732 38.9998 10.207C39.0122 10.4729 39.0122 10.7394 38.9998 11.0054H37C34.2403 11.0021 32.0038 8.7656 32.0005 6.00588C32.0004 5.45369 31.5527 5.00611 31.0004 5.00624C30.7353 5.00624 30.4812 5.1116 30.2937 5.29896C27.8148 7.78733 24.5916 9.39879 21.1136 9.88849C21.6634 5.39545 25.474 2.01567 30.0007 2.00629ZM28.0009 25.0039V20.7274C28.6527 20.9061 29.3249 20.9992 30.0007 21.0043C30.6769 20.9986 31.3493 20.9034 32.0005 20.7214V25.0039C32.0005 25.5561 32.4482 26.0038 33.0004 26.0038H35.0002V27.2827L30.0007 28.9495L25.0012 27.2827V26.0038H27.001C27.5532 26.0038 28.0009 25.5561 28.0009 25.0039ZM22.1935 11.7243C25.1623 11.1751 27.9465 9.89199 30.2927 7.99168C31.1757 10.9609 33.9023 12.9989 37 13.0052H37.436C36.1861 16.3598 33.0164 19.0046 30.0007 19.0046C26.5281 19.0046 23.0204 15.6389 22.1935 11.7243ZM34.0003 24.004V19.9195C36.2078 18.6771 37.9598 16.7608 38.9998 14.451V24.004H36.0001H34.0003V24.004ZM21.0016 14.454C22.0354 16.7687 23.7888 18.6876 26.0011 19.9255V24.004H21.0016V14.454ZM23.0014 26.0038V28.0036C23.0018 28.4338 23.2771 28.8155 23.6854 28.9515V28.9525L29.6847 30.9523C29.8901 31.0213 30.1123 31.0213 30.3177 30.9523L36.3171 28.9525C36.7251 28.8162 37.0002 28.434 37 28.0036V26.0038H39.7187L35.2192 44.002H24.7822L20.2827 26.0038H23.0014V26.0038ZM24.4613 46.0018H35.5401L39.5577 50.6883L30.0007 51.9922L20.4437 50.6923L24.4613 46.0018ZM18.0899 50.3673L16.2451 50.1164L22.5095 43.1551L22.9094 44.7439L18.0899 50.3673ZM37.1 44.7439L37.4999 43.1551L43.7643 50.1164L41.9155 50.3673L37.1 44.7439ZM8.00296 48.0016C8.00296 47.4494 8.45066 47.0017 9.00286 47.0017H12.0026C12.3605 47.0024 12.6915 46.8117 12.8705 46.5017L16.8701 39.5025C16.9572 39.3502 17.0027 39.1779 17.002 39.0025V28.0036C17.002 27.1868 17.4989 26.452 18.2569 26.1478L20.0907 33.4821L21.9235 40.8163L14.5573 49.0015H9.00286C8.45054 49.0015 8.00296 48.5538 8.00296 48.0016ZM30.0007 57.9916L10.7087 55.3598C9.62904 55.2172 8.86949 54.2264 9.01211 53.1468C9.14209 52.1628 9.98313 51.4289 10.9757 51.4332C11.0646 51.4332 11.1535 51.4396 11.2416 51.4522L18.3519 52.4221L29.6507 53.963L35.0032 57.3086L30.0007 57.9916ZM49.2927 55.3598L38.0999 56.8867L32.8714 53.619L41.6425 52.4191L48.7518 51.4492C49.8308 51.2979 50.8281 52.0499 50.9794 53.1289C50.9923 53.2207 50.9987 53.3133 50.9986 53.406C50.9951 54.3909 50.2681 55.2235 49.2927 55.3598ZM50.9986 49.0015H45.4441L38.0769 40.8153L39.9097 33.4811L41.7435 26.1468C42.5023 26.4509 42.9996 27.1862 42.9994 28.0036V39.0025C42.9988 39.1779 43.0443 39.3502 43.1314 39.5025L47.131 46.5017C47.3099 46.8117 47.6409 47.0024 47.9989 47.0017H50.9986C51.5508 47.0017 51.9985 47.4494 51.9985 48.0016C51.9985 48.5538 51.5508 49.0015 50.9986 49.0015Z" fill="#131315"/>
</g>
<defs>
<clipPath id="clip0">
<rect width="60" height="60" fill="white"/>
</clipPath>
</defs>
</svg>
