<svg width="60" height="60" viewBox="0 0 60 60" fill="none" xmlns="http://www.w3.org/2000/svg">
<g clip-path="url(#clip0)">
<path d="M28.5 19L7 18.5L6.5 43.5H28L28.5 19Z" fill="#1EA912"/>
<path d="M51.291 60.0004H28.0651C23.2623 60.0004 19.3555 56.0935 19.3555 51.2907C19.3555 46.4879 23.2623 42.5811 28.0651 42.5811H51.291C56.0938 42.5811 60.0006 46.4879 60.0006 51.2907C60.0006 56.0935 56.0938 60.0004 51.291 60.0004ZM28.0651 44.5165C24.3307 44.5165 21.291 47.5563 21.291 51.2907C21.291 55.0251 24.3307 58.0649 28.0651 58.0649H51.291C55.0254 58.0649 58.0652 55.0251 58.0652 51.2907C58.0652 47.5563 55.0254 44.5165 51.291 44.5165H28.0651Z" fill="black"/>
<path d="M38.709 43.5488H40.6445V59.0327H38.709V43.5488Z" fill="black"/>
<path d="M20.3226 52.2584H6.77419C3.03979 52.2584 0 49.2186 0 45.4842V16.4519C0 12.7175 3.03979 9.67773 6.77419 9.67773H28.0645C31.7989 9.67773 34.8387 12.7175 34.8387 16.4519V43.5487H32.9032V16.4519C32.9032 13.784 30.7324 11.6132 28.0645 11.6132H6.77419C4.10629 11.6132 1.93548 13.784 1.93548 16.4519V45.4842C1.93548 48.1521 4.10629 50.3229 6.77419 50.3229H20.3226V52.2584Z" fill="black"/>
<path d="M29.9992 10.6453H28.0637V6.77432C28.0637 6.24036 27.6299 5.80658 27.096 5.80658H7.74112C7.20716 5.80658 6.77337 6.24036 6.77337 6.77432V10.6453H4.83789V6.77432C4.83789 5.17386 6.14066 3.87109 7.74112 3.87109H27.096C28.6964 3.87109 29.9992 5.17386 29.9992 6.77432V10.6453Z" fill="black"/>
<path d="M8.70898 4.83887H10.6445V10.6453H8.70898V4.83887Z" fill="black"/>
<path d="M12.5801 4.83887H14.5156V10.6453H12.5801V4.83887Z" fill="black"/>
<path d="M16.4512 4.83887H18.3867V10.6453H16.4512V4.83887Z" fill="black"/>
<path d="M20.3223 4.83887H22.2577V10.6453H20.3223V4.83887Z" fill="black"/>
<path d="M24.1934 4.83887H26.1288V10.6453H24.1934V4.83887Z" fill="black"/>
<path d="M28.0638 4.83871H26.1283V2.90323C26.1283 2.36927 25.6945 1.93548 25.1605 1.93548H9.67666C9.1427 1.93548 8.70892 2.36927 8.70892 2.90323V4.83871H6.77344V2.90323C6.77344 1.30277 8.0762 0 9.67666 0H25.1605C26.761 0 28.0638 1.30277 28.0638 2.90323V4.83871Z" fill="black"/>
<path d="M29.0324 44.5157H5.80664V17.4189H29.0324V44.5157ZM7.74212 42.5802H27.097V19.3544H7.74212V42.5802Z" fill="black"/>
<path d="M17.4197 32.9029C14.2174 32.9029 11.6133 30.2988 11.6133 27.0965C11.6133 23.8942 14.2174 21.29 17.4197 21.29C20.6221 21.29 23.2262 23.8942 23.2262 27.0965C23.2262 30.2988 20.6221 32.9029 17.4197 32.9029ZM17.4197 23.2255C15.2848 23.2255 13.5488 24.9616 13.5488 27.0965C13.5488 29.2314 15.2848 30.9675 17.4197 30.9675C19.5546 30.9675 21.2907 29.2314 21.2907 27.0965C21.2907 24.9616 19.5546 23.2255 17.4197 23.2255Z" fill="black"/>
<path d="M9.67773 34.8389H25.1616V36.7744H9.67773V34.8389Z" fill="black"/>
<path d="M9.67773 38.71H11.6132V40.6454H9.67773V38.71Z" fill="black"/>
<path d="M13.5488 38.71H21.2908V40.6454H13.5488V38.71Z" fill="black"/>
<path d="M23.2266 38.71H25.162V40.6454H23.2266V38.71Z" fill="black"/>
<path d="M25.162 51.2899H23.2266C23.2266 48.622 25.3974 46.4512 28.0653 46.4512H30.9685V48.3867H28.0653C26.4648 48.3867 25.162 49.6894 25.162 51.2899Z" fill="black"/>
<path d="M32.9023 46.4512H34.8378V48.3867H32.9023V46.4512Z" fill="black"/>
<path d="M51.2898 40.6452C46.487 40.6452 42.5801 36.7383 42.5801 31.9355V8.70968C42.5801 3.90688 46.487 0 51.2898 0C56.0926 0 59.9994 3.90688 59.9994 8.70968V31.9355C59.9994 36.7383 56.0926 40.6452 51.2898 40.6452ZM51.2898 1.93548C47.5553 1.93548 44.5156 4.97527 44.5156 8.70968V31.9355C44.5156 35.6699 47.5553 38.7097 51.2898 38.7097C55.0242 38.7097 58.064 35.6699 58.064 31.9355V8.70968C58.064 4.97527 55.0242 1.93548 51.2898 1.93548Z" fill="black"/>
<path d="M43.5488 19.3545H59.0327V21.29H43.5488V19.3545Z" fill="black"/>
<path d="M56.1297 11.613H54.1942V8.7098C54.1942 7.10934 52.8915 5.80658 51.291 5.80658V3.87109C53.9589 3.87109 56.1297 6.0419 56.1297 8.7098V11.613Z" fill="black"/>
<path d="M54.1934 13.5488H56.1288V15.4843H54.1934V13.5488Z" fill="black"/>
</g>
<defs>
<clipPath id="clip0">
<rect width="60" height="60" fill="white"/>
</clipPath>
</defs>
</svg>
