<svg width="60" height="60" viewBox="0 0 60 60" fill="none" xmlns="http://www.w3.org/2000/svg">
<path d="M34.6875 14.7085H31.1719V12.3647H33.5156C34.1627 12.3647 34.6875 11.84 34.6875 11.1929C34.6875 10.5458 34.1627 10.021 33.5156 10.021H31.1719V7.67725H34.6875C35.3346 7.67725 35.8594 7.15248 35.8594 6.50537C35.8594 5.85826 35.3346 5.3335 34.6875 5.3335H30C29.3529 5.3335 28.8281 5.85826 28.8281 6.50537V15.8804C28.8281 16.5276 29.3529 17.0522 30 17.0522H34.6875C35.3346 17.0522 35.8594 16.5275 35.8594 15.8804C35.8594 15.2333 35.3346 14.7085 34.6875 14.7085Z" fill="#131315"/>
<path d="M44.0625 5.3335H39.375C38.7279 5.3335 38.2031 5.85826 38.2031 6.50537C38.2031 7.15248 38.7279 7.67725 39.375 7.67725H40.5469V15.8804C40.5469 16.5275 41.0716 17.0522 41.7188 17.0522C42.3659 17.0522 42.8906 16.5275 42.8906 15.8804V7.67725H44.0625C44.7096 7.67725 45.2344 7.15248 45.2344 6.50537C45.2344 5.85826 44.7096 5.3335 44.0625 5.3335Z" fill="#131315"/>
<path d="M18.2812 5.3335H15.9375C15.2904 5.3335 14.7656 5.85826 14.7656 6.50537V15.8804C14.7656 16.5276 15.2904 17.0522 15.9375 17.0522H18.2812C20.2198 17.0522 21.7969 15.4751 21.7969 13.5366V8.84912C21.7969 6.91061 20.2198 5.3335 18.2812 5.3335ZM19.4531 13.5366C19.4531 14.1828 18.9274 14.7085 18.2812 14.7085H17.1094V7.67725H18.2812C18.9274 7.67725 19.4531 8.20295 19.4531 8.84912V13.5366Z" fill="#131315"/>
<path d="M25.3125 10.021C24.6668 10.021 24.1406 10.5472 24.1406 11.1929V15.8804C24.1406 16.5261 24.6668 17.0522 25.3125 17.0522C25.9582 17.0522 26.4844 16.5261 26.4844 15.8804V11.1929C26.4844 10.5472 25.9582 10.021 25.3125 10.021Z" fill="#131315"/>
<path d="M25.3125 5.3335C24.6668 5.3335 24.1406 5.85967 24.1406 6.50537C24.1406 7.15107 24.6668 7.67725 25.3125 7.67725C25.9582 7.67725 26.4844 7.15107 26.4844 6.50537C26.4844 5.85967 25.9582 5.3335 25.3125 5.3335Z" fill="#131315"/>
<path d="M48.75 19.396H34.6875C34.0418 19.396 33.5156 19.9222 33.5156 20.5679C33.5156 21.2136 34.0418 21.7397 34.6875 21.7397H48.75C49.3957 21.7397 49.9219 21.2136 49.9219 20.5679C49.9219 19.9222 49.3957 19.396 48.75 19.396Z" fill="#131315"/>
<path d="M30 19.396C29.3543 19.396 28.8281 19.9222 28.8281 20.5679C28.8281 21.2136 29.3543 21.7397 30 21.7397C30.6457 21.7397 31.1719 21.2136 31.1719 20.5679C31.1719 19.9222 30.6457 19.396 30 19.396Z" fill="#131315"/>
<path d="M25.3125 19.396H11.25C10.6043 19.396 10.0781 19.9222 10.0781 20.5679C10.0781 21.2136 10.6043 21.7397 11.25 21.7397H25.3125C25.9582 21.7397 26.4844 21.2136 26.4844 20.5679C26.4844 19.9222 25.9582 19.396 25.3125 19.396Z" fill="#131315"/>
<path d="M56.4844 0.645996H3.51562C1.57711 0.645996 0 2.22311 0 4.16162V55.839C0 57.7775 1.57711 59.3546 3.51562 59.3546H56.4844C58.4229 59.3546 60 57.7775 60 55.839V4.16162C60 2.22311 58.4229 0.645996 56.4844 0.645996ZM8.23664 57.0108H3.51562C2.86945 57.0108 2.34375 56.4851 2.34375 55.839V51.1178H8.23664V57.0108ZM8.23664 48.7741H2.34375V42.8812H8.23664V48.7741ZM8.23664 40.5374H2.34375V34.6447H8.23664V40.5374ZM8.23664 32.3008H2.34375V26.4079H8.23664V32.3008ZM16.4732 57.0108H10.5804V51.1178H16.4732V57.0108ZM16.4732 48.7741H10.5804V42.8812H16.4732V48.7741ZM16.4732 40.5374H10.5804V34.6447H16.4732V40.5374ZM16.4732 32.3008H10.5804V26.4079H16.4732V32.3008ZM24.7098 57.0108H18.8169V51.1178H24.7098V57.0108ZM24.7098 48.7741H18.8169V42.8812H24.7098V48.7741ZM24.7098 40.5374H18.8169V34.6447H24.7098V40.5374ZM24.7098 32.3008H18.8169V26.4079H24.7098V32.3008ZM32.9464 57.0108H27.0537V51.1178H32.9464V57.0108ZM32.9464 48.7741H27.0537V42.8812H32.9464V48.7741ZM32.9464 40.5374H27.0537V34.6447H32.9464V40.5374ZM32.9464 32.3008H27.0537V26.4079H32.9464V32.3008ZM41.1831 57.0108H35.2902V51.1178H41.1831V57.0108ZM41.1831 48.7741H35.2902V42.8812H41.1831V48.7741ZM41.1831 40.5374H35.2902V34.6447H41.1831V40.5374ZM41.1831 32.3008H35.2902V26.4079H41.1831V32.3008ZM49.4196 57.0108H43.5268V51.1178H49.4196V57.0108V57.0108ZM49.4196 48.7741H43.5268V42.8812H49.4196V48.7741V48.7741ZM49.4196 40.5374H43.5268V34.6447H49.4196V40.5374V40.5374ZM49.4196 32.3008H43.5268V26.4079H49.4196V32.3008V32.3008ZM57.6562 55.839C57.6562 56.4851 57.1305 57.0108 56.4844 57.0108H51.7634V51.1178H57.6562V55.839ZM57.6562 48.7741H51.7634V42.8812H57.6562V48.7741ZM57.6562 40.5374H51.7634V34.6447H57.6562V40.5374ZM57.6562 32.3008H51.7634V26.4079H57.6562V32.3008ZM57.6562 24.0642H2.34375V4.16162C2.34375 3.51545 2.86945 2.98975 3.51562 2.98975H56.4844C57.1305 2.98975 57.6562 3.51545 57.6562 4.16162V24.0642Z" fill="#131315"/>
</svg>
