<svg width="60" height="60" viewBox="0 0 60 60" fill="none" xmlns="http://www.w3.org/2000/svg">
<path d="M16.4996 2.5L10.9996 7C10.3329 8 8.89957 10.2 8.49957 11C7.99957 12 8.49957 12 8.49957 13V14.5C8.49957 15.5 8.99957 15 8.99957 15.5C8.99957 16 9.49957 16.5 9.49957 17C9.49957 17.5 9.49957 18 9.99957 19C10.4996 20 10.4996 20 10.4996 20.5C10.4996 21 10.9996 21 10.9996 22C10.9996 23 11.4996 23 11.9996 23.5L12.9996 24.5C13.4996 25 13.9996 25 14.9996 26C15.7996 26.8 17.3329 27.3333 17.9996 27.5L22.9996 28L27.9996 26.5L31.9996 24L34.9996 20C35.1662 19 35.4996 16.4 35.4996 14C35.4996 11.6 34.1662 8 33.4996 6.5L26.9996 2L20.9996 1L16.4996 2.5Z" fill="#FD3B2F"/>
<path d="M55.1613 9.67742H35.9274C33.9281 4.04911 28.564 0 22.2581 0C15.9521 0 10.588 4.04911 8.58871 9.67742H4.83871C2.1708 9.67742 0 11.8482 0 14.5161V49.3548C0 52.0227 2.1708 54.1935 4.83871 54.1935H16.4516V58.0645H12.5806V60H47.4194V58.0645H43.5484V54.1935H55.1613C57.8292 54.1935 60 52.0227 60 49.3548V14.5161C60 11.8482 57.8292 9.67742 55.1613 9.67742ZM54.1935 15.4839V46.4516H5.80645V15.4839H7.79108C8.29243 23.0373 14.5809 29.0323 22.2581 29.0323C29.9353 29.0323 36.2237 23.0373 36.725 15.4839H54.1935ZM22.2581 1.93548C29.1948 1.93548 34.8387 7.57938 34.8387 14.5161C34.8387 21.4529 29.1948 27.0968 22.2581 27.0968C15.3213 27.0968 9.67742 21.4529 9.67742 14.5161C9.67742 7.57938 15.3213 1.93548 22.2581 1.93548ZM1.93548 14.5161C1.93548 12.9157 3.23825 11.6129 4.83871 11.6129H8.03396C7.90543 12.2428 7.83408 12.892 7.79013 13.5484H5.80645C4.73901 13.5484 3.87097 14.4164 3.87097 15.4839V46.4516H1.93548V14.5161ZM41.6129 58.0645H18.3871V54.1935H41.6129V58.0645ZM58.0645 49.3548C58.0645 50.9553 56.7617 52.2581 55.1613 52.2581H4.83871C3.23825 52.2581 1.93548 50.9553 1.93548 49.3548V48.3871H58.0645V49.3548ZM56.129 46.4516V15.4839C56.129 14.4164 55.261 13.5484 54.1935 13.5484H36.725C36.6811 12.892 36.6098 12.2428 36.4808 11.6129H55.1613C56.7617 11.6129 58.0645 12.9157 58.0645 14.5161V46.4516H56.129Z" fill="black"/>
<path d="M21.291 7.74219H23.2265V17.4196H21.291V7.74219Z" fill="black"/>
<path d="M21.291 19.3545H23.2265V21.29H21.291V19.3545Z" fill="black"/>
<path d="M22.2579 5.80658C27.0597 5.80658 30.9676 9.7144 30.9676 14.5163C30.9676 16.5193 30.2687 18.477 29.0009 20.0264L30.4993 21.2526C32.0496 19.3578 32.903 16.9654 32.903 14.5163C32.903 8.64696 28.1272 3.87109 22.2579 3.87109C19.8088 3.87109 17.4163 4.72448 15.5215 6.27486L16.7477 7.77325C18.2971 6.50545 20.2548 5.80658 22.2579 5.80658Z" fill="black"/>
<path d="M22.2584 25.1608C24.7076 25.1608 27.1 24.3075 28.9948 22.7571L27.7686 21.2587C26.2192 22.5265 24.2615 23.2254 22.2584 23.2254C17.4566 23.2254 13.5488 19.3175 13.5488 14.5157C13.5488 12.5126 14.2476 10.5549 15.5154 9.00551L14.017 7.7793C12.4667 9.67414 11.6133 12.0666 11.6133 14.5157C11.6133 20.385 16.3891 25.1608 22.2584 25.1608Z" fill="black"/>
<path d="M46.4512 19.3545H48.3867V21.29H46.4512V19.3545Z" fill="black"/>
<path d="M50.3223 19.3545H52.2578V21.29H50.3223V19.3545Z" fill="black"/>
<path d="M42.5801 19.3545H44.5156V21.29H42.5801V19.3545Z" fill="black"/>
<path d="M30.9668 30.9678H32.9023V32.9033H30.9668V30.9678Z" fill="black"/>
<path d="M34.8379 30.9678H36.7734V32.9033H34.8379V30.9678Z" fill="black"/>
<path d="M27.0977 30.9678H29.0331V32.9033H27.0977V30.9678Z" fill="black"/>
<path d="M15.4844 30.9678H17.4199V32.9033H15.4844V30.9678Z" fill="black"/>
<path d="M19.3555 30.9678H21.291V32.9033H19.3555V30.9678Z" fill="black"/>
<path d="M11.6133 30.9678H13.5488V32.9033H11.6133V30.9678Z" fill="black"/>
<path d="M38.709 23.2256H52.2574V25.1611H38.709V23.2256Z" fill="black"/>
<path d="M38.709 27.0967H52.2574V29.0322H38.709V27.0967Z" fill="black"/>
<path d="M38.709 30.9678H52.2574V32.9033H38.709V30.9678Z" fill="black"/>
<path d="M38.709 34.8389H52.2574V36.7744H38.709V34.8389Z" fill="black"/>
<path d="M38.709 38.71H52.2574V40.6454H38.709V38.71Z" fill="black"/>
<path d="M38.709 42.5811H52.2574V44.5165H38.709V42.5811Z" fill="black"/>
<path d="M23.2266 34.8389H36.775V36.7744H23.2266V34.8389Z" fill="black"/>
<path d="M23.2266 38.71H36.775V40.6454H23.2266V38.71Z" fill="black"/>
<path d="M23.2266 42.5811H36.775V44.5165H23.2266V42.5811Z" fill="black"/>
<path d="M7.74219 34.8389H21.2906V36.7744H7.74219V34.8389Z" fill="black"/>
<path d="M7.74219 38.71H21.2906V40.6454H7.74219V38.71Z" fill="black"/>
<path d="M7.74219 42.5811H21.2906V44.5165H7.74219V42.5811Z" fill="black"/>
</svg>
