<svg width="40" height="40" viewBox="0 0 40 40" fill="none" xmlns="http://www.w3.org/2000/svg">
<path d="M22.2222 18.5743L19.472 17.964C18.4258 17.7256 17.2216 17.4107 17.2216 16.4244C17.2216 15.4359 18.0663 14.7453 19.5913 14.7453C22.6647 14.7453 22.384 16.8574 23.9098 16.8574C24.7128 16.8574 25.4156 16.3853 25.4156 15.5735C25.4156 13.6793 22.384 12.2578 19.8123 12.2578C17.0205 12.2578 14.0475 13.4434 14.0475 16.6011C14.0475 18.1218 14.5907 19.7395 17.5833 20.4899L21.2991 21.4177C22.4236 21.6948 22.705 22.3274 22.705 22.8981C22.705 23.8472 21.7623 24.7743 20.0546 24.7743C16.7187 24.7743 17.1816 22.2072 15.3939 22.2072C14.5907 22.2072 14.0078 22.7604 14.0078 23.5499C14.0078 25.0892 15.8767 27.1434 20.0546 27.1434C24.0295 27.1434 25.9991 25.2275 25.9991 22.6616C25.9991 21.0048 25.2352 19.2457 22.2222 18.5743Z" fill="#00AFF0"/>
<path d="M20 0C8.95599 0 0 8.95599 0 20C0 31.044 8.95599 40 20 40C31.044 40 40 31.044 40 20C40 8.95599 31.044 0 20 0ZM30.4129 30.3833C29.0979 31.6989 27.3505 32.4219 25.4913 32.4219C24.2871 32.4219 23.1079 32.1088 22.0663 31.5195C21.3904 31.6394 20.6979 31.7026 20.007 31.7026C18.4195 31.7026 16.879 31.3913 15.4297 30.777C14.0283 30.1862 12.7713 29.3375 11.6907 28.2574C10.6113 27.1777 9.76349 25.9207 9.17175 24.52C8.55774 23.0698 8.24707 21.5302 8.24707 19.9423C8.24707 19.2624 8.30811 18.5815 8.42407 17.9153C7.85248 16.8872 7.54822 15.7239 7.54822 14.5401C7.54822 12.6807 8.27271 10.9323 9.5871 9.61761C10.9021 8.30231 12.6505 7.57812 14.5099 7.57812C15.6488 7.57812 16.7743 7.86224 17.7747 8.39417C17.7765 8.39386 17.7786 8.39386 17.7802 8.39325C18.5095 8.25348 19.2587 8.18298 20.007 8.18298C21.5942 8.18298 23.1345 8.49396 24.5837 9.10706C25.9836 9.6994 27.2421 10.5472 28.3212 11.6269C29.4019 12.7069 30.2493 13.9645 30.8417 15.365C31.4557 16.8149 31.7664 18.3548 31.7664 19.9423C31.7664 20.658 31.6989 21.3742 31.5704 22.074C32.146 23.1061 32.4521 24.2734 32.4521 25.4611C32.4518 27.3206 31.7282 29.0692 30.4129 30.3833Z" fill="#00AFF0"/>
</svg>
