<svg width="35" height="36" viewBox="0 0 35 36" fill="none" xmlns="http://www.w3.org/2000/svg">
<g clip-path="url(#clip0)">
<path d="M19.7968 27.4396C18.5295 28.7069 16.4675 28.7069 15.2003 27.4396C14.9409 27.1803 14.5204 27.1803 14.261 27.4396C14.0015 27.699 14.0015 28.1195 14.261 28.3789C15.1536 29.2715 16.3261 29.7178 17.4986 29.7178C18.671 29.7178 19.8435 29.2715 20.7361 28.3789C20.9956 28.1195 20.9956 27.699 20.7361 27.4396C20.4767 27.1803 20.0561 27.1803 19.7968 27.4396Z" fill="black"/>
<path d="M4.5 31.4951L3.5 33.9951V34.4951L7.5 34.9951L12 34.4951L14.5 33.4951V32.9951L11 31.4951L8 27.9951L6.5 23.9951L5 23.4951L4.5 27.4951V31.4951Z" fill="#FF9481"/>
<path d="M25 30.4951L21 32.9951L20.5 33.4951L24.5 34.9951L29 35.4951L32 34.4951L31 31.9951L30.5 26.9951L30 23.4951H28.5L28 26.4951L25 30.4951Z" fill="#FF9481"/>
<path d="M5.5 7.99512L4.5 11.4951V17.9951H6V17.4951L8.5 16.4951L11 14.9951C11.5 14.3285 12.5 13.0951 12.5 13.4951C13.7 15.4951 20.6667 17.6618 24 18.4951L28.5 18.9951L29 18.4951H30.5V17.9951V12.4951L29.5 7.49512L24 2.99512L17 1.49512L12.5 2.99512L10 4.99512L7.5 5.99512L5.5 7.99512Z" fill="#FF9481"/>
<path d="M32.5302 34.0293C30.9743 32.3064 30.9085 27.9162 31.0926 23.3737C31.7704 22.7372 32.195 21.834 32.195 20.8331C32.195 19.9541 31.8673 19.1507 31.3288 18.5367C31.5551 13.9036 31.6751 10.8052 30.2055 7.94436C29.2029 5.99228 27.5806 4.36125 25.3838 3.09662C22.8234 1.62276 19.9027 0.899279 16.9372 1.0053C14.3324 1.09812 11.9073 2.3117 10.235 4.34789C8.07571 4.47633 6.11142 5.65146 5.0546 7.46771C4.96385 7.62364 4.8761 7.78396 4.79374 7.94428C3.32328 10.8067 3.44325 13.9048 3.66958 18.5374C3.13133 19.1513 2.80404 19.9544 2.80404 20.8331C2.80404 21.8337 3.2283 22.7366 3.9057 23.3731C4.08985 27.9159 4.02401 32.3065 2.46812 34.0294C2.321 34.1923 2.26388 34.4174 2.31552 34.6308C2.36717 34.8442 2.52093 35.0183 2.72625 35.0959C4.47749 35.7576 6.17353 35.9943 7.70426 35.9943C9.29444 35.9943 10.7062 35.7387 11.8145 35.439C13.7403 34.9183 15.0985 34.1873 15.562 33.9176C16.1927 34.0215 16.8397 34.0765 17.4995 34.0765C18.159 34.0765 18.8059 34.0216 19.4364 33.9176C19.9 34.1875 21.2582 34.9183 23.1838 35.439C24.6622 35.8388 26.0328 35.9951 27.2727 35.9951C29.3381 35.9951 31.0405 35.5611 32.272 35.0958C32.4774 35.0181 32.6311 34.8441 32.6827 34.6307C32.7345 34.4174 32.6773 34.1923 32.5302 34.0293ZM29.372 22.2041V18.9067C29.3722 18.898 29.3722 18.8892 29.372 18.8804V18.7794C30.2382 19.0602 30.8665 19.8745 30.8665 20.833C30.8665 21.7992 30.2284 22.6191 29.3515 22.8936C29.3646 22.6653 29.372 22.4356 29.372 22.2041ZM5.97535 8.55127C6.04716 8.41154 6.12363 8.27173 6.20275 8.13582C7.07759 6.63232 8.75079 5.6855 10.5694 5.66483C10.5714 5.66483 10.5764 5.66474 10.5786 5.66466C10.7803 5.66043 10.9691 5.56478 11.0919 5.40471C12.5254 3.53491 14.6731 2.41523 16.9845 2.33279C19.701 2.2359 22.3763 2.89819 24.7209 4.24784C26.6923 5.38271 28.14 6.83058 29.0237 8.55127C30.2 10.8411 30.2349 13.3319 30.042 17.6118C29.8285 17.523 29.6043 17.4552 29.372 17.4101V16.7347C29.372 16.3679 29.0746 16.0705 28.7078 16.0705C28.341 16.0705 28.0436 16.3679 28.0436 16.7347V18.2432C18.8944 18.3409 13.9414 13.934 12.6198 12.5552C12.4643 12.393 12.2373 12.3204 12.0168 12.3622C11.7961 12.404 11.6114 12.5545 11.526 12.7623C10.5608 15.1101 8.8745 16.3384 6.21919 16.6279C5.88219 16.6646 5.62697 16.9492 5.62697 17.2882V17.41C5.39442 17.4551 5.17001 17.523 4.9563 17.612C4.76335 13.3331 4.79847 10.8423 5.97535 8.55127ZM5.6474 22.8937C4.77049 22.6192 4.13244 21.7992 4.13244 20.8331C4.13244 19.8745 4.76069 19.0602 5.62689 18.7794V22.2041C5.62689 22.4356 5.63428 22.6653 5.6474 22.8937ZM4.02484 34.1339C5.20928 32.1123 5.41468 28.7515 5.26407 24.1655C5.44042 24.22 5.62291 24.2602 5.80988 24.2861C6.56532 28.5392 9.59316 32.0161 13.5889 33.4141C11.6671 34.241 8.0298 35.3368 4.02484 34.1339ZM17.4995 32.7481C11.6854 32.7481 6.95529 28.0181 6.95529 22.204L6.95537 17.8678C9.44637 17.4579 11.2199 16.2317 12.3441 14.1393C13.3011 15.0123 14.8483 16.2096 17.0289 17.2589C20.3075 18.8367 24.0102 19.6149 28.0436 19.5718V22.204C28.0436 28.0181 23.3135 32.7481 17.4995 32.7481ZM23.5742 34.1684C22.7226 33.9407 21.9877 33.6657 21.4076 33.4149C25.4046 32.0176 28.4335 28.5401 29.1891 24.2861C29.3759 24.2602 29.5582 24.2201 29.7344 24.1657C29.5837 28.7522 29.789 32.113 30.974 34.1346C28.6283 34.8432 26.1434 34.8552 23.5742 34.1684Z" fill="black"/>
<path d="M9.55982 20.2361C9.30037 20.4955 9.30037 20.916 9.55982 21.1754C9.81919 21.4347 10.2397 21.4347 10.4991 21.1754C10.9248 20.7498 11.6174 20.7497 12.0432 21.1754C12.1729 21.305 12.3428 21.3699 12.5128 21.3699C12.6829 21.3699 12.8528 21.305 12.9825 21.1754C13.242 20.916 13.242 20.4955 12.9825 20.2361C12.0389 19.2924 10.5034 19.2924 9.55982 20.2361Z" fill="black"/>
<path d="M25.4376 21.1753C25.6971 20.916 25.6971 20.4954 25.4376 20.2361C24.4939 19.2924 22.9585 19.2924 22.0149 20.2361C21.7554 20.4954 21.7554 20.916 22.0149 21.1753C22.2743 21.4347 22.6948 21.4347 22.9542 21.1753C23.3799 20.7497 24.0726 20.7497 24.4983 21.1753C24.6279 21.305 24.7979 21.3699 24.9679 21.3699C25.138 21.3699 25.3079 21.305 25.4376 21.1753Z" fill="black"/>
</g>
<defs>
<clipPath id="clip0">
<rect width="35" height="35" fill="white" transform="translate(0 0.995117)"/>
</clipPath>
</defs>
</svg>
