<svg width="64" height="64" viewBox="0 0 64 64" fill="none" xmlns="http://www.w3.org/2000/svg">
<g clip-path="url(#clip0)">
<path d="M21.9805 50.6016C21.4627 50.6016 21.043 51.0213 21.043 51.5391V55.5471C21.043 56.0648 21.4627 56.4846 21.9805 56.4846C22.4982 56.4846 22.918 56.0648 22.918 55.5471V51.5391C22.918 51.0213 22.4982 50.6016 21.9805 50.6016Z" fill="#131315" stroke="#131315" stroke-width="0.25"/>
<path d="M42.0195 50.6016C41.5018 50.6016 41.082 51.0213 41.082 51.5391V55.5471C41.082 56.0648 41.5018 56.4846 42.0195 56.4846C42.5373 56.4846 42.957 56.0648 42.957 55.5471V51.5391C42.957 51.0213 42.5373 50.6016 42.0195 50.6016Z" fill="#131315" stroke="#131315" stroke-width="0.25"/>
<path d="M14.3824 30.6606C12.2054 29.5721 8.12379 29.5596 7.95104 29.5596C7.43342 29.5596 7.0138 29.9791 7.01367 30.4968C7.01355 31.0145 7.43305 31.4343 7.95079 31.4346C9.00554 31.4352 12.0662 31.5987 13.5439 32.3376C13.6785 32.405 13.8215 32.4367 13.9624 32.4367C14.3063 32.4367 14.6374 32.2467 14.8017 31.9183C15.0333 31.4552 14.8455 30.8921 14.3824 30.6606Z" fill="#131315" stroke="#131315" stroke-width="0.25"/>
<path d="M4.94531 48.5977C4.42756 48.5977 4.00781 49.0174 4.00781 49.5352V55.5473C4.00781 56.065 4.42756 56.4848 4.94531 56.4848C5.46306 56.4848 5.88281 56.065 5.88281 55.5473V49.5352C5.88281 49.0175 5.46318 48.5977 4.94531 48.5977Z" fill="#131315" stroke="#131315" stroke-width="0.25"/>
<path d="M61.8199 45.0964L58.0234 43.1984C58.0014 43.1874 57.9876 43.1652 57.9876 43.1407L57.9879 41.2326C59.5464 40.1594 60.6495 38.463 60.9255 36.472C61.6265 35.2606 61.9959 33.8923 61.9959 32.5011C61.9959 29.9067 60.7466 27.599 58.8185 26.1467C58.9315 25.7704 58.9899 25.3821 58.9899 24.986C58.9899 22.5352 56.7713 20.5414 54.0444 20.5414C51.3175 20.5414 49.0989 22.5352 49.0989 24.986C49.0989 25.3826 49.1567 25.771 49.2697 26.1471C48.12 27.0131 47.2135 28.1841 46.6678 29.5378C46.4354 27.2542 46.1934 24.5546 45.9613 21.4099C45.655 17.2606 44.1628 13.7566 41.646 11.2769C39.1484 8.81588 35.8128 7.51514 31.9999 7.51514C28.1871 7.51514 24.8515 8.81588 22.3541 11.2768C19.8373 13.7566 18.3451 17.2606 18.0388 21.4097C17.9575 22.5114 17.875 23.5555 17.7921 24.5494H8.95361C5.67411 24.5494 3.00599 27.2175 3.00599 30.497V30.5528C3.00599 31.3166 3.18649 32.0815 3.52812 32.7646L4.00799 33.7245V35.2551C4.00799 37.6808 5.20337 39.8574 7.01399 41.1673V42.5213C7.01399 42.6949 6.89736 42.8494 6.73049 42.8972L2.86012 44.0031C1.17612 44.4841 0 46.0433 0 47.7947V55.5473C0 56.065 0.419749 56.4848 0.937498 56.4848C1.45525 56.4848 1.875 56.065 1.875 55.5473V47.7947C1.875 46.8759 2.492 46.0581 3.37524 45.8057L7.24574 44.6998C7.38536 44.6599 7.51799 44.6058 7.64424 44.5416L10.0201 46.9174V55.5473C10.0201 56.065 10.4399 56.4848 10.9576 56.4848C11.4754 56.4848 11.8951 56.065 11.8951 55.5473V46.9174L14.2876 44.5249C14.6073 44.6818 14.926 44.7731 15.1595 44.8398L16.1098 45.1113C14.822 46.0271 14.0282 47.5207 14.0282 49.1403V55.547C14.0282 56.0648 14.448 56.4845 14.9657 56.4845C15.4835 56.4845 15.9032 56.0648 15.9032 55.547V49.1403C15.9032 47.9251 16.6216 46.8226 17.7333 46.3316L23.0933 43.9642C24.773 47.3278 28.2052 49.4706 32.0001 49.4706C35.8091 49.4706 39.2298 47.3326 40.9084 43.9649L46.2668 46.3316C47.3785 46.8226 48.0969 47.9251 48.0969 49.1403V55.547C48.0969 56.0648 48.5167 56.4845 49.0344 56.4845C49.5522 56.4845 49.9719 56.0648 49.9719 55.547V49.1403C49.9719 47.9411 49.536 46.8113 48.7879 45.9331L50.2388 45.2077L51.3279 46.2427C52.0896 46.9667 53.0669 47.3284 54.0445 47.3284C55.0218 47.3284 55.9995 46.9664 56.761 46.2427L57.85 45.2078L60.9815 46.7734C61.6869 47.1261 62.125 47.8351 62.125 48.6237V55.5472C62.125 56.0649 62.5448 56.4847 63.0625 56.4847C63.5803 56.4847 64 56.0649 64 55.5472V48.6237C63.9999 47.1204 63.1645 45.7688 61.8199 45.0964ZM54.0443 22.4162C55.7373 22.4162 57.1148 23.569 57.1148 24.9859C57.1148 25.0452 57.11 25.1041 57.1053 25.1629C56.1625 24.7681 55.1285 24.5494 54.0443 24.5494C52.9602 24.5494 51.9263 24.7681 50.9838 25.1627C50.9789 25.104 50.9738 25.0452 50.9738 24.9859C50.9738 23.569 52.3513 22.4162 54.0443 22.4162ZM10.9577 45.2034L8.82148 43.0672C8.86561 42.8912 8.88923 42.7081 8.88923 42.5212V42.1257C9.47898 42.3193 10.101 42.4342 10.7446 42.4534C10.8167 42.4557 10.8885 42.4567 10.9604 42.4567C11.6714 42.4567 12.3655 42.3493 13.026 42.1444V42.5208C13.026 42.7242 13.0468 42.9087 13.084 43.0772L10.9577 45.2034ZM10.8009 40.5791C8.08911 40.4979 5.88299 38.1094 5.88299 35.2551V33.5031C5.88299 33.3576 5.84911 33.214 5.78399 33.0838L5.20511 31.9261C4.99312 31.5018 4.88099 31.0271 4.88099 30.5528V30.497C4.88099 28.2513 6.70799 26.4243 8.95361 26.4243H17.0343V30.3162C17.0343 30.9451 16.8857 31.575 16.6043 32.1375L16.1312 33.0837C16.0661 33.214 16.0322 33.3575 16.0322 33.503V35.507C16.0322 36.8912 15.485 38.1847 14.4912 39.1489C13.498 40.1127 12.1866 40.6211 10.8009 40.5791ZM18.6362 43.8831L15.6746 43.0369C14.9008 42.8159 14.901 42.7297 14.901 42.5211L14.9012 41.2294C15.2161 41.0113 15.5163 40.7672 15.7972 40.4946C15.9862 40.3112 16.1622 40.1182 16.3272 39.9182C16.4778 40.2237 16.7087 40.4906 17.0071 40.6837C17.7586 41.1703 19.1767 41.9787 21.2622 42.7232L18.6362 43.8831ZM31.9999 47.5957C28.9497 47.5957 26.1872 45.8907 24.8096 43.2063L26.1742 42.6036C27.2392 42.1332 27.9273 41.0771 27.9273 39.9128V37.6633C29.1869 38.1695 30.5614 38.4486 31.9999 38.4486C33.4384 38.4486 34.8128 38.1695 36.0726 37.6633V39.9128C36.0726 41.0771 36.7607 42.1333 37.8257 42.6036L39.19 43.2062C37.8134 45.8936 35.0616 47.5957 31.9999 47.5957ZM40.1292 41.5712L38.5832 40.8883C38.1971 40.7178 37.9476 40.3348 37.9476 39.9127V36.6896C40.9603 34.735 42.9577 31.3418 42.9577 27.4908V25.733C42.9577 24.5905 42.4719 23.5127 41.6249 22.7762C39.7413 21.138 35.4774 18.2791 28.0852 17.5399C27.5713 17.4884 27.1106 17.8641 27.0591 18.3795C27.0076 18.8947 27.3834 19.3541 27.8987 19.4056C34.7743 20.0931 38.6789 22.699 40.3945 24.1911C40.8319 24.5714 41.0827 25.1335 41.0827 25.733V27.4908C41.0827 32.499 37.0082 36.5735 32.0001 36.5735C26.9919 36.5735 22.9175 32.499 22.9175 27.4908V26.7066C22.9175 26.3463 23.1172 26.0163 23.4517 25.8237C24.6238 25.1489 26.1696 23.8986 26.8774 21.7752C27.0412 21.2841 26.7757 20.7531 26.2844 20.5894C25.7935 20.4256 25.2623 20.6911 25.0986 21.1824C24.5771 22.7469 23.4063 23.6862 22.5161 24.1989C21.6071 24.7222 21.0423 25.6832 21.0423 26.7067V27.491C21.0423 31.3421 23.0396 34.7351 26.0525 36.6897V39.9128C26.0525 40.3349 25.803 40.7178 25.4168 40.8884L23.8707 41.5713C20.8512 40.7634 18.9165 39.6863 18.0261 39.1099C18.0083 39.0984 17.9983 39.0853 18.0033 39.0557C18.3303 37.1227 19.1706 31.5471 19.9088 21.5479C20.1811 17.8585 21.4817 14.7685 23.6701 12.6123C25.8094 10.5044 28.6898 9.39013 31.9999 9.39013C35.3101 9.39013 38.1904 10.5044 40.3298 12.6123C42.5182 14.7685 43.8188 17.8584 44.0912 21.5477C44.8293 31.5466 45.6695 37.1225 45.9967 39.0556C46.0017 39.0853 45.9917 39.0984 45.9738 39.1099C45.0822 39.6871 43.1474 40.7636 40.1292 41.5712ZM50.1008 43.1406C50.1008 43.1652 50.0872 43.1873 50.0652 43.1983L47.1279 44.6669C47.093 44.6506 47.0595 44.6322 47.0243 44.6166L42.7379 42.7234C44.8224 41.9792 46.2403 41.1712 46.9928 40.6839C47.6393 40.2653 47.974 39.5036 47.8454 38.743C47.8384 38.7013 47.8308 38.6557 47.8233 38.6107C48.3505 39.6709 49.1389 40.5703 50.1008 41.2326V43.1406ZM55.469 44.8837C54.6701 45.6432 53.4184 45.6431 52.6193 44.8837L51.7479 44.0557C51.8949 43.7802 51.9757 43.4677 51.9757 43.1406V42.1429C52.6304 42.3461 53.3249 42.4566 54.0441 42.4566C54.7633 42.4566 55.4579 42.3461 56.1125 42.1429L56.1124 43.1403C56.1124 43.4677 56.1931 43.7802 56.3403 44.0558L55.469 44.8837ZM54.0443 40.5814C51.4485 40.5814 49.2805 38.6377 49.0014 36.0601C48.9864 35.922 48.941 35.789 48.8683 35.6705C48.279 34.7108 47.9677 33.6148 47.9677 32.5008C47.9677 29.1503 50.6935 26.4243 54.0443 26.4243C57.3949 26.4243 60.1209 29.1503 60.1209 32.501C60.1209 33.1468 60.0155 33.7866 59.8126 34.3973C57.1506 31.693 52.4678 30.6331 52.242 30.5833C51.9648 30.5222 51.6745 30.5902 51.453 30.7681C51.2317 30.9461 51.1028 31.2148 51.1028 31.4988C51.1028 31.505 51.06 32.1553 50.3754 32.84C50.0093 33.2061 50.0093 33.7997 50.3754 34.1657C50.7415 34.5318 51.3352 34.5318 51.7011 34.1657C52.2284 33.6385 52.5382 33.1033 52.7199 32.6515C54.2974 33.1201 57.5715 34.3036 59.0409 36.381C58.6239 38.7971 56.5309 40.5814 54.0443 40.5814Z" fill="#131315" stroke="#131315" stroke-width="0.25"/>
<path d="M59.0547 49.8364C58.5369 49.8364 58.1172 50.2562 58.1172 50.7739V55.5473C58.1172 56.065 58.5369 56.4848 59.0547 56.4848C59.5724 56.4848 59.9922 56.065 59.9922 55.5473V50.7739C59.9922 50.2562 59.5724 49.8364 59.0547 49.8364Z" fill="#131315" stroke="#131315" stroke-width="0.25"/>
</g>
<defs>
<clipPath id="clip0">
<rect width="64" height="64" fill="white"/>
</clipPath>
</defs>
</svg>
