<svg width="60" height="60" viewBox="0 0 60 60" fill="none" xmlns="http://www.w3.org/2000/svg">
<g clip-path="url(#clip0)">
<path d="M14.5156 3.87109H24.193V5.80658H14.5156V3.87109Z" fill="black"/>
<path d="M43.5 34V24.5L38 24L30 14L30.5 12.5L32.5 11.5L40 19.5L46 18L48.5 20.5L47 28.5L49.5 30.5L51.5 28.5L50 20.5L52.5 18.5L55.5 19L58.5 20L59 36L58.5 38L57 38.5H55V34H43.5Z" fill="#1FC9FF"/>
<path d="M17.4195 11.6133H15.4841V22.2584H13.5486V14.5165H11.6131V22.2584H9.67761V17.4197H7.74212V22.2584H5.80664V24.1939H19.355V22.2584H17.4195V11.6133Z" fill="black"/>
<path d="M5.80664 26.1289H7.74212V28.0644H5.80664V26.1289Z" fill="black"/>
<path d="M9.67773 26.1289H19.3552V28.0644H9.67773V26.1289Z" fill="black"/>
<path d="M57.0968 39.6774C58.6972 39.6774 60 38.3747 60 36.7742V21.873C60 19.9587 58.5706 18.3115 56.6767 18.0407L53.2258 17.5479V15.929C54.4104 14.8653 55.1613 13.3277 55.1613 11.6129V9.67742C55.1613 6.47508 52.5572 3.87097 49.3548 3.87097C46.1525 3.87097 43.5484 6.47508 43.5484 9.67742V11.6129C43.5484 13.3268 44.2992 14.8644 45.4839 15.929V17.5479L40.0606 18.3233L36.7298 14.5161H36.7742V9.67742H38.7097V3.87097H28.4652L24.5943 0H14.1154L10.2445 3.87097H0V9.67742H1.93548V32.9032H0V38.7097H9.67742V41.431L3.20895 58.0645H0V60H60V58.0645H56.129V39.4993C56.4329 39.608 56.7561 39.6774 57.0968 39.6774ZM50.2711 27.7153L49.3548 28.6316L48.4386 27.7153L49.2424 21.2837C49.2802 21.2847 49.3161 21.2903 49.3548 21.2903C49.3936 21.2903 49.4295 21.2847 49.4673 21.2837L50.2711 27.7153ZM45.4839 9.67742C45.4839 7.54253 47.2199 5.80645 49.3548 5.80645C51.4897 5.80645 53.2258 7.54253 53.2258 9.67742V11.6129C53.2258 13.7478 51.4897 15.4839 49.3548 15.4839C47.2199 15.4839 45.4839 13.7478 45.4839 11.6129V9.67742ZM49.3548 17.4194C50.0343 17.4194 50.6836 17.2956 51.2903 17.0805V18.1211C51.0503 18.4915 50.3835 19.3548 49.3548 19.3548C48.3242 19.3548 47.6566 18.4877 47.4194 18.1211V17.0805C48.0261 17.2956 48.6753 17.4194 49.3548 17.4194ZM45.9744 19.4323C46.2678 19.8278 46.7285 20.3391 47.3612 20.7242L46.4001 28.4137L49.3548 31.3684L52.3096 28.4137L51.3484 20.7242C51.9821 20.3382 52.4428 19.8278 52.7353 19.4323L56.4031 19.9559C57.3505 20.0915 58.0645 20.9156 58.0645 21.872V36.7742C58.0645 37.3072 57.6298 37.7419 57.0968 37.7419C56.5638 37.7419 56.129 37.3072 56.129 36.7742V23.2258H54.1935V32.9032H44.5161V23.2258H38.6719C38.3765 23.2258 38.1011 23.093 37.9163 22.8629L31.1931 14.459C31.0481 14.277 30.9677 14.0488 30.9677 13.8154V13.6093C30.9677 13.0423 31.4294 12.5806 31.9964 12.5806C32.2937 12.5806 32.5762 12.7082 32.7714 12.9317L39.2942 20.3864L45.9744 19.4323ZM16.4516 42.5806V58.0645H9.15669L15.1781 42.5806H16.4516ZM18.3871 42.5806H20.3226V58.0645H18.3871V42.5806ZM22.2581 42.5806H23.5315L29.553 58.0645H22.2581V42.5806ZM25.6083 42.5806H27.4025L33.424 58.0645H31.6298L25.6083 42.5806ZM29.0323 41.431V38.7097H38.7097V32.9032H36.7742V24.4402C37.2987 24.8971 37.9626 25.1613 38.6719 25.1613H42.5806V58.0645H35.5007L29.0323 41.431ZM44.5161 34.8387H48.3871V58.0645H44.5161V34.8387ZM1.93548 5.80645H11.0459L14.9168 1.93548H23.7928L27.6638 5.80645H36.7742V7.74194H1.93548V5.80645ZM3.87097 9.67742H34.8387V12.3552L34.2282 11.6573C33.6649 11.0137 32.8517 10.6452 31.9964 10.6452C30.3629 10.6452 29.0323 11.9758 29.0323 13.6093V13.8154C29.0323 14.4849 29.2624 15.1432 29.6815 15.6677L34.8387 22.1139V32.9032H3.87097V9.67742ZM1.93548 34.8387H36.7742V36.7742H1.93548V34.8387ZM27.0968 38.7097V40.6452H11.6129V38.7097H27.0968ZM11.3072 42.5806H13.1014L7.07992 58.0645H5.28572L11.3072 42.5806ZM50.3226 58.0645V34.8387H54.1935V58.0645H50.3226Z" fill="black"/>
<path d="M27.0975 19.3545C23.8951 19.3545 21.291 21.9586 21.291 25.1609C21.291 28.3633 23.8951 30.9674 27.0975 30.9674C30.2998 30.9674 32.9039 28.3633 32.9039 25.1609C32.9039 21.9586 30.2998 19.3545 27.0975 19.3545ZM26.1297 21.4275V24.1932H23.364C23.716 22.8394 24.7759 21.7795 26.1297 21.4275ZM23.364 26.1287H26.1297V28.8944C24.7759 28.5424 23.716 27.4825 23.364 26.1287ZM28.0652 28.8944V21.4275C29.7299 21.8598 30.9684 23.363 30.9684 25.1609C30.9684 26.9589 29.7299 28.462 28.0652 28.8944Z" fill="black"/>
</g>
<defs>
<clipPath id="clip0">
<rect width="60" height="60" fill="white"/>
</clipPath>
</defs>
</svg>
