<svg width="60" height="60" viewBox="0 0 60 60" fill="none" xmlns="http://www.w3.org/2000/svg">
<path d="M25.6305 29.6769C25.4113 29.4589 25.1102 29.3335 24.802 29.3335C24.4926 29.3335 24.1902 29.4589 23.9723 29.6769C23.7543 29.8948 23.6289 30.1972 23.6289 30.5054C23.6289 30.8136 23.7543 31.1159 23.9723 31.3339C24.1914 31.553 24.4926 31.6772 24.802 31.6772C25.1102 31.6772 25.4113 31.553 25.6305 31.3339C25.8484 31.1159 25.9727 30.8136 25.9727 30.5054C25.9727 30.1972 25.8484 29.8948 25.6305 29.6769Z" fill="#131315"/>
<path d="M28.5746 26.2245C28.3566 26.0065 28.0543 25.8823 27.7461 25.8823C27.4379 25.8823 27.1355 26.0065 26.9176 26.2245C26.6996 26.4437 26.5742 26.7448 26.5742 27.0542C26.5742 27.3624 26.6996 27.6647 26.9176 27.8827C27.1355 28.1007 27.4379 28.2261 27.7461 28.2261C28.0543 28.2261 28.3566 28.1007 28.5746 27.8827C28.7926 27.6636 28.918 27.3624 28.918 27.0542C28.918 26.746 28.7926 26.4437 28.5746 26.2245Z" fill="#131315"/>
<path d="M30.7066 22.5692C30.4875 22.3513 30.1863 22.2271 29.8769 22.2271C29.5687 22.2271 29.2664 22.3513 29.0484 22.5692C28.8305 22.7884 28.7051 23.0907 28.7051 23.3989C28.7051 23.7071 28.8305 24.0095 29.0484 24.2274C29.2664 24.4454 29.5687 24.5708 29.8769 24.5708C30.1863 24.5708 30.4875 24.4454 30.7066 24.2274C30.9246 24.0095 31.0488 23.7071 31.0488 23.3989C31.0488 23.0907 30.9246 22.7884 30.7066 22.5692Z" fill="#131315"/>
<path d="M40.8809 41.5522C40.234 41.5522 39.709 42.0772 39.709 42.7241C39.709 43.3698 40.234 43.896 40.8809 43.896C41.5266 43.896 42.0527 43.3698 42.0527 42.7241C42.0527 42.0772 41.5266 41.5522 40.8809 41.5522Z" fill="#131315"/>
<path d="M51.2132 8.78672C45.5469 3.12059 38.0133 0 30 0C21.9867 0 14.4531 3.12059 8.78672 8.78672C3.12047 14.4531 0 21.9867 0 30C0 38.0133 3.12047 45.5469 8.78672 51.2132C14.4531 56.8794 21.9867 60 30 60C38.0133 60 45.5469 56.8794 51.2132 51.2132C56.8795 45.5469 60 38.0133 60 30C60 21.9867 56.8795 14.4531 51.2132 8.78672ZM30 57.6562C14.7503 57.6562 2.34375 45.2497 2.34375 30C2.34375 14.7503 14.7503 2.34375 30 2.34375C45.2497 2.34375 57.6562 14.7503 57.6562 30C57.6562 45.2497 45.2497 57.6562 30 57.6562Z" fill="#131315"/>
<path d="M50.5139 19.6627C50.3445 19.3271 50.0244 19.0932 49.6532 19.0338C49.2821 18.9744 48.905 19.0965 48.6391 19.3623L19.3609 48.6404C19.0951 48.9062 18.9728 49.2834 19.0324 49.6545C19.0919 50.0257 19.3258 50.3457 19.6613 50.5152C22.8867 52.1435 26.3647 52.9691 29.999 52.9691C42.6641 52.9691 52.9678 42.6654 52.9678 30.0003C52.9678 26.3661 52.1422 22.888 50.5139 19.6627ZM40.9204 30.3955C40.7067 30.6129 40.5835 30.9108 40.5835 31.2168C40.5835 31.525 40.7089 31.8274 40.9269 32.0454C41.1448 32.2633 41.4472 32.3887 41.7554 32.3887C42.0636 32.3887 42.3659 32.2633 42.5839 32.0454C42.8019 31.8274 42.9273 31.525 42.9273 31.2168C42.9273 30.9086 42.8019 30.6063 42.5839 30.3883C42.3659 30.1704 42.0636 30.045 41.7554 30.045C41.4503 30.045 41.1514 30.1681 40.9339 30.3819L42.7893 28.5265C43.5109 29.629 44.1631 30.7225 44.7164 31.8003C44.9108 32.1856 44.9323 32.506 44.7807 32.7525C44.5273 33.164 43.8317 33.4299 43.0084 33.4299H37.886L40.9204 30.3955ZM29.999 50.6253C27.2891 50.6253 24.6766 50.1146 22.211 49.1048L27.4192 43.8965H36.1878C36.8335 43.8965 37.3597 43.3704 37.3597 42.7247C37.3597 42.0778 36.8335 41.5528 36.1878 41.5528H29.7631L31.4811 39.8348H43.0075C43.6548 39.8348 44.1794 39.3102 44.1794 38.6629C44.1794 38.0157 43.6548 37.4911 43.0075 37.4911H33.8248L35.5422 35.7737H43.0073C43.0073 35.7737 43.0081 35.7737 43.0085 35.7737C44.677 35.7737 46.0857 35.1035 46.7766 33.9812C47.3668 33.0226 47.3782 31.8732 46.8052 30.7374C46.1411 29.4434 45.3518 28.1407 44.4803 26.8356L49.1034 22.2125C50.1133 24.678 50.624 27.2904 50.624 30.0003C50.624 41.373 41.3717 50.6253 29.999 50.6253Z" fill="#131315"/>
<path d="M46.0898 13.6106C41.7686 9.36785 36.0545 7.03125 30 7.03125C17.335 7.03125 7.03125 17.335 7.03125 30C7.03125 36.0545 9.36785 41.7686 13.6106 46.0898C13.8296 46.313 14.1288 46.4393 14.4415 46.4407C14.4432 46.4407 14.445 46.4407 14.4469 46.4407C14.7575 46.4407 15.0557 46.3173 15.2755 46.0975L46.0976 15.2754C46.3185 15.0544 46.4421 14.7541 46.4407 14.4415C46.4393 14.1288 46.313 13.8296 46.0898 13.6106ZM35.8908 22.1675C35.3694 21.5224 33.6821 19.4521 33.4736 19.1966C33.2509 18.9212 32.9193 18.763 32.5642 18.763C32.2958 18.763 32.0345 18.8568 31.8259 19.0255C31.5833 19.2236 31.431 19.5036 31.3993 19.8154C31.3677 20.1259 31.4579 20.4306 31.6548 20.6732C31.6548 20.6743 31.6548 20.6743 31.656 20.6743C31.9267 21.0071 33.6452 23.1172 34.2239 23.8344L24.6287 33.4296H21.8755C20.9523 33.4296 20.445 33.1182 20.291 32.8515C20.1104 32.5386 20.3127 32.0948 20.4451 31.8654C22.2843 28.7323 24.7907 25.4372 27.2145 22.2506C28.525 20.5277 29.88 18.7462 31.0936 17.0351C31.3782 16.6371 31.8434 16.1625 32.4427 16.1625C32.9416 16.1625 33.4889 16.4944 33.9776 17.0895C34.5166 17.7573 35.0658 18.431 35.6184 19.1092C36.1155 19.719 36.6139 20.3325 37.1112 20.9473L35.8908 22.1675ZM18.0013 33.4296H16.6788C15.855 33.4296 15.1589 33.1636 14.9055 32.7519C14.7539 32.5056 14.7756 32.1853 14.9661 31.8073C17.087 27.6755 20.636 23.3211 24.0682 19.1101C24.6212 18.4316 25.1706 17.7575 25.7038 17.0971C26.1987 16.4944 26.7459 16.1625 27.2448 16.1625C27.7177 16.1625 28.1066 16.458 28.3897 16.7783C27.4107 18.1201 26.3668 19.4934 25.3489 20.8316C22.8834 24.073 20.334 27.4248 18.4195 30.6861C17.8774 31.6254 17.7366 32.578 18.0013 33.4296ZM38.7779 19.2805C38.3303 18.728 37.8821 18.1767 37.4352 17.6285C36.8848 16.9532 36.338 16.2824 35.795 15.6097C34.8468 14.4548 33.6561 13.8189 32.4427 13.8189C31.4936 13.8189 30.5965 14.2024 29.8437 14.9154C29.0918 14.2034 28.1945 13.8189 27.2449 13.8189C26.0316 13.8189 24.8409 14.4548 23.8863 15.6173C23.3493 16.2826 22.8022 16.9537 22.2516 17.6293C18.7429 21.9343 15.1146 26.3858 12.8774 30.7444C12.3083 31.8728 12.3197 33.022 12.9097 33.9805C13.6007 35.103 15.0097 35.7732 16.6789 35.7732H22.2851L20.5677 37.4906H15.1563C14.5091 37.4906 13.9845 38.0153 13.9845 38.6625C13.9845 39.3097 14.5091 39.8344 15.1563 39.8344H18.2239L14.478 43.5803C11.1785 39.8184 9.375 35.0406 9.375 30C9.375 18.6273 18.6273 9.375 30 9.375C35.0406 9.375 39.8184 11.1785 43.5804 14.4779L38.7779 19.2805Z" fill="#131315"/>
</svg>
