<svg width="40" height="40" viewBox="0 0 40 40" fill="none" xmlns="http://www.w3.org/2000/svg">
<path d="M20 40C31.0457 40 40 31.0457 40 20C40 8.9543 31.0457 0 20 0C8.9543 0 0 8.9543 0 20C0 31.0457 8.9543 40 20 40Z" fill="#6F3FAA"/>
<path d="M30.5795 14.0571L30.573 14.0307C30.0386 11.8703 27.6294 9.55215 25.4169 9.06988L25.392 9.06473C21.8134 8.38207 18.1848 8.38207 14.607 9.06473L14.5813 9.06988C12.3696 9.55215 9.96031 11.8704 9.42523 14.0307L9.4193 14.0571C8.75867 17.074 8.75867 20.1337 9.4193 23.1507L9.42523 23.1771C9.93758 25.2452 12.1673 27.4569 14.2973 28.0651V30.4767C14.2973 31.3496 15.3609 31.7782 15.9658 31.1483L18.4091 28.6086C18.9391 28.6382 19.4694 28.6547 19.9995 28.6547C21.8008 28.6547 23.603 28.4843 25.3919 28.1431L25.4168 28.1379C27.6293 27.6557 30.0385 25.3374 30.5729 23.1771L30.5795 23.1507C31.2401 20.1337 31.2401 17.0742 30.5795 14.0571ZM28.6459 22.7132C28.2891 24.1227 26.4598 25.8749 25.0064 26.1986C23.1037 26.5605 21.1858 26.7151 19.2698 26.6621C19.2317 26.661 19.1951 26.6758 19.1686 26.7032C18.8966 26.9822 17.3846 28.5346 17.3846 28.5346L15.4871 30.4821C15.3484 30.6268 15.1046 30.5282 15.1046 30.3286V26.3336C15.1046 26.2676 15.0575 26.2116 14.9927 26.1988C14.9923 26.1986 14.992 26.1986 14.9916 26.1986C13.5381 25.8748 11.7095 24.1226 11.3521 22.7132C10.7575 19.9861 10.7575 17.2216 11.3521 14.4946C11.7095 13.0851 13.5381 11.3329 14.9916 11.0092C18.3147 10.3771 21.6841 10.3771 25.0065 11.0092C26.4606 11.3329 28.2891 13.0851 28.6459 14.4946C29.2412 17.2217 29.2412 19.9862 28.6459 22.7132Z" fill="white"/>
<path d="M23.1605 24.5575C22.9371 24.4896 22.7242 24.444 22.5263 24.3621C20.477 23.5118 18.5911 22.415 17.0973 20.7336C16.2477 19.7775 15.5828 18.6981 15.0208 17.5557C14.7542 17.014 14.5296 16.4511 14.3006 15.8917C14.0919 15.3817 14.3994 14.8549 14.7231 14.4705C15.027 14.1098 15.418 13.8339 15.8414 13.6303C16.1719 13.4716 16.4978 13.5632 16.7392 13.8432C17.2609 14.4489 17.7403 15.0854 18.1283 15.7875C18.367 16.2192 18.3015 16.7471 17.8689 17.0409C17.7637 17.1123 17.668 17.1962 17.5701 17.2768C17.4841 17.3475 17.4034 17.4189 17.3445 17.5146C17.2369 17.6897 17.2317 17.8964 17.3009 18.0867C17.8343 19.5525 18.7333 20.6923 20.2087 21.3063C20.4448 21.4045 20.6818 21.5188 20.9538 21.4871C21.4093 21.4339 21.5568 20.9342 21.876 20.6732C22.188 20.4182 22.5867 20.4148 22.9227 20.6275C23.2589 20.8403 23.5847 21.0685 23.9086 21.2994C24.2266 21.526 24.543 21.7474 24.8362 22.0058C25.1183 22.2542 25.2154 22.58 25.0566 22.9169C24.7659 23.5342 24.3429 24.0475 23.7328 24.3753C23.5605 24.4677 23.3548 24.4976 23.1605 24.5575C22.9371 24.4896 23.3548 24.4976 23.1605 24.5575Z" fill="white"/>
<path d="M20.0045 12.9249C22.6849 13 24.8866 14.7789 25.3584 17.4289C25.4388 17.8804 25.4674 18.342 25.5031 18.8004C25.5182 18.9931 25.409 19.1762 25.201 19.1788C24.9862 19.1814 24.8895 19.0015 24.8755 18.809C24.8479 18.4275 24.8288 18.0443 24.7762 17.6662C24.4988 15.6694 22.9066 14.0175 20.9191 13.663C20.6199 13.6097 20.314 13.5957 20.0109 13.5639C19.8195 13.5438 19.5687 13.5322 19.5263 13.2941C19.4907 13.0945 19.6591 12.9356 19.8492 12.9254C19.9007 12.9223 19.9527 12.9247 20.0045 12.9249C22.6851 13 19.9527 12.9247 20.0045 12.9249Z" fill="white"/>
<path d="M24.0781 18.2044C24.0736 18.2379 24.0713 18.3166 24.0516 18.3906C23.9806 18.6597 23.5724 18.6934 23.4786 18.4219C23.4507 18.3413 23.4466 18.2496 23.4464 18.1629C23.4455 17.5953 23.3221 17.0281 23.0358 16.5341C22.7415 16.0263 22.2918 15.5997 21.7645 15.3413C21.4456 15.1853 21.1009 15.0881 20.7513 15.0304C20.5986 15.0051 20.4442 14.9899 20.2907 14.9685C20.1047 14.9426 20.0053 14.8241 20.0142 14.6408C20.0224 14.4691 20.148 14.3454 20.3352 14.3561C20.9502 14.391 21.5445 14.5241 22.0914 14.8136C23.2034 15.4026 23.8388 16.3321 24.0242 17.5735C24.0326 17.6298 24.046 17.6854 24.0503 17.7418C24.0608 17.881 24.0674 18.0205 24.0781 18.2044C24.0736 18.2378 24.0674 18.0205 24.0781 18.2044Z" fill="white"/>
<path d="M22.4118 18.1399C22.1876 18.144 22.0676 18.0198 22.0444 17.8143C22.0284 17.671 22.0156 17.5257 21.9814 17.3862C21.914 17.1114 21.768 16.8569 21.5369 16.6885C21.4279 16.6091 21.3042 16.5512 21.1747 16.5137C21.0103 16.4661 20.8393 16.4792 20.6753 16.4391C20.4971 16.3954 20.3986 16.251 20.4266 16.0839C20.4521 15.9317 20.6 15.813 20.7664 15.8251C21.8056 15.9001 22.5483 16.4373 22.6543 17.6608C22.6619 17.7471 22.6707 17.8383 22.6515 17.921C22.6186 18.0622 22.5139 18.133 22.4118 18.1399C22.1875 18.1439 22.5139 18.133 22.4118 18.1399Z" fill="white"/>
<path d="M23.1615 24.5577C23.3557 24.4979 22.938 24.4898 23.1615 24.5577V24.5577Z" fill="white"/>
<path d="M20.0078 12.9238C20.0101 12.9238 20.0123 12.9241 20.0145 12.9241C20.1633 12.9294 22.5827 12.996 20.0078 12.9238Z" fill="white"/>
<path d="M24.0801 18.2057C24.0695 18.0218 24.0756 18.239 24.0801 18.2057V18.2057Z" fill="white"/>
<path d="M22.4134 18.1411C22.417 18.1409 22.4203 18.1391 22.4237 18.1387C22.4142 18.1387 22.3997 18.1389 22.3848 18.1395C22.3945 18.1397 22.4033 18.1412 22.4134 18.1411Z" fill="white"/>
<path d="M22.4125 18.1403C22.4025 18.1405 22.3935 18.139 22.3839 18.1387C22.3353 18.14 22.2853 18.1426 22.4125 18.1403Z" fill="white"/>
<path d="M22.4223 18.1387C22.4188 18.1391 22.4155 18.1409 22.4121 18.1411C22.4383 18.1393 22.4361 18.1387 22.4223 18.1387Z" fill="white"/>
</svg>
