<svg width="80" height="25" viewBox="0 0 80 25" fill="none" xmlns="http://www.w3.org/2000/svg">
<path d="M29.3335 23.6189L33.397 0.761719H39.7462L35.8097 23.6189H29.3335Z" fill="#3C58BF"/>
<path d="M29.3335 23.6189L34.5398 0.761719H39.7462L35.8097 23.6189H29.3335Z" fill="#293688"/>
<path d="M58.7938 1.01587C57.524 0.507936 55.4922 0 52.9525 0C46.6033 0 42.0319 3.1746 42.0319 7.74603C42.0319 11.1746 45.2065 12.9524 47.7462 14.0952C50.2859 15.2381 51.0478 16 51.0478 17.0159C51.0478 18.5397 49.016 19.3016 47.2383 19.3016C44.6986 19.3016 43.3017 18.9206 41.143 18.0317L40.2541 17.6508L39.3652 22.8571C40.889 23.4921 43.6827 24.127 46.6033 24.127C53.3335 24.127 57.7779 20.9524 57.7779 16.127C57.7779 13.4603 56.1271 11.4286 52.3176 9.77778C50.0319 8.63492 48.6351 8 48.6351 6.85714C48.6351 5.84127 49.7779 4.8254 52.3176 4.8254C54.4763 4.8254 56.0002 5.20635 57.143 5.71429L57.7779 5.96825L58.7938 1.01587Z" fill="#3C58BF"/>
<path d="M58.7938 1.01587C57.524 0.507936 55.4922 0 52.9525 0C46.6033 0 43.1748 3.1746 43.1748 7.74603C43.1748 11.1746 45.2065 12.9524 47.7462 14.0952C50.2859 15.2381 51.0478 16 51.0478 17.0159C51.0478 18.5397 49.016 19.3016 47.2383 19.3016C44.6986 19.3016 43.3017 18.9206 41.143 18.0317L40.2541 17.6508L39.3652 22.8571C40.889 23.4921 43.6827 24.127 46.6033 24.127C53.3335 24.127 57.7779 20.9524 57.7779 16.127C57.7779 13.4603 56.1271 11.4286 52.3176 9.77778C50.0319 8.63492 48.6351 8 48.6351 6.85714C48.6351 5.84127 49.7779 4.8254 52.3176 4.8254C54.4763 4.8254 56.0002 5.20635 57.143 5.71429L57.7779 5.96825L58.7938 1.01587Z" fill="#293688"/>
<path d="M69.7146 0.761719C68.1908 0.761719 67.0479 0.888704 66.413 2.41251L56.8892 23.6189H63.7463L65.0161 19.8093H73.1431L73.905 23.6189H80.0003L74.6669 0.761719H69.7146ZM66.7939 15.9998C67.1749 14.857 69.3336 9.26966 69.3336 9.26966C69.3336 9.26966 69.8415 7.87283 70.2225 6.98394L70.6034 9.14267C70.6034 9.14267 71.8733 14.857 72.1273 16.1268H66.7939V15.9998Z" fill="#3C58BF"/>
<path d="M71.2384 0.761719C69.7146 0.761719 68.5717 0.888704 67.9368 2.41251L56.8892 23.6189H63.7463L65.0161 19.8093H73.1431L73.905 23.6189H80.0003L74.6669 0.761719H71.2384ZM66.7939 15.9998C67.3019 14.73 69.3336 9.26966 69.3336 9.26966C69.3336 9.26966 69.8415 7.87283 70.2225 6.98394L70.6034 9.14267C70.6034 9.14267 71.8733 14.857 72.1273 16.1268H66.7939V15.9998Z" fill="#293688"/>
<path d="M17.6508 16.7617L17.0158 13.4601C15.873 9.65057 12.1904 5.4601 8.12695 3.42835L13.8412 23.7458H20.6984L30.9841 0.888672H24.127L17.6508 16.7617Z" fill="#3C58BF"/>
<path d="M17.6508 16.7617L17.0158 13.4601C15.873 9.65057 12.1904 5.4601 8.12695 3.42835L13.8412 23.7458H20.6984L30.9841 0.888672H25.3968L17.6508 16.7617Z" fill="#293688"/>
<path d="M0 0.761719L1.14286 1.01569C9.26984 2.92045 14.8571 7.74584 17.0159 13.4601L14.7302 2.66648C14.3492 1.14267 13.2064 0.761719 11.8095 0.761719H0Z" fill="#FFBC00"/>
<path d="M0 0.761719C8.12698 2.66648 14.8571 7.61886 17.0159 13.3331L14.8571 4.31728C14.4762 2.79347 13.2064 1.90458 11.8095 1.90458L0 0.761719Z" fill="#F7981D"/>
<path d="M0 0.761719C8.12698 2.66648 14.8571 7.61886 17.0159 13.3331L15.4921 8.38077C15.1111 6.85696 14.6032 5.33315 12.8254 4.69823L0 0.761719Z" fill="#ED7C00"/>
</svg>
