<svg width="60" height="60" viewBox="0 0 60 60" fill="none" xmlns="http://www.w3.org/2000/svg">
<g clip-path="url(#clip0)">
<path d="M39.375 10.0781C38.7281 10.0781 38.2031 10.6031 38.2031 11.25C38.2031 11.8969 38.7281 12.4219 39.375 12.4219C40.0219 12.4219 40.5469 11.8969 40.5469 11.25C40.5469 10.6031 40.0219 10.0781 39.375 10.0781Z" fill="#131315"/>
<path d="M51.116 29.67C49.7856 24.8984 43.986 17.4073 44.7061 4.28285C44.7238 3.96152 44.6083 3.64699 44.387 3.41309C44.1657 3.1793 43.8579 3.04688 43.536 3.04688H16.4657C16.1437 3.04688 15.8359 3.1793 15.6146 3.41309C15.3934 3.64688 15.278 3.96141 15.2955 4.28285C16.0123 17.3468 10.2301 24.9146 8.87718 29.6602C6.43089 38.216 10.4216 49.2668 16.0132 56.4981C16.2351 56.7851 16.5775 56.9531 16.9403 56.9531H43.0625C43.4252 56.9531 43.7675 56.7851 43.9895 56.4982C49.3116 49.6175 53.4796 38.1143 51.116 29.67ZM14.5837 22.2859C16.781 16.7207 17.8223 11.0429 17.6846 5.39074H42.3167C42.1792 11.0407 43.2201 16.7173 45.4166 22.2832C45.5096 22.519 45.6071 22.7568 45.708 22.9972C40.8865 25.2813 35.4803 26.4844 30.0008 26.4844C24.5214 26.4844 19.1149 25.2813 14.2934 22.9972C14.3931 22.7591 14.4902 22.5225 14.5837 22.2859ZM28.8289 54.6094H17.5212C11.4851 46.5403 9.68378 37.3837 10.8382 31.5217C17.1842 33.9581 23.1966 39.2075 28.8289 43.4734V54.6094ZM11.4712 29.255C11.8662 28.163 12.3579 27.1459 12.9074 26.0115C13.0462 25.725 13.1875 25.433 13.3301 25.1339C18.454 27.5536 24.1908 28.8281 30.0008 28.8281C35.8107 28.8281 41.5474 27.5536 46.6712 25.134C46.8134 25.4321 46.954 25.7231 47.0923 26.0086C47.6425 27.1447 48.1345 28.1633 48.5252 29.2567C41.8269 31.778 35.5147 37.2255 30.0008 41.4218C24.4632 37.208 18.1713 31.7756 11.4712 29.255ZM42.4796 54.6094H31.1727V43.4734C36.845 39.1766 42.8202 33.9623 49.1447 31.5287C50.5382 38.9346 46.9046 48.6292 42.4796 54.6094Z" fill="#131315"/>
<path d="M42.2397 20.3835C41.7271 18.8185 41.2967 17.233 40.9602 15.6711C40.8239 15.0385 40.2004 14.6356 39.5679 14.7722C38.9352 14.9085 38.5328 15.5318 38.6691 16.1645C39.0227 17.806 39.4746 19.4709 40.0123 21.113C40.2134 21.7271 40.8744 22.0637 41.4907 21.8619C42.1059 21.6605 42.4411 20.9986 42.2397 20.3835Z" fill="#131315"/>
<path d="M58.8282 12.4215H51.5792L54.2662 9.73453C54.7238 9.27691 54.7238 8.53488 54.2662 8.07714C53.8086 7.61941 53.0666 7.61953 52.6088 8.07714L47.9213 12.7646C47.4637 13.2223 47.4637 13.9643 47.9213 14.422L52.6088 19.1095C53.0665 19.5671 53.8085 19.5671 54.2662 19.1095C54.7238 18.6519 54.7238 17.9099 54.2662 17.4521L51.5792 14.7653H58.8282C59.4754 14.7653 60.0001 14.2406 60.0001 13.5934C60.0001 12.9462 59.4754 12.4215 58.8282 12.4215Z" fill="#131315"/>
<path d="M12.0787 12.7651L7.39125 8.07759C6.93363 7.61997 6.1916 7.61997 5.73387 8.07759C5.27613 8.53521 5.27625 9.27724 5.73387 9.73497L8.42086 12.4218H1.17188C0.524648 12.4218 0 12.9465 0 13.5937C0 14.2409 0.524648 14.7656 1.17188 14.7656H8.42086L5.73387 17.4526C5.27625 17.9102 5.27625 18.6522 5.73387 19.11C6.19148 19.5676 6.93352 19.5676 7.39125 19.11L12.0787 14.4225C12.5364 13.9649 12.5364 13.2228 12.0787 12.7651Z" fill="#131315"/>
</g>
<defs>
<clipPath id="clip0">
<rect width="60" height="60" fill="white"/>
</clipPath>
</defs>
</svg>
