<svg width="60" height="60" viewBox="0 0 60 60" fill="none" xmlns="http://www.w3.org/2000/svg">
<path d="M46.0797 0.360234C45.8587 0.130078 45.5535 0 45.2344 0H14.7657C14.4466 0 14.1414 0.130078 13.9204 0.360234C13.6994 0.590391 13.5817 0.900586 13.5947 1.21945L15.9385 58.8757C15.9641 59.5038 16.4807 60 17.1094 60H42.8907C43.5194 60 44.0359 59.5039 44.0616 58.8757L46.4054 1.21945C46.4184 0.900703 46.3007 0.590391 46.0797 0.360234ZM41.7655 57.6562H18.2346L18.1394 55.3125H41.8608L41.7655 57.6562ZM41.956 52.9688H18.0441L16.6834 19.4975C17.7917 19.4589 18.4164 19.0262 18.8774 18.7056C19.2374 18.4552 19.4181 18.3295 19.8931 18.3295C20.368 18.3295 20.5487 18.4552 20.9087 18.7056C21.3916 19.0414 22.0529 19.5014 23.2628 19.5014C24.4725 19.5014 25.1338 19.0414 25.6166 18.7056C25.9765 18.4552 26.1571 18.3295 26.632 18.3295C27.1068 18.3295 27.2874 18.4552 27.6473 18.7056C28.1301 19.0414 28.7914 19.5014 30.0012 19.5014C31.2109 19.5014 31.8722 19.0414 32.355 18.7056C32.7149 18.4552 32.8955 18.3295 33.3704 18.3295C33.8451 18.3295 34.0257 18.4552 34.3855 18.7056C34.8684 19.0414 35.5295 19.5014 36.7394 19.5014C37.9491 19.5014 38.6103 19.0414 39.093 18.7056C39.4529 18.4552 39.6334 18.3295 40.108 18.3295C40.5827 18.3295 40.7632 18.4552 41.123 18.7055C41.5838 19.0261 42.2085 19.4589 43.3166 19.4975L41.956 52.9688ZM43.4118 17.1565C42.9851 17.1451 42.8044 17.0201 42.4615 16.7816C41.9788 16.4457 41.3177 15.9858 40.108 15.9858C38.8983 15.9858 38.2371 16.4457 37.7545 16.7816C37.3946 17.032 37.214 17.1577 36.7394 17.1577C36.2645 17.1577 36.0839 17.032 35.7241 16.7816C35.2413 16.4457 34.5801 15.9858 33.3704 15.9858C32.1606 15.9858 31.4993 16.4457 31.0165 16.7816C30.6566 17.032 30.4761 17.1577 30.0012 17.1577C29.5264 17.1577 29.3457 17.032 28.9858 16.7816C28.503 16.4457 27.8417 15.9858 26.632 15.9858C25.4222 15.9858 24.7609 16.4457 24.2781 16.7816C23.9182 17.032 23.7377 17.1577 23.2628 17.1577C22.7877 17.1577 22.607 17.032 22.247 16.7815C21.7642 16.4457 21.1029 15.9858 19.8931 15.9858C18.6832 15.9858 18.022 16.4457 17.5391 16.7816C17.1961 17.0202 17.0153 17.1452 16.5883 17.1565L15.9862 2.34375H44.0139L43.4118 17.1565Z" fill="#131315"/>
<path d="M40.5177 22.2761C40.3055 22.0465 40.0172 21.9129 39.7044 21.9C39.0565 21.8719 38.5115 22.377 38.4858 23.0227L37.7334 41.5231C37.7205 41.836 37.8306 42.1348 38.0428 42.3656C38.2549 42.5952 38.5444 42.7289 38.8573 42.7417C38.8725 42.7417 38.8889 42.743 38.9053 42.743C39.5358 42.743 40.0491 42.2484 40.0747 41.6179L40.8271 23.1175C40.84 22.8058 40.7298 22.507 40.5177 22.2761Z" fill="#131315"/>
<path d="M38.7607 45.0832C38.7455 45.0832 38.7291 45.082 38.7127 45.082C38.0822 45.082 37.5677 45.5766 37.542 46.207C37.5162 46.8527 38.0201 47.3988 38.6659 47.4258C38.6823 47.4258 38.6975 47.427 38.7138 47.427C39.3444 47.427 39.8589 46.9324 39.8845 46.3018C39.9102 45.6563 39.4064 45.11 38.7607 45.0832Z" fill="#131315"/>
<path d="M26.3918 44.6238C25.7285 43.9594 24.8461 43.5938 23.9062 43.5938C22.9663 43.5938 22.084 43.9594 21.4207 44.6238C20.7562 45.2871 20.3906 46.1707 20.3906 47.1094C20.3906 48.0492 20.7562 48.9316 21.4207 49.5949C22.084 50.2594 22.9663 50.625 23.9062 50.625C24.8461 50.625 25.7285 50.2594 26.3918 49.5949C27.0563 48.9316 27.4219 48.0492 27.4219 47.1094C27.4219 46.1707 27.0563 45.2871 26.3918 44.6238ZM23.9062 48.2812C23.2617 48.2801 22.7355 47.7539 22.7344 47.1094C22.7355 46.4648 23.2617 45.9387 23.9062 45.9375C24.5508 45.9387 25.077 46.4648 25.0781 47.1094C25.077 47.7539 24.5508 48.2801 23.9062 48.2812Z" fill="#131315"/>
<path d="M34.5168 35.1609C33.8535 34.4965 32.9699 34.1309 32.0313 34.1309C31.0913 34.1309 30.209 34.4965 29.5457 35.1609C28.8813 35.8242 28.5156 36.7065 28.5156 37.6465C28.5156 38.5863 28.8813 39.4687 29.5457 40.132C30.209 40.7965 31.0913 41.1621 32.0313 41.1621C32.9699 41.1621 33.8535 40.7965 34.5168 40.132C35.1813 39.4687 35.5469 38.5863 35.5469 37.6465C35.5469 36.7078 35.1813 35.8242 34.5168 35.1609ZM32.0313 38.8184C31.3867 38.8172 30.8605 38.291 30.8594 37.6465C30.8605 37.002 31.3867 36.4758 32.0313 36.4746C32.6758 36.4758 33.202 37.002 33.2031 37.6465C33.202 38.291 32.6758 38.8172 32.0313 38.8184Z" fill="#131315"/>
<path d="M27.6711 24.2261C27.0078 23.5628 26.1254 23.1973 25.1855 23.1973C24.2468 23.1973 23.3632 23.5628 22.7 24.2261C22.0367 24.8905 21.6699 25.7729 21.6699 26.7129C21.6699 27.6516 22.0367 28.534 22.7 29.1984C23.3632 29.8616 24.2468 30.2272 25.1855 30.2272C26.1254 30.2272 27.0078 29.8616 27.6711 29.1984C28.3355 28.534 28.7012 27.6516 28.7012 26.7129C28.7012 25.773 28.3355 24.8905 27.6711 24.2261ZM25.1855 27.8835C24.541 27.8823 24.0148 27.3574 24.0137 26.7129C24.0148 26.0671 24.541 25.541 25.1855 25.5397C25.8313 25.541 26.3561 26.0671 26.3574 26.7129C26.3561 27.3574 25.8313 27.8824 25.1855 27.8835Z" fill="#131315"/>
</svg>
