<svg width="60" height="60" viewBox="0 0 60 60" fill="none" xmlns="http://www.w3.org/2000/svg">
<g clip-path="url(#clip0)">
<path d="M34.9141 41.8877C34.6046 41.8877 34.3034 42.0131 34.0855 42.231C33.8676 42.4489 33.7422 42.7515 33.7422 43.0596C33.7422 43.3676 33.8676 43.6702 34.0855 43.8881C34.3034 44.106 34.606 44.2314 34.9141 44.2314C35.2221 44.2314 35.5247 44.106 35.7426 43.8881C35.9605 43.6702 36.0859 43.3676 36.0859 43.0596C36.0859 42.7515 35.9605 42.4489 35.7426 42.231C35.5247 42.0131 35.2221 41.8877 34.9141 41.8877Z" fill="#006837"/>
<path d="M58.8281 57.6503H35.4703C35.8612 56.9691 36.086 56.1809 36.086 55.3409V47.2307C36.086 46.5838 35.5614 46.0588 34.9141 46.0588C34.2668 46.0588 33.7422 46.5838 33.7422 47.2307V55.3409C33.7422 56.6144 32.7063 57.6503 31.4328 57.6503H31.0323V49.172C31.469 49.0017 31.7784 48.5779 31.7784 48.0812V46.9963C31.7784 46.0217 31.5056 45.1094 31.0323 44.3316V38.8179C31.0323 38.1706 30.5077 37.646 29.8604 37.646H25.9387C24.1315 37.646 22.6611 39.1163 22.6611 40.9236C22.6611 42.7308 24.1315 44.2012 25.9387 44.2012H26.6396C28.1516 44.2012 29.3871 45.4083 29.4333 46.9093H25.9378C22.6369 46.9093 19.9512 44.2236 19.9512 40.9227C19.9512 37.6217 22.6369 34.936 25.9378 34.936H33.7422V38.7231C33.7422 39.3704 34.2668 39.895 34.9141 39.895C35.5614 39.895 36.086 39.3704 36.086 38.7231V33.9239C36.0928 33.8713 36.0979 33.8186 36.0979 33.7642V27.7839L41.7302 22.207C43.6761 20.2881 44.7926 17.6207 44.7926 14.8878C44.7926 11.7055 43.2829 8.65263 40.7542 6.72041C40.7542 6.72041 35.4652 2.68522 32.5626 0.477427C31.8544 -0.0618184 30.9187 -0.151082 30.1213 0.244426C30.0801 0.265025 30.0394 0.28654 29.9995 0.30897C29.9602 0.28654 29.9194 0.265025 29.8782 0.244426C29.0808 -0.151082 28.1451 -0.0618184 27.437 0.477427C24.5343 2.68568 19.2453 6.72041 19.2448 6.72087C16.7166 8.65263 15.2074 11.7055 15.2074 14.8878C15.2074 17.6207 16.3234 20.2885 18.2671 22.2047L23.9017 27.7913V32.845C20.2895 33.7559 17.6074 37.0317 17.6074 40.9227C17.6074 45.5159 21.3446 49.2531 25.9378 49.2531H28.6885V57.6503H1.17188C0.524597 57.6503 0 58.1749 0 58.8221C0 59.469 0.524597 59.994 1.17188 59.994H58.8281C59.4754 59.994 60 59.469 60 58.8221C60 58.1749 59.4754 57.6503 58.8281 57.6503ZM30 6.93189C30.3548 7.42765 30.7828 7.87397 31.2749 8.2498L36.5231 12.2598C37.3366 12.8814 37.8223 13.8638 37.8223 14.8878C37.8223 15.7672 37.4634 16.6255 36.8372 17.243L35.4858 18.5747C35.5183 18.333 35.5367 18.0867 35.5367 17.8358V17.4682C35.5367 15.9439 34.9168 14.5614 33.9166 13.5594V12.8709C33.9166 10.7121 32.1606 8.95613 30.0018 8.95613C27.843 8.95613 26.087 10.7121 26.087 12.8709V13.5594C25.0864 14.5614 24.467 15.9439 24.467 17.4682V17.8358C24.467 18.0881 24.4853 18.3357 24.5183 18.5788L23.1628 17.243C22.5366 16.6255 22.1777 15.7672 22.1777 14.8878C22.1777 13.8638 22.6634 12.881 23.4769 12.2593L28.7251 8.24934C29.2168 7.87397 29.6452 7.42765 30 6.93189ZM26.8108 17.4682C26.8108 15.7086 28.2422 14.2772 30.0018 14.2772C31.7615 14.2772 33.1929 15.7086 33.1929 17.4682V17.8358C33.1929 19.5955 31.7615 21.0269 30.0018 21.0269C28.2422 21.0269 26.8108 19.5955 26.8108 17.8358V17.4682ZM30.0018 11.9334C29.529 11.9334 29.0698 11.9929 28.6313 12.1055C28.9005 11.6253 29.4136 11.2999 30.0018 11.2999C30.5901 11.2999 31.1032 11.6253 31.3724 12.1055C30.9338 11.9929 30.4747 11.9334 30.0018 11.9334ZM19.915 20.5375C18.4126 19.0567 17.5511 16.9972 17.5511 14.8878C17.5511 12.4315 18.7161 10.0749 20.6671 8.58396C20.6671 8.58396 25.9158 4.57945 28.8286 2.36433C28.8332 2.52455 28.8702 2.67698 28.933 2.81523C28.8657 2.96308 28.8281 3.12742 28.8281 3.30046C28.8281 4.50346 28.2573 5.65702 27.3019 6.38716L22.0537 10.3972C20.6635 11.4592 19.8335 13.1383 19.8335 14.8878C19.8335 16.3907 20.4474 17.8573 21.5172 18.912L23.2622 20.6323C25.0694 22.4139 27.4622 23.3949 30 23.3949C32.5374 23.3949 34.9301 22.4139 36.7374 20.6323L38.4824 18.912C39.5526 17.8573 40.1665 16.3902 40.1665 14.8878C40.1665 13.1383 39.3361 11.4596 37.9463 10.3972L32.6981 6.38716C31.7422 5.65702 31.1719 4.50346 31.1719 3.30046C31.1719 3.12742 31.1343 2.96308 31.067 2.81523C31.1275 2.68247 31.1636 2.53645 31.1705 2.3831C31.171 2.37669 31.171 2.37028 31.1714 2.36387C34.0787 4.57579 39.3324 8.58396 39.332 8.58351C41.2834 10.0744 42.4489 12.4315 42.4489 14.8878C42.4489 16.9972 41.5869 19.0567 40.0832 20.5394L34.1016 26.4624C33.8791 26.6826 33.7541 26.9824 33.7541 27.2951V32.5923H26.2454V27.3028C26.2454 26.9902 26.1205 26.6903 25.8984 26.4706L19.915 20.5375ZM26.6396 41.8574H25.9392C25.4242 41.8574 25.0053 41.4386 25.0053 40.9236C25.0053 40.4086 25.4242 39.9898 26.1136 39.9898H28.6885V42.2845C28.0605 42.0103 27.3679 41.8574 26.6396 41.8574Z" fill="#006837"/>
</g>
<defs>
<clipPath id="clip0">
<rect width="60" height="60" fill="white"/>
</clipPath>
</defs>
</svg>
