<svg width="289" height="68" viewBox="0 0 289 68" fill="none" xmlns="http://www.w3.org/2000/svg">
<mask id="path-1-inside-1" fill="white">
<path fill-rule="evenodd" clip-rule="evenodd" d="M0.000244141 0H254.412C273.19 0 288.412 15.2223 288.412 34C288.412 52.7777 273.19 68 254.412 68H0.983582C9.30273 59.2931 14.4121 47.4932 14.4121 34.5C14.4121 21.0023 8.89832 8.79251 0.000244141 0Z"/>
</mask>
<path fill-rule="evenodd" clip-rule="evenodd" d="M0.000244141 0H254.412C273.19 0 288.412 15.2223 288.412 34C288.412 52.7777 273.19 68 254.412 68H0.983582C9.30273 59.2931 14.4121 47.4932 14.4121 34.5C14.4121 21.0023 8.89832 8.79251 0.000244141 0Z" fill="url(#paint0_linear)"/>
<path d="M0.000244141 0L-0.702637 0.711314L-2.43448 -1H0.000244141V0ZM0.983582 68V69H-1.35495L0.260559 67.3092L0.983582 68ZM254.412 1H0.000244141V-1H254.412V1ZM287.412 34C287.412 15.7746 272.638 1 254.412 1V-1C273.742 -1 289.412 14.67 289.412 34H287.412ZM254.412 67C272.638 67 287.412 52.2254 287.412 34H289.412C289.412 53.33 273.742 69 254.412 69V67ZM0.983582 67H254.412V69H0.983582V67ZM0.260559 67.3092C8.40906 58.7808 13.4121 47.2257 13.4121 34.5H15.4121C15.4121 47.7607 10.1964 59.8053 1.7066 68.6908L0.260559 67.3092ZM13.4121 34.5C13.4121 21.2804 8.01312 9.32367 -0.702637 0.711314L0.703125 -0.711314C9.78351 8.26134 15.4121 20.7243 15.4121 34.5H13.4121Z" fill="#8CC63F" mask="url(#path-1-inside-1)"/>
<defs>
<linearGradient id="paint0_linear" x1="59.2006" y1="5.36842" x2="73.2958" y2="87.0363" gradientUnits="userSpaceOnUse">
<stop stop-color="#B5E59B"/>
<stop offset="1" stop-color="#8BCA6C"/>
</linearGradient>
</defs>
</svg>
