<svg width="289" height="68" viewBox="0 0 289 68" fill="none" xmlns="http://www.w3.org/2000/svg">
<mask id="path-1-inside-1" fill="white">
<path fill-rule="evenodd" clip-rule="evenodd" d="M288.412 0H34C15.2223 0 0 15.2223 0 34C0 52.7777 15.2223 68 34 68H287.429C279.109 59.2931 274 47.4932 274 34.5C274 21.0023 279.514 8.79251 288.412 0Z"/>
</mask>
<path fill-rule="evenodd" clip-rule="evenodd" d="M288.412 0H34C15.2223 0 0 15.2223 0 34C0 52.7777 15.2223 68 34 68H287.429C279.109 59.2931 274 47.4932 274 34.5C274 21.0023 279.514 8.79251 288.412 0Z" fill="white"/>
<path d="M288.412 0L289.115 0.711314L290.847 -1H288.412V0ZM287.429 68V69H289.767L288.152 67.3092L287.429 68ZM34 1H288.412V-1H34V1ZM1 34C1 15.7746 15.7746 1 34 1V-1C14.67 -1 -1 14.67 -1 34H1ZM34 67C15.7746 67 1 52.2254 1 34H-1C-1 53.33 14.67 69 34 69V67ZM287.429 67H34V69H287.429V67ZM288.152 67.3092C280.003 58.7808 275 47.2257 275 34.5H273C273 47.7607 278.216 59.8053 286.706 68.6908L288.152 67.3092ZM275 34.5C275 21.2804 280.399 9.32367 289.115 0.711314L287.709 -0.711314C278.629 8.26134 273 20.7243 273 34.5H275Z" fill="url(#paint0_linear)" mask="url(#path-1-inside-1)"/>
<defs>
<linearGradient id="paint0_linear" x1="277.314" y1="-3.19133e-06" x2="262.449" y2="101.818" gradientUnits="userSpaceOnUse">
<stop stop-color="#E34B4F"/>
<stop offset="1" stop-color="#EB755C"/>
</linearGradient>
</defs>
</svg>
