<svg width="111" height="102" viewBox="0 0 111 102" fill="none" xmlns="http://www.w3.org/2000/svg">
<g clip-path="url(#clip0)">
<path d="M54.6066 32.2663C47.4317 32.3059 40.2603 31.9402 33.1266 31.1709C31.326 30.9424 29.522 30.6642 27.7021 30.2642C26.7923 30.0679 25.8772 29.8275 24.9518 29.5356C23.964 29.2353 23.011 28.8301 22.1093 28.3269C21.8494 28.1892 21.6011 28.0307 21.3669 27.8529L20.9896 27.5635L20.8028 27.4158C20.7206 27.3409 20.6424 27.2617 20.5684 27.1787C20.4082 27.0055 20.254 26.8226 20.1097 26.6343L19.9007 26.3486C19.8645 26.2947 19.8311 26.2391 19.8005 26.1818L19.6355 25.891L19.5942 25.8183L19.5839 25.8001C19.686 26.0443 19.4329 25.4479 19.4563 25.4985L19.4401 25.4438L19.3763 25.2243C19.1845 24.6494 19.0573 24.0548 18.9972 23.4517L18.9285 22.5664C18.9245 22.2807 18.9365 21.995 18.9644 21.7107C19.1535 19.5571 19.8331 17.4756 20.9512 15.6259C22.0041 13.8135 23.3763 12.2071 25.0016 10.8843L25.6306 10.3846L26.3227 9.93579C26.5569 9.78943 26.7844 9.63783 27.027 9.49981L27.801 9.12665C28.3334 8.86829 28.8899 8.66282 29.4624 8.51319L29.8966 8.38608C30.0677 8.35162 30.2618 8.32575 30.4452 8.29988C30.8173 8.24969 31.1931 8.21248 31.566 8.18841C31.6517 8.18403 31.7692 8.17355 31.8282 8.17638L31.9948 8.18661L32.328 8.20741L32.6611 8.22855L32.8278 8.23921L32.8694 8.24179L32.8902 8.24316C32.8357 8.2356 33.4356 8.3102 33.1936 8.28123L33.2926 8.30203C33.814 8.4239 34.3622 8.50623 34.8585 8.67614C35.3636 8.81845 35.8607 8.98809 36.3475 9.18431C36.8281 9.36555 37.2991 9.57113 37.7589 9.80026C39.5281 10.6726 41.1937 11.7413 42.7244 12.986C45.6141 15.3701 48.2001 18.1006 50.424 21.116C52.6208 24.0392 54.5596 27.1479 56.2184 30.407C56.7366 31.4381 54.4609 32.8113 53.8048 31.9445C51.6613 29.1834 49.3831 26.511 47.015 23.9977C44.7172 21.5054 42.2034 19.2215 39.5031 17.1729C38.2247 16.2206 36.8568 15.3948 35.4189 14.7071C35.0794 14.542 34.7315 14.3947 34.3768 14.2658C34.0365 14.1301 33.6891 14.0129 33.3362 13.9147C32.9896 13.7903 32.6474 13.7553 32.3046 13.6628L32.2404 13.6477C32.789 13.7144 32.3805 13.6653 32.4976 13.6799L32.4767 13.6783L32.4352 13.6754L32.2687 13.6635L31.9357 13.6396L31.6028 13.6152L31.4363 13.603C31.3968 13.6048 31.3946 13.619 31.3723 13.6252C31.3067 13.6559 31.2362 13.6748 31.164 13.6812C31.1252 13.6868 31.0996 13.6775 31.0466 13.6869L30.8404 13.7527C30.5476 13.8193 30.2633 13.9185 29.9926 14.0485L29.5534 14.2375L29.1169 14.4982L28.6754 14.7578L28.2495 15.0787C27.0749 15.9713 26.0595 17.0563 25.2464 18.2877C24.4413 19.4489 23.8947 20.7696 23.6437 22.1605C23.5849 22.4637 23.5639 22.773 23.5813 23.0814C23.5815 23.3654 23.6136 23.6486 23.6771 23.9255L23.6901 24.0306L23.6917 24.0438C23.4936 23.9953 24.1372 24.1711 23.248 23.9383L23.3134 23.9521L23.4442 23.9797C23.5295 23.9949 23.614 24.0148 23.6972 24.0393L23.7673 24.1909C23.7863 24.2258 23.8238 24.3271 23.8276 24.3073C23.8326 24.2965 23.8355 24.2848 23.836 24.2729C23.8371 24.2642 23.8354 24.2555 23.831 24.2479C23.8266 24.2404 23.8199 24.2345 23.8119 24.2311C23.7691 24.21 23.8239 24.2594 23.877 24.3032L24.0171 24.4337C24.126 24.5384 24.246 24.631 24.375 24.7098C24.9963 25.1288 25.6597 25.4815 26.3543 25.7623C27.1012 26.0773 27.8855 26.3695 28.6954 26.6292C30.3115 27.1563 31.9957 27.5997 33.6969 28.0011C40.6093 29.5295 47.6075 30.6392 54.6535 31.3242C55.8372 31.4429 55.7414 32.2606 54.6066 32.2663Z" fill="#B07506"/>
<path d="M56.3486 31.3711C63.3986 30.6946 70.4003 29.5838 77.3136 28.0448C79.0156 27.6406 80.7006 27.1938 82.3176 26.6626C83.1279 26.4008 83.9126 26.1063 84.6601 25.789C85.3557 25.5057 86.0196 25.15 86.6409 24.7278C86.7701 24.6485 86.8901 24.555 86.9987 24.4491L87.1396 24.3173L87.2119 24.2544C87.2348 24.2341 87.2025 24.2454 87.2025 24.2454C87.1949 24.2485 87.1885 24.254 87.1845 24.2612C87.1806 24.2683 87.1792 24.2767 87.1806 24.2847C87.1817 24.2962 87.1849 24.3074 87.1901 24.3177C87.1979 24.3233 87.2323 24.232 87.2521 24.194L87.3917 23.8903L87.4266 23.8144L87.4354 23.7954C87.5432 23.5387 87.2991 24.1236 87.3241 24.0589L87.3271 24.0323L87.34 23.9267C87.4028 23.6482 87.4338 23.3635 87.4324 23.0781L87.4331 22.6289C87.4208 22.4695 87.3983 22.3111 87.3659 22.1546C87.109 20.7634 86.5569 19.4435 85.7468 18.284C84.9298 17.0563 83.9114 15.9756 82.7345 15.0875L82.3084 14.7683L81.8667 14.5113L81.4305 14.2534L80.9922 14.0661C80.7222 13.9381 80.4388 13.8404 80.1473 13.7748L79.942 13.7098L79.8293 13.7065C79.7586 13.7004 79.6895 13.6815 79.6254 13.6508C79.6006 13.6457 79.6081 13.628 79.556 13.6308L79.3896 13.6433L79.0567 13.6681L78.7237 13.6925L78.5572 13.7047L78.5156 13.7077L78.4949 13.7092C78.4263 13.7168 79.0128 13.6458 78.7571 13.6777L78.6932 13.6929C78.3512 13.7861 78.0103 13.8201 77.6647 13.9462C77.3127 14.0446 76.9663 14.1621 76.627 14.2983C76.2732 14.4276 75.9262 14.575 75.5875 14.7399C74.1521 15.4278 72.7863 16.2526 71.509 17.2026C68.8084 19.2479 66.2886 21.5219 63.9776 23.9995C61.5945 26.4988 59.2923 29.1511 57.1083 31.8893C56.4581 32.7235 54.1466 31.4086 54.6946 30.3517C56.3952 27.1125 58.3627 24.0207 60.5765 21.1085C62.8165 18.1062 65.4103 15.3852 68.3016 13.0045C69.8326 11.7633 71.4972 10.6968 73.2645 9.8251C73.7235 9.59614 74.1939 9.39082 74.6739 9.20993C75.16 9.01418 75.6562 8.84468 76.1604 8.70218C76.6565 8.53356 77.2029 8.45003 77.7234 8.32807L77.8222 8.30728L78.1209 8.27127L78.1417 8.26989L78.1833 8.26714L78.3499 8.25631L78.683 8.23474L79.0162 8.21343L79.1828 8.20294L79.4501 8.21635C79.8216 8.2405 80.1959 8.27763 80.5665 8.32764C80.7478 8.35369 80.9456 8.37818 81.1098 8.41419L81.543 8.5407C82.1141 8.68932 82.6693 8.89403 83.2003 9.15183L83.9733 9.52336C84.2139 9.66224 84.4425 9.81221 84.6762 9.95831L85.3672 10.4059L85.9963 10.904C87.6218 12.2236 88.9952 13.8266 90.0502 15.6357C91.1717 17.4838 91.8546 19.5647 92.0465 21.7184C92.0754 22.003 92.0876 22.2891 92.0831 22.5752L92.0158 23.4615C91.9559 24.0657 91.8291 24.6615 91.6379 25.2377L91.5743 25.4577L91.5662 25.4851C91.5105 25.6204 91.6796 25.2207 91.4392 25.7954L91.4188 25.8319L91.3777 25.9046L91.2134 26.1958C91.1821 26.2553 91.1473 26.3128 91.1091 26.3681L90.8992 26.6552C90.7542 26.8443 90.5993 27.0281 90.4382 27.202C90.3126 27.3447 90.1717 27.4731 90.018 27.5849L89.6401 27.8756C89.4055 28.0536 89.157 28.2125 88.8971 28.3509C87.9951 28.856 87.0418 29.2632 86.0533 29.5656C85.1278 29.8595 84.2125 30.1018 83.3026 30.2998C81.4828 30.7033 79.6787 30.9846 77.878 31.2156C70.7443 31.9951 63.5715 32.3616 56.3955 32.3132C55.1932 32.3067 55.2307 31.4831 56.3486 31.3711Z" fill="#B07506"/>
<path d="M105.702 50.0452H5.29883V102H105.702V50.0452Z" fill="#F10D0D"/>
<path d="M70.3747 84.6887C71.2189 84.713 72.0382 84.4011 72.6526 83.8213C73.267 83.2415 73.6263 82.4414 73.6516 81.5967C73.6768 80.752 73.3659 79.9319 72.7872 79.3164C72.2085 78.7009 71.4093 78.3405 70.5652 78.3144C70.1463 78.3008 69.7288 78.37 69.3367 78.5181C68.9446 78.6662 68.5855 78.8902 68.28 79.1774C67.9745 79.4646 67.7287 79.8093 67.5565 80.1917C67.3844 80.5741 67.2893 80.9867 67.2768 81.406C67.2643 81.8252 67.3345 82.2428 67.4835 82.6348C67.6325 83.0268 67.8574 83.3856 68.1451 83.6905C68.4329 83.9955 68.778 84.2406 69.1606 84.4119C69.5432 84.5832 69.9558 84.6772 70.3747 84.6887Z" fill="#F4B53D"/>
<path d="M59.8043 67.6228C59.3852 67.6169 58.9691 67.6938 58.5798 67.8493C58.1905 68.0048 57.8358 68.2357 57.536 68.5289C57.2362 68.822 56.9973 69.1715 56.8329 69.5573C56.6686 69.9431 56.582 70.3577 56.5783 70.7771C56.5745 71.1965 56.6536 71.6125 56.811 72.0012C56.9685 72.3899 57.2011 72.7436 57.4956 73.0421C57.7901 73.3405 58.1406 73.5778 58.527 73.7402C58.9134 73.9027 59.3281 73.9871 59.7473 73.9887C60.1652 73.9927 60.5798 73.9144 60.9674 73.758C61.3551 73.6017 61.7081 73.3704 62.0064 73.0775C62.3047 72.7846 62.5423 72.4357 62.7058 72.0508C62.8693 71.6659 62.9553 71.2525 62.9591 70.8343C62.9628 70.4161 62.8842 70.0013 62.7276 69.6135C62.5711 69.2257 62.3397 68.8726 62.0467 68.5744C61.7537 68.2761 61.4049 68.0386 61.0201 67.8753C60.6354 67.712 60.2222 67.6262 59.8043 67.6228Z" fill="#F4B53D"/>
<path d="M73.6537 60.1528C73.6697 59.739 73.6031 59.3261 73.4579 58.9382C73.3127 58.5504 73.0917 58.1954 72.8079 57.8939C72.5241 57.5924 72.1832 57.3505 71.8049 57.1823C71.4267 57.0141 71.0188 56.923 70.605 56.9143C69.9702 56.8858 69.3413 57.0475 68.7989 57.3787C68.2564 57.71 67.8252 58.1957 67.5602 58.7737C67.2953 59.3516 67.2088 59.9956 67.3117 60.6231C67.4147 61.2505 67.7024 61.833 68.1382 62.2958C68.5739 62.7587 69.1377 63.0809 69.7575 63.2212C70.3773 63.3615 71.0249 63.3135 71.6172 63.0833C72.2096 62.8531 72.7198 62.4513 73.0826 61.9292C73.4454 61.4072 73.6443 60.7887 73.6537 60.1528Z" fill="#F4B53D"/>
<path d="M56.5807 92.0884C56.5577 92.5168 56.6228 92.9453 56.7721 93.3475C56.9214 93.7496 57.1517 94.1168 57.4486 94.4262C57.7455 94.7356 58.1028 94.9807 58.4983 95.1463C58.8938 95.3119 59.3191 95.3944 59.7477 95.3887C60.1657 95.3928 60.5803 95.3145 60.9679 95.1581C61.3556 95.0018 61.7086 94.7705 62.0069 94.4776C62.3052 94.1846 62.5428 93.8357 62.7063 93.4508C62.8698 93.0659 62.9558 92.6526 62.9596 92.2344C62.9633 91.8162 62.8847 91.4013 62.7281 91.0136C62.5716 90.6258 62.3402 90.2727 62.0472 89.9744C61.7542 89.6762 61.4054 89.4387 61.0206 89.2754C60.6359 89.1121 60.2227 89.0263 59.8048 89.0229C59.3913 89.0099 58.9794 89.0791 58.5928 89.2266C58.2063 89.374 57.8529 89.5968 57.553 89.8819C57.2531 90.167 57.0127 90.5089 56.8458 90.8876C56.6789 91.2664 56.5888 91.6745 56.5807 92.0884Z" fill="#F4B53D"/>
<path d="M52.2653 60.2551C52.2938 59.6221 52.133 58.9949 51.8034 58.4537C51.4739 57.9126 50.9906 57.482 50.4153 57.2172C49.84 56.9523 49.1988 56.8651 48.5738 56.9667C47.9487 57.0684 47.3681 57.3542 46.9062 57.7877C46.4443 58.2213 46.1221 58.7828 45.9807 59.4005C45.8394 60.0182 45.8853 60.6641 46.1127 61.2555C46.34 61.847 46.7384 62.3572 47.257 62.7209C47.7756 63.0846 48.3908 63.2853 49.024 63.2973C49.4371 63.3133 49.8493 63.2471 50.2366 63.1024C50.624 62.9577 50.9787 62.7374 51.2802 62.4544C51.5818 62.1713 51.8242 61.8312 51.9933 61.4536C52.1623 61.0761 52.2548 60.6687 52.2653 60.2551Z" fill="#F4B53D"/>
<path d="M38.2209 95.3882C38.8535 95.4211 39.4815 95.2645 40.0247 94.9384C40.5679 94.6123 41.0015 94.1315 41.2702 93.5575C41.5389 92.9835 41.6305 92.3423 41.5332 91.716C41.4359 91.0897 41.1541 90.5066 40.7239 90.0413C40.2938 89.576 39.7347 89.2497 39.1182 89.104C38.5018 88.9583 37.8559 88.9999 37.2631 89.2234C36.6704 89.4469 36.1577 89.8423 35.7907 90.3589C35.4236 90.8755 35.2188 91.4899 35.2025 92.1235C35.1835 92.5369 35.2468 92.95 35.3887 93.3387C35.5306 93.7274 35.7483 94.084 36.0291 94.3878C36.31 94.6916 36.6484 94.9365 37.0247 95.1082C37.4009 95.2799 37.8076 95.3751 38.2209 95.3882Z" fill="#F4B53D"/>
<path d="M49.1934 84.6887C49.8198 84.6682 50.4263 84.4633 50.9369 84.0996C51.4476 83.7359 51.8397 83.2296 52.0641 82.644C52.2886 82.0584 52.3355 81.4196 52.199 80.8075C52.0624 80.1953 51.7485 79.6371 51.2965 79.2026C50.8445 78.7682 50.2745 78.4768 49.6577 78.3649C49.041 78.253 48.405 78.3256 47.8294 78.5736C47.2537 78.8216 46.7639 79.2341 46.4213 79.7592C46.0787 80.2844 45.8985 80.8991 45.9033 81.5263C45.8928 81.9556 45.9717 82.3824 46.135 82.7795C46.2984 83.1766 46.5426 83.5353 46.8521 83.8328C47.1616 84.1303 47.5296 84.36 47.9327 84.5074C48.3358 84.6547 48.7652 84.7165 49.1934 84.6887Z" fill="#F4B53D"/>
<path d="M59.9172 52.5886C60.6324 52.5793 61.3218 52.3199 61.866 51.8554C62.4102 51.3908 62.7749 50.7505 62.8968 50.0452H56.6504C56.7898 50.7956 57.1992 51.4688 57.8012 51.9375C58.4032 52.4062 59.156 52.6379 59.9172 52.5886Z" fill="#F4B53D"/>
<path d="M91.8966 56.9143C91.2617 56.9042 90.6382 57.084 90.106 57.4306C89.5738 57.7772 89.1571 58.2748 88.9093 58.8598C88.6614 59.4449 88.5937 60.0906 88.7148 60.7143C88.8359 61.3381 89.1402 61.9115 89.5889 62.3611C90.0376 62.8107 90.6102 63.1161 91.2334 63.2381C91.8565 63.3601 92.5019 63.2932 93.0869 63.046C93.6718 62.7988 94.1697 62.3825 94.5168 61.8504C94.8639 61.3183 95.0444 60.6947 95.0352 60.0593C95.0398 59.6454 94.9618 59.2347 94.8057 58.8514C94.6496 58.468 94.4187 58.1197 94.1264 57.8267C93.8341 57.5338 93.4863 57.3023 93.1034 57.1456C92.7205 56.9889 92.3102 56.9103 91.8966 56.9143Z" fill="#F4B53D"/>
<path d="M16.9533 52.5886C17.6998 52.6215 18.4328 52.3815 19.0157 51.9136C19.5985 51.4456 19.9914 50.7816 20.1212 50.0452H13.877C14.0113 50.7623 14.3927 51.4096 14.9548 51.8744C15.517 52.3391 16.2242 52.5919 16.9533 52.5886Z" fill="#F4B53D"/>
<path d="M6.39574 99.7144C6.02342 99.7082 5.65269 99.7642 5.29883 99.8803V102H9.36045C9.18638 101.346 8.80153 100.767 8.26555 100.354C7.72956 99.9407 7.07235 99.7159 6.39574 99.7144Z" fill="#F4B53D"/>
<path d="M81.0221 52.5886C81.7832 52.6387 82.5361 52.4073 83.1378 51.9384C83.7396 51.4695 84.1483 50.7958 84.2863 50.0452H78.0352C78.161 50.75 78.5278 51.389 79.0727 51.853C79.6176 52.317 80.3067 52.5771 81.0221 52.5886Z" fill="#F4B53D"/>
<path d="M77.9735 92.1361C77.9587 92.7638 78.1292 93.3819 78.4636 93.9131C78.7981 94.4443 79.2816 94.8651 79.8538 95.1227C80.426 95.3803 81.0613 95.4634 81.6805 95.3615C82.2996 95.2597 82.8749 94.9774 83.3345 94.55C83.7941 94.1226 84.1175 93.569 84.2644 92.9586C84.4112 92.3482 84.3749 91.708 84.16 91.1181C83.9451 90.5283 83.5612 90.0149 83.0562 89.6423C82.5513 89.2696 81.9477 89.0543 81.3211 89.0231C80.8931 88.9908 80.4632 89.0473 80.0581 89.1892C79.6531 89.3311 79.2818 89.5552 78.9674 89.8475C78.6531 90.1399 78.4025 90.4941 78.2315 90.8879C78.0604 91.2817 77.9726 91.7067 77.9735 92.1361Z" fill="#F4B53D"/>
<path d="M88.6756 81.6266C88.7007 82.2518 88.9094 82.8558 89.2754 83.363C89.6415 83.8703 90.1489 84.2584 90.7341 84.4789C91.3193 84.6993 91.9564 84.7424 92.5659 84.6027C93.1754 84.463 93.7303 84.1467 94.1612 83.6933C94.5922 83.2399 94.8801 82.6695 94.989 82.0533C95.0979 81.4372 95.023 80.8026 94.7737 80.2288C94.5243 79.6549 94.1116 79.1673 93.587 78.8269C93.0623 78.4864 92.4491 78.3081 91.8238 78.3143C91.3953 78.31 90.9706 78.394 90.5759 78.561C90.1812 78.7281 89.8252 78.9746 89.5298 79.2853C89.2345 79.596 89.0063 79.9642 88.8593 80.367C88.7123 80.7698 88.6498 81.1986 88.6756 81.6266Z" fill="#F4B53D"/>
<path d="M81.1338 67.6228C80.5089 67.6302 79.9 67.8215 79.3831 68.1731C78.8663 68.5246 78.4643 69.0207 78.2275 69.5994C77.9907 70.1781 77.9294 70.8138 78.0515 71.4272C78.1735 72.0405 78.4734 72.6043 78.9136 73.0481C79.3539 73.4919 79.9151 73.7962 80.5271 73.9228C81.1391 74.0494 81.7748 73.9928 82.3548 73.7601C82.9349 73.5274 83.4336 73.1288 83.7887 72.6142C84.1438 72.0996 84.3395 71.4917 84.3514 70.8665C84.3681 70.4381 84.2964 70.0108 84.1409 69.6113C83.9854 69.2118 83.7494 68.8487 83.4476 68.5444C83.1457 68.2401 82.7845 68.0013 82.3865 67.8427C81.9884 67.6842 81.562 67.6093 81.1338 67.6228Z" fill="#F4B53D"/>
<path d="M17.1375 67.6228C16.719 67.6042 16.3009 67.6684 15.9072 67.8118C15.5136 67.9552 15.152 68.1749 14.8434 68.4583C14.5348 68.7418 14.2851 69.0834 14.1086 69.4636C13.9322 69.8438 13.8325 70.2552 13.8152 70.674C13.7979 71.0929 13.8635 71.511 14.008 71.9045C14.1525 72.2979 14.3733 72.659 14.6575 72.9669C14.9418 73.2748 15.284 73.5236 15.6645 73.6989C16.045 73.8743 16.4564 73.9727 16.875 73.9887C17.7186 74.0235 18.5415 73.7215 19.1626 73.1493C19.7837 72.577 20.1522 71.7812 20.187 70.9371C20.2218 70.0929 19.9201 69.2695 19.3482 68.648C18.7763 68.0264 17.9811 67.6577 17.1375 67.6228Z" fill="#F4B53D"/>
<path d="M70.5525 99.7144C69.8486 99.6861 69.1558 99.8963 68.5862 100.311C68.0166 100.726 67.6036 101.321 67.4141 102H73.52C73.3432 101.347 72.9573 100.769 72.4213 100.357C71.8853 99.9438 71.2289 99.7182 70.5525 99.7144Z" fill="#F4B53D"/>
<path d="M91.8629 99.7144C91.1715 99.6972 90.4945 99.9133 89.9409 100.328C89.3872 100.742 88.989 101.331 88.8105 102H94.906C94.7268 101.334 94.3297 100.747 93.7782 100.332C93.2266 99.918 92.5524 99.7005 91.8629 99.7144Z" fill="#F4B53D"/>
<path d="M49.0555 99.7144C48.3705 99.7062 47.7022 99.9264 47.1561 100.34C46.6099 100.754 46.2169 101.338 46.0391 102H52.1292C51.95 101.328 51.5487 100.736 50.9906 100.321C50.4325 99.9059 49.7504 99.6922 49.0555 99.7144Z" fill="#F4B53D"/>
<path d="M102.584 67.6228C102.158 67.6164 101.735 67.6957 101.34 67.8561C100.945 68.0164 100.586 68.2545 100.285 68.5563C99.9834 68.8581 99.7458 69.2173 99.5859 69.6128C99.426 70.0082 99.3471 70.4317 99.3539 70.8582C99.3607 71.2848 99.4531 71.7056 99.6255 72.0957C99.798 72.4858 100.047 72.8373 100.358 73.1293C100.668 73.4212 101.035 73.6478 101.435 73.7954C101.835 73.9431 102.26 74.0088 102.686 73.9888C103.461 73.9767 104.203 73.6714 104.763 73.1341C105.322 72.5969 105.657 71.8675 105.701 71.0928V70.5044C105.652 69.7152 105.3 68.9755 104.72 68.4389C104.139 67.9024 103.374 67.6101 102.584 67.6228Z" fill="#F4B53D"/>
<path d="M102.416 52.5886C103.175 52.6407 103.927 52.4097 104.527 51.9402C105.127 51.4706 105.532 50.7956 105.665 50.0452H99.416C99.5453 50.7506 99.9148 51.3895 100.462 51.8532C101.008 52.3169 101.699 52.5767 102.416 52.5886Z" fill="#F4B53D"/>
<path d="M27.6393 99.7144C26.9594 99.7176 26.2991 99.9424 25.7583 100.355C25.2176 100.767 24.8259 101.345 24.6426 102H30.7601C30.5724 101.323 30.1624 100.73 29.5962 100.315C29.0299 99.9005 28.3406 99.6888 27.6393 99.7144Z" fill="#F4B53D"/>
<path d="M102.697 89.0231C102.279 89.0018 101.86 89.0634 101.465 89.2044C101.071 89.3454 100.707 89.563 100.397 89.8447C100.086 90.1265 99.8346 90.4667 99.6558 90.8461C99.477 91.2255 99.3748 91.6364 99.3551 92.0554C99.3354 92.4743 99.3985 92.893 99.5409 93.2875C99.6833 93.682 99.9021 94.0445 100.185 94.3542C100.467 94.6638 100.808 94.9146 101.188 95.0921C101.568 95.2696 101.979 95.3703 102.398 95.3885C102.804 95.4178 103.213 95.3662 103.599 95.2369C103.986 95.1075 104.343 94.9029 104.65 94.6348C104.957 94.3666 105.208 94.0403 105.389 93.6747C105.57 93.309 105.676 92.9111 105.702 92.5041V91.9175C105.658 91.145 105.324 90.4176 104.767 89.8809C104.21 89.3443 103.47 89.0379 102.697 89.0231Z" fill="#F4B53D"/>
<path d="M27.643 84.6887C28.0612 84.696 28.4769 84.6207 28.8661 84.4673C29.2553 84.3139 29.6105 84.0852 29.9114 83.7944C30.2123 83.5036 30.4531 83.1563 30.6198 82.7724C30.7866 82.3885 30.8762 81.9754 30.8835 81.5569C30.8908 81.1383 30.8156 80.7224 30.6622 80.333C30.5089 79.9435 30.2803 79.588 29.9897 79.2869C29.6991 78.9858 29.352 78.745 28.9684 78.5781C28.5847 78.4112 28.172 78.3216 27.7537 78.3143C27.3344 78.3053 26.9174 78.3793 26.5267 78.532C26.1361 78.6847 25.7794 78.913 25.4771 79.204C25.1749 79.4949 24.933 79.8427 24.7654 80.2275C24.5978 80.6122 24.5078 81.0263 24.5005 81.4459C24.4932 81.8655 24.5688 82.2825 24.7229 82.6728C24.8771 83.0631 25.1067 83.4191 25.3987 83.7204C25.6906 84.0217 26.0392 84.2623 26.4243 84.4285C26.8095 84.5946 27.2236 84.6831 27.643 84.6887Z" fill="#F4B53D"/>
<path d="M41.5802 70.7777C41.5763 70.1419 41.3828 69.5216 41.0245 68.9965C40.6662 68.4713 40.1594 68.0651 39.569 67.83C38.9786 67.5948 38.3315 67.5414 37.7106 67.6765C37.0897 67.8116 36.5232 68.1292 36.0837 68.5884C35.6442 69.0477 35.3517 69.6278 35.2437 70.2544C35.1357 70.8811 35.2171 71.5257 35.4774 72.1057C35.7378 72.6858 36.1653 73.1749 36.7051 73.5103C37.2449 73.8458 37.8725 74.0124 38.5075 73.9887C38.921 73.9832 39.3293 73.8955 39.7086 73.7305C40.0878 73.5655 40.4304 73.3266 40.7165 73.0277C41.0025 72.7288 41.2261 72.3759 41.3744 71.9896C41.5227 71.6033 41.5927 71.1914 41.5802 70.7777Z" fill="#F4B53D"/>
<path d="M38.1632 52.587C38.9377 52.6572 39.7105 52.4355 40.3302 51.9653C40.9499 51.4952 41.3718 50.8104 41.5133 50.0452H35.2715C35.3967 50.733 35.7504 51.3583 36.2753 51.8197C36.8002 52.2811 37.4655 52.5515 38.1632 52.587Z" fill="#F4B53D"/>
<path d="M30.8818 60.1734C30.8948 59.5458 30.7225 58.9283 30.3865 58.3981C30.0506 57.868 29.5659 57.4487 28.9931 57.1927C28.4203 56.9368 27.7848 56.8555 27.166 56.959C26.5473 57.0626 25.9728 57.3464 25.5144 57.7749C25.0559 58.2035 24.734 58.7577 24.5887 59.3684C24.4434 59.9791 24.4813 60.6191 24.6976 61.2084C24.9138 61.7977 25.2989 62.31 25.8047 62.6815C26.3105 63.0529 26.9144 63.2668 27.541 63.2966C27.9689 63.3265 28.3984 63.2679 28.8027 63.1245C29.2069 62.981 29.5773 62.7557 29.8908 62.4627C30.2042 62.1697 30.454 61.8152 30.6245 61.4213C30.795 61.0275 30.8826 60.6027 30.8818 60.1734Z" fill="#F4B53D"/>
<path d="M9.49375 81.5821C9.51494 81.1535 9.44742 80.7252 9.29543 80.324C9.14343 79.9227 8.91024 79.5573 8.61047 79.2505C8.31069 78.9437 7.95081 78.7022 7.55339 78.5411C7.15596 78.38 6.72956 78.3028 6.30092 78.3144C5.96027 78.3187 5.6223 78.3754 5.29883 78.4824V84.529C5.57367 84.6192 5.85921 84.6728 6.14805 84.6883C6.57548 84.7214 7.00513 84.6656 7.40996 84.5244C7.81479 84.3832 8.18603 84.1597 8.5003 83.8679C8.81458 83.5762 9.06509 83.2224 9.23606 82.829C9.40704 82.4356 9.49477 82.0111 9.49375 81.5821Z" fill="#F4B53D"/>
<path d="M5.29883 57.0815V63.128C5.62014 63.2349 5.95591 63.292 6.29448 63.2973C7.13927 63.3006 7.95084 62.9683 8.55108 62.3734C9.15132 61.7786 9.4912 60.9697 9.49611 60.1243C9.50102 59.279 9.17058 58.4662 8.57729 57.8644C7.98401 57.2626 7.17635 56.9209 6.33158 56.9143C5.98069 56.9155 5.63217 56.9719 5.29883 57.0815Z" fill="#F4B53D"/>
<path d="M13.8139 92.2816C13.8274 92.9086 14.0254 93.5177 14.3831 94.0328C14.7407 94.5478 15.2421 94.9459 15.8247 95.1773C16.4072 95.4087 17.045 95.4632 17.6582 95.3338C18.2715 95.2044 18.8331 94.897 19.2727 94.45C19.7123 94.003 20.0105 93.4362 20.1299 92.8205C20.2494 92.2049 20.1848 91.5676 19.9442 90.9884C19.7037 90.4093 19.2979 89.914 18.7775 89.5644C18.2572 89.2148 17.6454 89.0264 17.0187 89.0229C16.5899 89.0099 16.163 89.0857 15.7649 89.2455C15.3667 89.4053 15.0059 89.6458 14.705 89.9518C14.404 90.2577 14.1696 90.6226 14.0162 91.0235C13.8629 91.4245 13.794 91.8528 13.8139 92.2816Z" fill="#F4B53D"/>
<path d="M111 30.8344H0V50.0452H111V30.8344Z" fill="#F10D0D"/>
<path d="M105.702 50.0452H5.29883V56.8476H105.702V50.0452Z" fill="#B90A0A"/>
<path d="M61.7917 30.8344H49.209V102H61.7917V30.8344Z" fill="#FFC860"/>
<path d="M56.0863 31.0753C62.2934 27.6625 68.2843 23.8699 74.0249 19.7192C75.4282 18.6741 76.799 17.5965 78.074 16.4684C78.7147 15.9072 79.3188 15.3261 79.8799 14.7387C80.4066 14.203 80.8756 13.6135 81.2793 12.9798C81.3667 12.8557 81.4399 12.7224 81.4978 12.5821L81.575 12.4053L81.6165 12.3188C81.6295 12.2911 81.6043 12.3143 81.6043 12.3143C81.5985 12.3201 81.5949 12.3278 81.5941 12.3359C81.5933 12.3441 81.5953 12.3523 81.5999 12.3591C81.6053 12.3693 81.6127 12.3783 81.6215 12.3857C81.6289 12.34 81.6316 12.2937 81.6296 12.2475L81.6377 11.9133L81.6398 11.8298L81.6403 11.8089C81.6377 11.5304 81.6449 12.1641 81.6423 12.0949L81.6345 12.0693L81.6046 11.9671C81.5522 11.6866 81.4681 11.4128 81.3539 11.1513L81.177 10.7384C81.1026 10.597 81.0193 10.4604 80.9277 10.3295C80.1416 9.15351 79.1126 8.15993 77.9101 7.4158C76.6744 6.61178 75.3117 6.02256 73.8797 5.67304L73.3622 5.54851L72.8551 5.48741L72.3524 5.42338L71.8758 5.42476C71.5772 5.41416 71.2783 5.43668 70.9847 5.49188L70.7704 5.51336L70.6656 5.55504C70.5982 5.57743 70.5273 5.58744 70.4563 5.58461C70.4315 5.58968 70.4314 5.5706 70.3848 5.59372L70.2368 5.67107L69.9409 5.82568L69.6447 5.97994L69.4967 6.05703L69.4596 6.07628L69.4411 6.08591C69.3812 6.12003 69.8917 5.8225 69.6696 5.95313L69.6168 5.9924C69.3397 6.21336 69.04 6.37957 68.7725 6.63225C68.4881 6.86196 68.2164 7.10706 67.9587 7.36645C67.6849 7.62526 67.4245 7.898 67.1786 8.18359C66.1324 9.38375 65.2042 10.682 64.4069 12.0604C62.7353 15.008 61.3204 18.0941 60.1777 21.2845C58.9774 24.5235 57.9118 27.8709 56.9889 31.2504C56.7217 32.2739 54.0788 31.9816 54.1641 30.7941C54.4451 27.1458 55.0295 23.5274 55.9111 19.9762C56.781 16.332 58.0871 12.806 59.8012 9.47487C60.7163 7.72869 61.8234 6.09019 63.1018 4.58983C63.4328 4.19776 63.7837 3.8229 64.153 3.46673C64.5219 3.09452 64.9106 2.74239 65.3174 2.41188C65.7063 2.06055 66.175 1.76748 66.6049 1.44941L66.6873 1.39114L66.9474 1.2398L66.966 1.23034L67.0031 1.21135L67.1518 1.13538L67.4493 0.983689L67.7468 0.832259L67.8956 0.75663L68.1465 0.663125C68.4971 0.538164 68.8556 0.424033 69.2157 0.323223C69.3925 0.275439 69.5838 0.219576 69.7489 0.187692L70.1967 0.132259C70.7801 0.0426294 71.3709 0.0108485 71.9605 0.0373788L72.8173 0.0723573C73.0931 0.104758 73.3624 0.15194 73.6348 0.193622L74.4464 0.331044L75.2211 0.539368C77.2357 1.10766 79.131 2.03604 80.8152 3.27964C82.5759 4.53294 84.026 6.17364 85.0538 8.07556C85.1929 8.32548 85.3172 8.58335 85.4262 8.84784L85.7148 9.68844C85.8986 10.2671 86.0178 10.8644 86.0701 11.4693L86.0986 11.6966L86.1021 11.7249C86.1045 11.8713 86.1017 11.4373 86.1083 12.0603L86.1038 12.1018L86.0949 12.1849L86.0591 12.5173C86.0539 12.5844 86.0447 12.651 86.0316 12.717L85.9522 13.0636C85.8939 13.2948 85.8242 13.5249 85.7451 13.7484C85.6861 13.9292 85.6075 14.1029 85.5106 14.2664L85.2785 14.6831C85.1334 14.9394 84.9681 15.1837 84.7841 15.4137C84.1554 16.2347 83.4409 16.9862 82.6527 17.6553C81.9189 18.2918 81.1741 18.8766 80.4169 19.4187C78.905 20.5099 77.3594 21.4826 75.7971 22.4077C69.5538 25.9482 63.1113 29.1249 56.5019 31.9219C55.3952 32.3919 55.1039 31.6207 56.0863 31.0753Z" fill="#FFC860"/>
<path d="M54.5205 31.8798C47.9155 29.0752 41.4741 25.8998 35.2268 22.3688C33.6635 21.4459 32.1168 20.476 30.6036 19.3881C29.8456 18.8476 29.1003 18.2644 28.3659 17.63C27.5774 16.963 26.8624 16.2135 26.2332 15.3944C26.049 15.165 25.8837 14.9211 25.7388 14.6651L25.5068 14.2499L25.3937 14.0403C25.3479 13.9389 25.3073 13.8353 25.2722 13.7298C25.1935 13.5072 25.1243 13.2782 25.0662 13.0481L24.9872 12.7031C24.9656 12.5944 24.9707 12.5775 24.9611 12.5102L24.9245 12.1777L24.9154 12.0946L24.9132 12.0738C24.9104 12.3385 24.9138 11.6907 24.9152 11.7463L24.9219 11.6897L24.9501 11.4629C25.0013 10.8589 25.1197 10.2626 25.3029 9.68479L25.5898 8.84453C25.6992 8.58063 25.8232 8.32303 25.9613 8.07294C26.9864 6.17001 28.4337 4.52747 30.192 3.27143C31.8755 2.02383 33.771 1.09185 35.7867 0.520679L36.562 0.310722L37.3751 0.172613C37.648 0.130931 37.9169 0.0817716 38.1943 0.0510902L39.0526 0.0148225C39.6437 -0.0116084 40.2361 0.0200554 40.821 0.109359L41.27 0.164534C41.4409 0.20063 41.6293 0.253656 41.8079 0.302557C42.1696 0.403797 42.5294 0.518444 42.8814 0.644006C42.9619 0.673914 43.0739 0.710783 43.1269 0.736738L43.2758 0.812109L43.5736 0.963196L43.8713 1.11445L44.02 1.19017L44.0572 1.20908L44.0759 1.21862C44.0287 1.19008 44.5503 1.49612 44.3394 1.37366L44.4221 1.43192C44.8528 1.75034 45.3237 2.04306 45.7122 2.3956C46.1198 2.72634 46.5093 3.07893 46.8788 3.45183C47.2485 3.80861 47.5998 4.18394 47.9314 4.57638C49.2113 6.07813 50.3184 7.71904 51.2321 9.46821C52.9432 12.802 54.2384 16.3335 55.0884 19.9835C55.95 23.5379 56.5014 27.1605 56.7361 30.8104C56.8042 31.9626 54.1713 32.3227 53.9115 31.2669C53.0347 27.8824 51.9992 24.5259 50.8182 21.2801C49.6934 18.0814 48.2878 14.9886 46.6179 12.038C45.8205 10.6571 44.8909 9.35711 43.8422 8.1562C43.5957 7.87017 43.3344 7.59717 43.0596 7.33829C42.8007 7.07891 42.5281 6.8337 42.2428 6.60374C41.9738 6.35236 41.6733 6.18469 41.395 5.96407L41.342 5.92471C41.8194 6.20316 41.4637 5.99639 41.5655 6.05603L41.5469 6.04649L41.5099 6.02724L41.3617 5.95041L41.0655 5.79657L40.7692 5.64248L40.6212 5.5653C40.5842 5.55121 40.5766 5.5635 40.5537 5.56032C40.4813 5.56254 40.409 5.55201 40.3402 5.52921C40.3024 5.51906 40.2824 5.50041 40.2301 5.48804L40.0147 5.46681C39.7195 5.41205 39.4191 5.39054 39.1191 5.4027L38.6411 5.40253L38.1371 5.46905L37.629 5.53264L37.1109 5.65863C35.6792 6.01335 34.3177 6.60773 33.0841 7.41667C31.8855 8.1643 30.8613 9.16081 30.0808 10.3388C29.9069 10.5939 29.7653 10.8697 29.6594 11.1598C29.5472 11.4207 29.4647 11.6935 29.4135 11.9729L29.3839 12.0747L29.3802 12.0874C29.2175 11.9644 29.7389 12.3807 29.0144 11.8149L29.069 11.8534L29.1782 11.9305C29.2505 11.9783 29.3202 12.03 29.3869 12.0854L29.3914 12.2524C29.3951 12.2919 29.3895 12.3999 29.4009 12.3833C29.4097 12.3752 29.4169 12.3656 29.4222 12.3549C29.4266 12.3474 29.4284 12.3387 29.4274 12.33C29.4263 12.3214 29.4225 12.3133 29.4165 12.307C29.3856 12.2707 29.4163 12.3377 29.4477 12.399L29.5249 12.5743C29.5834 12.7137 29.6571 12.8462 29.7444 12.9696C30.1493 13.6004 30.619 14.187 31.1459 14.72C31.7073 15.305 32.3121 15.8839 32.9532 16.443C34.2289 17.5671 35.6004 18.6412 37.004 19.6834C42.7479 23.824 48.7361 27.6142 54.9362 31.0332C55.9763 31.611 55.5651 32.324 54.5205 31.8798Z" fill="#FFC860"/>
</g>
<defs>
<clipPath id="clip0">
<rect width="111" height="102" fill="white"/>
</clipPath>
</defs>
</svg>
